G04 #@! TF.GenerationSoftware,KiCad,Pcbnew,5.1.6-c6e7f7d~87~ubuntu18.04.1*
G04 #@! TF.CreationDate,2020-08-24T14:21:44+10:00*
G04 #@! TF.ProjectId,GridTiedBatteryBoostConverter,47726964-5469-4656-9442-617474657279,rev?*
G04 #@! TF.SameCoordinates,Original*
G04 #@! TF.FileFunction,Soldermask,Top*
G04 #@! TF.FilePolarity,Negative*
%FSLAX46Y46*%
G04 Gerber Fmt 4.6, Leading zero omitted, Abs format (unit mm)*
G04 Created by KiCad (PCBNEW 5.1.6-c6e7f7d~87~ubuntu18.04.1) date 2020-08-24 14:21:44*
%MOMM*%
%LPD*%
G01*
G04 APERTURE LIST*
%ADD10C,1.903400*%
%ADD11R,10.600000X4.200000*%
%ADD12C,2.600000*%
%ADD13C,3.148000*%
%ADD14O,2.132000X2.640000*%
%ADD15C,2.700000*%
%ADD16C,6.500000*%
%ADD17R,4.100000X4.100000*%
%ADD18R,1.585000X1.000000*%
%ADD19C,2.000000*%
%ADD20R,1.700000X1.700000*%
%ADD21C,1.700000*%
%ADD22R,1.650000X0.700000*%
%ADD23C,3.000000*%
%ADD24C,2.500000*%
%ADD25R,2.500000X2.500000*%
%ADD26C,5.180000*%
%ADD27C,3.500000*%
%ADD28R,2.600000X2.600000*%
%ADD29R,2.100000X2.600000*%
%ADD30R,0.900000X2.000000*%
%ADD31R,2.000000X0.900000*%
%ADD32C,1.900000*%
%ADD33R,1.550000X0.550000*%
%ADD34R,2.132000X1.624000*%
%ADD35R,1.751000X2.944800*%
%ADD36R,0.989000X0.404800*%
%ADD37R,1.660000X0.750000*%
%ADD38R,1.800000X1.800000*%
%ADD39O,1.800000X1.800000*%
%ADD40R,1.600000X0.700000*%
%ADD41R,0.750000X1.660000*%
%ADD42O,2.600000X4.600000*%
%ADD43R,2.600000X4.600000*%
%ADD44O,3.700000X3.700000*%
%ADD45C,4.100000*%
%ADD46R,3.600000X1.900000*%
%ADD47R,3.100000X3.100000*%
G04 APERTURE END LIST*
D10*
X19350000Y-30150000D03*
X19350000Y-35150000D03*
X19350000Y-40150000D03*
X19350000Y-45150001D03*
D11*
X126650000Y-25550000D03*
X112350000Y-53250000D03*
D12*
X112350000Y-25550000D03*
X126650000Y-53220000D03*
D11*
X166050000Y-25750000D03*
X151750000Y-53450000D03*
D12*
X151750000Y-25750000D03*
X166050000Y-53420000D03*
D13*
X230444600Y-123300000D03*
X230444600Y-129624600D03*
X230444600Y-136050800D03*
X230444600Y-142350000D03*
X260924600Y-123300000D03*
X260950000Y-129650000D03*
X260975400Y-136000000D03*
X260950000Y-142350000D03*
D14*
X194740000Y-31500000D03*
X192200000Y-29000000D03*
X189660000Y-31500000D03*
D15*
X196600000Y-154800000D03*
X191600000Y-154800000D03*
X181000000Y-154950000D03*
X176000000Y-154950000D03*
X55000000Y-154700000D03*
X50000000Y-154700000D03*
D16*
X141750000Y-91800000D03*
X278150000Y-19500000D03*
X278050000Y-152600000D03*
X18000000Y-19500000D03*
X18000000Y-152500000D03*
D17*
X53850000Y-131350000D03*
D18*
X61642500Y-124750000D03*
X61642500Y-126250000D03*
X61642500Y-127750000D03*
X61642500Y-129250000D03*
X61642500Y-130750000D03*
X61642500Y-132250000D03*
X61642500Y-133750000D03*
X61642500Y-135250000D03*
X61642500Y-136750000D03*
X43857500Y-136750000D03*
X43857500Y-135250000D03*
X43857500Y-133750000D03*
X43857500Y-132250000D03*
X43857500Y-130750000D03*
X43857500Y-129250000D03*
X43857500Y-127750000D03*
X43857500Y-126250000D03*
X43857500Y-124750000D03*
D19*
X155440000Y-113600000D03*
X159250000Y-113600000D03*
D20*
X149090000Y-121220000D03*
D21*
X151630000Y-121220000D03*
X154170000Y-121220000D03*
X156710000Y-121220000D03*
X159250000Y-121220000D03*
X161790000Y-121220000D03*
X164330000Y-121220000D03*
X166870000Y-121220000D03*
X169410000Y-121220000D03*
X171950000Y-121220000D03*
X174490000Y-121220000D03*
X177030000Y-121220000D03*
X179570000Y-121220000D03*
X161790000Y-108520000D03*
X159250000Y-108520000D03*
X156710000Y-108520000D03*
X151630000Y-108520000D03*
X149090000Y-105980000D03*
X151630000Y-105980000D03*
X154170000Y-105980000D03*
X156710000Y-105980000D03*
X159250000Y-105980000D03*
X161790000Y-105980000D03*
X164330000Y-105980000D03*
X166870000Y-105980000D03*
X169410000Y-105980000D03*
X171950000Y-105980000D03*
X174490000Y-105980000D03*
X177030000Y-105980000D03*
X179570000Y-105980000D03*
X182110000Y-121220000D03*
X182110000Y-118680000D03*
X182110000Y-116140000D03*
X182110000Y-105980000D03*
X182110000Y-108520000D03*
X182110000Y-111060000D03*
X182110000Y-113600000D03*
D22*
X191000000Y-64095000D03*
X191000000Y-65365000D03*
X191000000Y-66635000D03*
X191000000Y-67905000D03*
X196400000Y-67905000D03*
X196400000Y-66635000D03*
X196400000Y-65365000D03*
X196400000Y-64095000D03*
D23*
X83500000Y-71900000D03*
X83500000Y-21900000D03*
X275500000Y-27100000D03*
X275500000Y-64600000D03*
X255200000Y-64600000D03*
X255200000Y-27100000D03*
D24*
X203900000Y-31700000D03*
D25*
X209100000Y-31700000D03*
D24*
X239700000Y-73800000D03*
D25*
X239700000Y-79000000D03*
D24*
X211700000Y-91500000D03*
D25*
X216900000Y-91500000D03*
D24*
X239400000Y-110500000D03*
D25*
X234200000Y-110500000D03*
D26*
X55938000Y-26300000D03*
X63558000Y-26300000D03*
X38920000Y-26300000D03*
X31300000Y-26300000D03*
D27*
X259100000Y-98150000D03*
X268600000Y-91800000D03*
X259100000Y-85450000D03*
X268600000Y-79100000D03*
D12*
X272500000Y-117900000D03*
D28*
X272500000Y-122900000D03*
D17*
X116300000Y-70750000D03*
X127900000Y-70750000D03*
D29*
X147600000Y-76500000D03*
X143600000Y-76500000D03*
D30*
X190800000Y-75200000D03*
X189850000Y-72200000D03*
X191750000Y-72200000D03*
D31*
X168750000Y-68550000D03*
X171750000Y-67600000D03*
X171750000Y-69500000D03*
D30*
X163850000Y-71550000D03*
X162900000Y-68550000D03*
X164800000Y-68550000D03*
D31*
X154350000Y-136100000D03*
X151350000Y-137050000D03*
X151350000Y-135150000D03*
D30*
X108600000Y-142100000D03*
X107650000Y-139100000D03*
X109550000Y-139100000D03*
D31*
X157650000Y-141600000D03*
X154650000Y-142550000D03*
X154650000Y-140650000D03*
D30*
X71950000Y-73500000D03*
X72900000Y-76500000D03*
X71000000Y-76500000D03*
X77250000Y-73500000D03*
X78200000Y-76500000D03*
X76300000Y-76500000D03*
D32*
X168400000Y-140900000D03*
X165860000Y-148520000D03*
X168400000Y-153600000D03*
D33*
X191400000Y-84125000D03*
X191400000Y-84775000D03*
X191400000Y-85425000D03*
X191400000Y-86075000D03*
X187000000Y-86075000D03*
X187000000Y-85425000D03*
X187000000Y-84775000D03*
X187000000Y-84125000D03*
D34*
X83910000Y-89610000D03*
X83910000Y-87070000D03*
X83910000Y-84530000D03*
X83910000Y-81990000D03*
X76290000Y-81990000D03*
X76290000Y-84530000D03*
X76290000Y-87070000D03*
X76290000Y-89610000D03*
D35*
X119200000Y-88100000D03*
D36*
X121308200Y-86348670D03*
X121308200Y-87349430D03*
X121308200Y-88350190D03*
X121308200Y-88850570D03*
X121308200Y-89350950D03*
X121308200Y-89851330D03*
X117091800Y-89851330D03*
X117091800Y-89350950D03*
X117091800Y-88850570D03*
X117091800Y-88350190D03*
X117091800Y-87349430D03*
X117091800Y-86348670D03*
D37*
X140050000Y-80850000D03*
X140050000Y-78950000D03*
X142750000Y-78950000D03*
X142750000Y-79900000D03*
X142750000Y-80850000D03*
D38*
X148600000Y-146600000D03*
D39*
X146060000Y-146600000D03*
X143520000Y-146600000D03*
X140980000Y-146600000D03*
X138440000Y-146600000D03*
X135900000Y-146600000D03*
X133360000Y-146600000D03*
X130820000Y-146600000D03*
X128280000Y-146600000D03*
X125740000Y-146600000D03*
X123200000Y-146600000D03*
X120660000Y-146600000D03*
X118120000Y-146600000D03*
X115580000Y-146600000D03*
X113040000Y-146600000D03*
X110500000Y-146600000D03*
X74550000Y-138850000D03*
X74550000Y-136310000D03*
D38*
X74550000Y-133770000D03*
D39*
X32340000Y-137600000D03*
D38*
X29800000Y-137600000D03*
D39*
X32340000Y-133500000D03*
D38*
X29800000Y-133500000D03*
X38100000Y-138700000D03*
D39*
X38100000Y-136160000D03*
D29*
X29700000Y-112550000D03*
X25700000Y-112550000D03*
D40*
X138400000Y-130005000D03*
X138400000Y-131275000D03*
X138400000Y-132545000D03*
X138400000Y-133815000D03*
X138400000Y-135085000D03*
X138400000Y-136355000D03*
X138400000Y-137625000D03*
X138400000Y-138895000D03*
X129100000Y-138895000D03*
X129100000Y-137625000D03*
X129100000Y-136355000D03*
X129100000Y-135085000D03*
X129100000Y-133815000D03*
X129100000Y-132545000D03*
X129100000Y-131275000D03*
X129100000Y-130005000D03*
D30*
X167300000Y-99500000D03*
X165400000Y-99500000D03*
X166350000Y-102500000D03*
D37*
X29700000Y-108100000D03*
X29700000Y-109050000D03*
X29700000Y-110000000D03*
X32400000Y-110000000D03*
X32400000Y-108100000D03*
D39*
X160920000Y-101000000D03*
X158380000Y-101000000D03*
X155840000Y-101000000D03*
D38*
X153300000Y-101000000D03*
D30*
X194700000Y-106650000D03*
X195650000Y-109650000D03*
X193750000Y-109650000D03*
D31*
X190350000Y-103850000D03*
X190350000Y-101950000D03*
X187350000Y-102900000D03*
X185050000Y-117550000D03*
X188050000Y-116600000D03*
X188050000Y-118500000D03*
X194900000Y-115650000D03*
X194900000Y-113750000D03*
X191900000Y-114700000D03*
D41*
X161750000Y-78850000D03*
X162700000Y-78850000D03*
X163650000Y-78850000D03*
X163650000Y-76150000D03*
X161750000Y-76150000D03*
D42*
X38500000Y-67350000D03*
X33050000Y-67350000D03*
D43*
X27600000Y-67350000D03*
D44*
X33050000Y-47490000D03*
X49500000Y-87510000D03*
D43*
X54950000Y-67650000D03*
D42*
X49500000Y-67650000D03*
X44050000Y-67650000D03*
D17*
X57450000Y-43200000D03*
D45*
X57450000Y-53200000D03*
D17*
X231100000Y-32000000D03*
D45*
X231100000Y-42000000D03*
G36*
G01*
X188750000Y-78778262D02*
X188750000Y-77821738D01*
G75*
G02*
X189021738Y-77550000I271738J0D01*
G01*
X189728262Y-77550000D01*
G75*
G02*
X190000000Y-77821738I0J-271738D01*
G01*
X190000000Y-78778262D01*
G75*
G02*
X189728262Y-79050000I-271738J0D01*
G01*
X189021738Y-79050000D01*
G75*
G02*
X188750000Y-78778262I0J271738D01*
G01*
G37*
G36*
G01*
X190800000Y-78778262D02*
X190800000Y-77821738D01*
G75*
G02*
X191071738Y-77550000I271738J0D01*
G01*
X191778262Y-77550000D01*
G75*
G02*
X192050000Y-77821738I0J-271738D01*
G01*
X192050000Y-78778262D01*
G75*
G02*
X191778262Y-79050000I-271738J0D01*
G01*
X191071738Y-79050000D01*
G75*
G02*
X190800000Y-78778262I0J271738D01*
G01*
G37*
G36*
G01*
X188750000Y-82778262D02*
X188750000Y-81821738D01*
G75*
G02*
X189021738Y-81550000I271738J0D01*
G01*
X189728262Y-81550000D01*
G75*
G02*
X190000000Y-81821738I0J-271738D01*
G01*
X190000000Y-82778262D01*
G75*
G02*
X189728262Y-83050000I-271738J0D01*
G01*
X189021738Y-83050000D01*
G75*
G02*
X188750000Y-82778262I0J271738D01*
G01*
G37*
G36*
G01*
X190800000Y-82778262D02*
X190800000Y-81821738D01*
G75*
G02*
X191071738Y-81550000I271738J0D01*
G01*
X191778262Y-81550000D01*
G75*
G02*
X192050000Y-81821738I0J-271738D01*
G01*
X192050000Y-82778262D01*
G75*
G02*
X191778262Y-83050000I-271738J0D01*
G01*
X191071738Y-83050000D01*
G75*
G02*
X190800000Y-82778262I0J271738D01*
G01*
G37*
G36*
G01*
X192578262Y-60200000D02*
X191621738Y-60200000D01*
G75*
G02*
X191350000Y-59928262I0J271738D01*
G01*
X191350000Y-59221738D01*
G75*
G02*
X191621738Y-58950000I271738J0D01*
G01*
X192578262Y-58950000D01*
G75*
G02*
X192850000Y-59221738I0J-271738D01*
G01*
X192850000Y-59928262D01*
G75*
G02*
X192578262Y-60200000I-271738J0D01*
G01*
G37*
G36*
G01*
X192578262Y-62250000D02*
X191621738Y-62250000D01*
G75*
G02*
X191350000Y-61978262I0J271738D01*
G01*
X191350000Y-61271738D01*
G75*
G02*
X191621738Y-61000000I271738J0D01*
G01*
X192578262Y-61000000D01*
G75*
G02*
X192850000Y-61271738I0J-271738D01*
G01*
X192850000Y-61978262D01*
G75*
G02*
X192578262Y-62250000I-271738J0D01*
G01*
G37*
G36*
G01*
X194578262Y-62250000D02*
X193621738Y-62250000D01*
G75*
G02*
X193350000Y-61978262I0J271738D01*
G01*
X193350000Y-61271738D01*
G75*
G02*
X193621738Y-61000000I271738J0D01*
G01*
X194578262Y-61000000D01*
G75*
G02*
X194850000Y-61271738I0J-271738D01*
G01*
X194850000Y-61978262D01*
G75*
G02*
X194578262Y-62250000I-271738J0D01*
G01*
G37*
G36*
G01*
X194578262Y-60200000D02*
X193621738Y-60200000D01*
G75*
G02*
X193350000Y-59928262I0J271738D01*
G01*
X193350000Y-59221738D01*
G75*
G02*
X193621738Y-58950000I271738J0D01*
G01*
X194578262Y-58950000D01*
G75*
G02*
X194850000Y-59221738I0J-271738D01*
G01*
X194850000Y-59928262D01*
G75*
G02*
X194578262Y-60200000I-271738J0D01*
G01*
G37*
G36*
G01*
X182800000Y-83321738D02*
X182800000Y-84278262D01*
G75*
G02*
X182528262Y-84550000I-271738J0D01*
G01*
X181821738Y-84550000D01*
G75*
G02*
X181550000Y-84278262I0J271738D01*
G01*
X181550000Y-83321738D01*
G75*
G02*
X181821738Y-83050000I271738J0D01*
G01*
X182528262Y-83050000D01*
G75*
G02*
X182800000Y-83321738I0J-271738D01*
G01*
G37*
G36*
G01*
X184850000Y-83321738D02*
X184850000Y-84278262D01*
G75*
G02*
X184578262Y-84550000I-271738J0D01*
G01*
X183871738Y-84550000D01*
G75*
G02*
X183600000Y-84278262I0J271738D01*
G01*
X183600000Y-83321738D01*
G75*
G02*
X183871738Y-83050000I271738J0D01*
G01*
X184578262Y-83050000D01*
G75*
G02*
X184850000Y-83321738I0J-271738D01*
G01*
G37*
G36*
G01*
X190800000Y-80778262D02*
X190800000Y-79821738D01*
G75*
G02*
X191071738Y-79550000I271738J0D01*
G01*
X191778262Y-79550000D01*
G75*
G02*
X192050000Y-79821738I0J-271738D01*
G01*
X192050000Y-80778262D01*
G75*
G02*
X191778262Y-81050000I-271738J0D01*
G01*
X191071738Y-81050000D01*
G75*
G02*
X190800000Y-80778262I0J271738D01*
G01*
G37*
G36*
G01*
X188750000Y-80778262D02*
X188750000Y-79821738D01*
G75*
G02*
X189021738Y-79550000I271738J0D01*
G01*
X189728262Y-79550000D01*
G75*
G02*
X190000000Y-79821738I0J-271738D01*
G01*
X190000000Y-80778262D01*
G75*
G02*
X189728262Y-81050000I-271738J0D01*
G01*
X189021738Y-81050000D01*
G75*
G02*
X188750000Y-80778262I0J271738D01*
G01*
G37*
G36*
G01*
X199278262Y-65150000D02*
X198321738Y-65150000D01*
G75*
G02*
X198050000Y-64878262I0J271738D01*
G01*
X198050000Y-64171738D01*
G75*
G02*
X198321738Y-63900000I271738J0D01*
G01*
X199278262Y-63900000D01*
G75*
G02*
X199550000Y-64171738I0J-271738D01*
G01*
X199550000Y-64878262D01*
G75*
G02*
X199278262Y-65150000I-271738J0D01*
G01*
G37*
G36*
G01*
X199278262Y-63100000D02*
X198321738Y-63100000D01*
G75*
G02*
X198050000Y-62828262I0J271738D01*
G01*
X198050000Y-62121738D01*
G75*
G02*
X198321738Y-61850000I271738J0D01*
G01*
X199278262Y-61850000D01*
G75*
G02*
X199550000Y-62121738I0J-271738D01*
G01*
X199550000Y-62828262D01*
G75*
G02*
X199278262Y-63100000I-271738J0D01*
G01*
G37*
G36*
G01*
X180900000Y-90278262D02*
X180900000Y-89321738D01*
G75*
G02*
X181171738Y-89050000I271738J0D01*
G01*
X181878262Y-89050000D01*
G75*
G02*
X182150000Y-89321738I0J-271738D01*
G01*
X182150000Y-90278262D01*
G75*
G02*
X181878262Y-90550000I-271738J0D01*
G01*
X181171738Y-90550000D01*
G75*
G02*
X180900000Y-90278262I0J271738D01*
G01*
G37*
G36*
G01*
X178850000Y-90278262D02*
X178850000Y-89321738D01*
G75*
G02*
X179121738Y-89050000I271738J0D01*
G01*
X179828262Y-89050000D01*
G75*
G02*
X180100000Y-89321738I0J-271738D01*
G01*
X180100000Y-90278262D01*
G75*
G02*
X179828262Y-90550000I-271738J0D01*
G01*
X179121738Y-90550000D01*
G75*
G02*
X178850000Y-90278262I0J271738D01*
G01*
G37*
G36*
G01*
X194800000Y-84821738D02*
X194800000Y-85778262D01*
G75*
G02*
X194528262Y-86050000I-271738J0D01*
G01*
X193821738Y-86050000D01*
G75*
G02*
X193550000Y-85778262I0J271738D01*
G01*
X193550000Y-84821738D01*
G75*
G02*
X193821738Y-84550000I271738J0D01*
G01*
X194528262Y-84550000D01*
G75*
G02*
X194800000Y-84821738I0J-271738D01*
G01*
G37*
G36*
G01*
X196850000Y-84821738D02*
X196850000Y-85778262D01*
G75*
G02*
X196578262Y-86050000I-271738J0D01*
G01*
X195871738Y-86050000D01*
G75*
G02*
X195600000Y-85778262I0J271738D01*
G01*
X195600000Y-84821738D01*
G75*
G02*
X195871738Y-84550000I271738J0D01*
G01*
X196578262Y-84550000D01*
G75*
G02*
X196850000Y-84821738I0J-271738D01*
G01*
G37*
G36*
G01*
X201178262Y-65150000D02*
X200221738Y-65150000D01*
G75*
G02*
X199950000Y-64878262I0J271738D01*
G01*
X199950000Y-64171738D01*
G75*
G02*
X200221738Y-63900000I271738J0D01*
G01*
X201178262Y-63900000D01*
G75*
G02*
X201450000Y-64171738I0J-271738D01*
G01*
X201450000Y-64878262D01*
G75*
G02*
X201178262Y-65150000I-271738J0D01*
G01*
G37*
G36*
G01*
X201178262Y-63100000D02*
X200221738Y-63100000D01*
G75*
G02*
X199950000Y-62828262I0J271738D01*
G01*
X199950000Y-62121738D01*
G75*
G02*
X200221738Y-61850000I271738J0D01*
G01*
X201178262Y-61850000D01*
G75*
G02*
X201450000Y-62121738I0J-271738D01*
G01*
X201450000Y-62828262D01*
G75*
G02*
X201178262Y-63100000I-271738J0D01*
G01*
G37*
G36*
G01*
X141150000Y-130378262D02*
X141150000Y-129421738D01*
G75*
G02*
X141421738Y-129150000I271738J0D01*
G01*
X142128262Y-129150000D01*
G75*
G02*
X142400000Y-129421738I0J-271738D01*
G01*
X142400000Y-130378262D01*
G75*
G02*
X142128262Y-130650000I-271738J0D01*
G01*
X141421738Y-130650000D01*
G75*
G02*
X141150000Y-130378262I0J271738D01*
G01*
G37*
G36*
G01*
X143200000Y-130378262D02*
X143200000Y-129421738D01*
G75*
G02*
X143471738Y-129150000I271738J0D01*
G01*
X144178262Y-129150000D01*
G75*
G02*
X144450000Y-129421738I0J-271738D01*
G01*
X144450000Y-130378262D01*
G75*
G02*
X144178262Y-130650000I-271738J0D01*
G01*
X143471738Y-130650000D01*
G75*
G02*
X143200000Y-130378262I0J271738D01*
G01*
G37*
G36*
G01*
X141100000Y-128478262D02*
X141100000Y-127521738D01*
G75*
G02*
X141371738Y-127250000I271738J0D01*
G01*
X142078262Y-127250000D01*
G75*
G02*
X142350000Y-127521738I0J-271738D01*
G01*
X142350000Y-128478262D01*
G75*
G02*
X142078262Y-128750000I-271738J0D01*
G01*
X141371738Y-128750000D01*
G75*
G02*
X141100000Y-128478262I0J271738D01*
G01*
G37*
G36*
G01*
X143150000Y-128478262D02*
X143150000Y-127521738D01*
G75*
G02*
X143421738Y-127250000I271738J0D01*
G01*
X144128262Y-127250000D01*
G75*
G02*
X144400000Y-127521738I0J-271738D01*
G01*
X144400000Y-128478262D01*
G75*
G02*
X144128262Y-128750000I-271738J0D01*
G01*
X143421738Y-128750000D01*
G75*
G02*
X143150000Y-128478262I0J271738D01*
G01*
G37*
G36*
G01*
X32271738Y-128250000D02*
X33228262Y-128250000D01*
G75*
G02*
X33500000Y-128521738I0J-271738D01*
G01*
X33500000Y-129228262D01*
G75*
G02*
X33228262Y-129500000I-271738J0D01*
G01*
X32271738Y-129500000D01*
G75*
G02*
X32000000Y-129228262I0J271738D01*
G01*
X32000000Y-128521738D01*
G75*
G02*
X32271738Y-128250000I271738J0D01*
G01*
G37*
G36*
G01*
X32271738Y-126200000D02*
X33228262Y-126200000D01*
G75*
G02*
X33500000Y-126471738I0J-271738D01*
G01*
X33500000Y-127178262D01*
G75*
G02*
X33228262Y-127450000I-271738J0D01*
G01*
X32271738Y-127450000D01*
G75*
G02*
X32000000Y-127178262I0J271738D01*
G01*
X32000000Y-126471738D01*
G75*
G02*
X32271738Y-126200000I271738J0D01*
G01*
G37*
G36*
G01*
X40850000Y-124142544D02*
X40850000Y-125457456D01*
G75*
G02*
X40582456Y-125725000I-267544J0D01*
G01*
X39592544Y-125725000D01*
G75*
G02*
X39325000Y-125457456I0J267544D01*
G01*
X39325000Y-124142544D01*
G75*
G02*
X39592544Y-123875000I267544J0D01*
G01*
X40582456Y-123875000D01*
G75*
G02*
X40850000Y-124142544I0J-267544D01*
G01*
G37*
G36*
G01*
X37875000Y-124142544D02*
X37875000Y-125457456D01*
G75*
G02*
X37607456Y-125725000I-267544J0D01*
G01*
X36617544Y-125725000D01*
G75*
G02*
X36350000Y-125457456I0J267544D01*
G01*
X36350000Y-124142544D01*
G75*
G02*
X36617544Y-123875000I267544J0D01*
G01*
X37607456Y-123875000D01*
G75*
G02*
X37875000Y-124142544I0J-267544D01*
G01*
G37*
G36*
G01*
X65550000Y-129728262D02*
X65550000Y-128771738D01*
G75*
G02*
X65821738Y-128500000I271738J0D01*
G01*
X66528262Y-128500000D01*
G75*
G02*
X66800000Y-128771738I0J-271738D01*
G01*
X66800000Y-129728262D01*
G75*
G02*
X66528262Y-130000000I-271738J0D01*
G01*
X65821738Y-130000000D01*
G75*
G02*
X65550000Y-129728262I0J271738D01*
G01*
G37*
G36*
G01*
X67600000Y-129728262D02*
X67600000Y-128771738D01*
G75*
G02*
X67871738Y-128500000I271738J0D01*
G01*
X68578262Y-128500000D01*
G75*
G02*
X68850000Y-128771738I0J-271738D01*
G01*
X68850000Y-129728262D01*
G75*
G02*
X68578262Y-130000000I-271738J0D01*
G01*
X67871738Y-130000000D01*
G75*
G02*
X67600000Y-129728262I0J271738D01*
G01*
G37*
G36*
G01*
X37857456Y-107375000D02*
X36542544Y-107375000D01*
G75*
G02*
X36275000Y-107107456I0J267544D01*
G01*
X36275000Y-106117544D01*
G75*
G02*
X36542544Y-105850000I267544J0D01*
G01*
X37857456Y-105850000D01*
G75*
G02*
X38125000Y-106117544I0J-267544D01*
G01*
X38125000Y-107107456D01*
G75*
G02*
X37857456Y-107375000I-267544J0D01*
G01*
G37*
G36*
G01*
X37857456Y-110350000D02*
X36542544Y-110350000D01*
G75*
G02*
X36275000Y-110082456I0J267544D01*
G01*
X36275000Y-109092544D01*
G75*
G02*
X36542544Y-108825000I267544J0D01*
G01*
X37857456Y-108825000D01*
G75*
G02*
X38125000Y-109092544I0J-267544D01*
G01*
X38125000Y-110082456D01*
G75*
G02*
X37857456Y-110350000I-267544J0D01*
G01*
G37*
G36*
G01*
X166150000Y-96421738D02*
X166150000Y-97378262D01*
G75*
G02*
X165878262Y-97650000I-271738J0D01*
G01*
X165171738Y-97650000D01*
G75*
G02*
X164900000Y-97378262I0J271738D01*
G01*
X164900000Y-96421738D01*
G75*
G02*
X165171738Y-96150000I271738J0D01*
G01*
X165878262Y-96150000D01*
G75*
G02*
X166150000Y-96421738I0J-271738D01*
G01*
G37*
G36*
G01*
X168200000Y-96421738D02*
X168200000Y-97378262D01*
G75*
G02*
X167928262Y-97650000I-271738J0D01*
G01*
X167221738Y-97650000D01*
G75*
G02*
X166950000Y-97378262I0J271738D01*
G01*
X166950000Y-96421738D01*
G75*
G02*
X167221738Y-96150000I271738J0D01*
G01*
X167928262Y-96150000D01*
G75*
G02*
X168200000Y-96421738I0J-271738D01*
G01*
G37*
G36*
G01*
X112625000Y-81287343D02*
X112625000Y-76312657D01*
G75*
G02*
X112887657Y-76050000I262657J0D01*
G01*
X114437343Y-76050000D01*
G75*
G02*
X114700000Y-76312657I0J-262657D01*
G01*
X114700000Y-81287343D01*
G75*
G02*
X114437343Y-81550000I-262657J0D01*
G01*
X112887657Y-81550000D01*
G75*
G02*
X112625000Y-81287343I0J262657D01*
G01*
G37*
G36*
G01*
X117900000Y-81287343D02*
X117900000Y-76312657D01*
G75*
G02*
X118162657Y-76050000I262657J0D01*
G01*
X119712343Y-76050000D01*
G75*
G02*
X119975000Y-76312657I0J-262657D01*
G01*
X119975000Y-81287343D01*
G75*
G02*
X119712343Y-81550000I-262657J0D01*
G01*
X118162657Y-81550000D01*
G75*
G02*
X117900000Y-81287343I0J262657D01*
G01*
G37*
G36*
G01*
X35128262Y-108450000D02*
X34171738Y-108450000D01*
G75*
G02*
X33900000Y-108178262I0J271738D01*
G01*
X33900000Y-107471738D01*
G75*
G02*
X34171738Y-107200000I271738J0D01*
G01*
X35128262Y-107200000D01*
G75*
G02*
X35400000Y-107471738I0J-271738D01*
G01*
X35400000Y-108178262D01*
G75*
G02*
X35128262Y-108450000I-271738J0D01*
G01*
G37*
G36*
G01*
X35128262Y-110500000D02*
X34171738Y-110500000D01*
G75*
G02*
X33900000Y-110228262I0J271738D01*
G01*
X33900000Y-109521738D01*
G75*
G02*
X34171738Y-109250000I271738J0D01*
G01*
X35128262Y-109250000D01*
G75*
G02*
X35400000Y-109521738I0J-271738D01*
G01*
X35400000Y-110228262D01*
G75*
G02*
X35128262Y-110500000I-271738J0D01*
G01*
G37*
G36*
G01*
X23707456Y-111125000D02*
X22392544Y-111125000D01*
G75*
G02*
X22125000Y-110857456I0J267544D01*
G01*
X22125000Y-109867544D01*
G75*
G02*
X22392544Y-109600000I267544J0D01*
G01*
X23707456Y-109600000D01*
G75*
G02*
X23975000Y-109867544I0J-267544D01*
G01*
X23975000Y-110857456D01*
G75*
G02*
X23707456Y-111125000I-267544J0D01*
G01*
G37*
G36*
G01*
X23707456Y-114100000D02*
X22392544Y-114100000D01*
G75*
G02*
X22125000Y-113832456I0J267544D01*
G01*
X22125000Y-112842544D01*
G75*
G02*
X22392544Y-112575000I267544J0D01*
G01*
X23707456Y-112575000D01*
G75*
G02*
X23975000Y-112842544I0J-267544D01*
G01*
X23975000Y-113832456D01*
G75*
G02*
X23707456Y-114100000I-267544J0D01*
G01*
G37*
G36*
G01*
X129275000Y-80319231D02*
X129275000Y-83280769D01*
G75*
G02*
X129005769Y-83550000I-269231J0D01*
G01*
X128144231Y-83550000D01*
G75*
G02*
X127875000Y-83280769I0J269231D01*
G01*
X127875000Y-80319231D01*
G75*
G02*
X128144231Y-80050000I269231J0D01*
G01*
X129005769Y-80050000D01*
G75*
G02*
X129275000Y-80319231I0J-269231D01*
G01*
G37*
G36*
G01*
X124825000Y-80319231D02*
X124825000Y-83280769D01*
G75*
G02*
X124555769Y-83550000I-269231J0D01*
G01*
X123694231Y-83550000D01*
G75*
G02*
X123425000Y-83280769I0J269231D01*
G01*
X123425000Y-80319231D01*
G75*
G02*
X123694231Y-80050000I269231J0D01*
G01*
X124555769Y-80050000D01*
G75*
G02*
X124825000Y-80319231I0J-269231D01*
G01*
G37*
G36*
G01*
X21157456Y-111075000D02*
X19842544Y-111075000D01*
G75*
G02*
X19575000Y-110807456I0J267544D01*
G01*
X19575000Y-109817544D01*
G75*
G02*
X19842544Y-109550000I267544J0D01*
G01*
X21157456Y-109550000D01*
G75*
G02*
X21425000Y-109817544I0J-267544D01*
G01*
X21425000Y-110807456D01*
G75*
G02*
X21157456Y-111075000I-267544J0D01*
G01*
G37*
G36*
G01*
X21157456Y-114050000D02*
X19842544Y-114050000D01*
G75*
G02*
X19575000Y-113782456I0J267544D01*
G01*
X19575000Y-112792544D01*
G75*
G02*
X19842544Y-112525000I267544J0D01*
G01*
X21157456Y-112525000D01*
G75*
G02*
X21425000Y-112792544I0J-267544D01*
G01*
X21425000Y-113782456D01*
G75*
G02*
X21157456Y-114050000I-267544J0D01*
G01*
G37*
G36*
G01*
X134542544Y-75950000D02*
X135857456Y-75950000D01*
G75*
G02*
X136125000Y-76217544I0J-267544D01*
G01*
X136125000Y-77207456D01*
G75*
G02*
X135857456Y-77475000I-267544J0D01*
G01*
X134542544Y-77475000D01*
G75*
G02*
X134275000Y-77207456I0J267544D01*
G01*
X134275000Y-76217544D01*
G75*
G02*
X134542544Y-75950000I267544J0D01*
G01*
G37*
G36*
G01*
X134542544Y-78925000D02*
X135857456Y-78925000D01*
G75*
G02*
X136125000Y-79192544I0J-267544D01*
G01*
X136125000Y-80182456D01*
G75*
G02*
X135857456Y-80450000I-267544J0D01*
G01*
X134542544Y-80450000D01*
G75*
G02*
X134275000Y-80182456I0J267544D01*
G01*
X134275000Y-79192544D01*
G75*
G02*
X134542544Y-78925000I267544J0D01*
G01*
G37*
G36*
G01*
X137321738Y-79350000D02*
X138278262Y-79350000D01*
G75*
G02*
X138550000Y-79621738I0J-271738D01*
G01*
X138550000Y-80328262D01*
G75*
G02*
X138278262Y-80600000I-271738J0D01*
G01*
X137321738Y-80600000D01*
G75*
G02*
X137050000Y-80328262I0J271738D01*
G01*
X137050000Y-79621738D01*
G75*
G02*
X137321738Y-79350000I271738J0D01*
G01*
G37*
G36*
G01*
X137321738Y-77300000D02*
X138278262Y-77300000D01*
G75*
G02*
X138550000Y-77571738I0J-271738D01*
G01*
X138550000Y-78278262D01*
G75*
G02*
X138278262Y-78550000I-271738J0D01*
G01*
X137321738Y-78550000D01*
G75*
G02*
X137050000Y-78278262I0J271738D01*
G01*
X137050000Y-77571738D01*
G75*
G02*
X137321738Y-77300000I271738J0D01*
G01*
G37*
G36*
G01*
X152442544Y-76350000D02*
X153757456Y-76350000D01*
G75*
G02*
X154025000Y-76617544I0J-267544D01*
G01*
X154025000Y-77607456D01*
G75*
G02*
X153757456Y-77875000I-267544J0D01*
G01*
X152442544Y-77875000D01*
G75*
G02*
X152175000Y-77607456I0J267544D01*
G01*
X152175000Y-76617544D01*
G75*
G02*
X152442544Y-76350000I267544J0D01*
G01*
G37*
G36*
G01*
X152442544Y-79325000D02*
X153757456Y-79325000D01*
G75*
G02*
X154025000Y-79592544I0J-267544D01*
G01*
X154025000Y-80582456D01*
G75*
G02*
X153757456Y-80850000I-267544J0D01*
G01*
X152442544Y-80850000D01*
G75*
G02*
X152175000Y-80582456I0J267544D01*
G01*
X152175000Y-79592544D01*
G75*
G02*
X152442544Y-79325000I267544J0D01*
G01*
G37*
G36*
G01*
X149442544Y-76250000D02*
X150757456Y-76250000D01*
G75*
G02*
X151025000Y-76517544I0J-267544D01*
G01*
X151025000Y-77507456D01*
G75*
G02*
X150757456Y-77775000I-267544J0D01*
G01*
X149442544Y-77775000D01*
G75*
G02*
X149175000Y-77507456I0J267544D01*
G01*
X149175000Y-76517544D01*
G75*
G02*
X149442544Y-76250000I267544J0D01*
G01*
G37*
G36*
G01*
X149442544Y-79225000D02*
X150757456Y-79225000D01*
G75*
G02*
X151025000Y-79492544I0J-267544D01*
G01*
X151025000Y-80482456D01*
G75*
G02*
X150757456Y-80750000I-267544J0D01*
G01*
X149442544Y-80750000D01*
G75*
G02*
X149175000Y-80482456I0J267544D01*
G01*
X149175000Y-79492544D01*
G75*
G02*
X149442544Y-79225000I267544J0D01*
G01*
G37*
G36*
G01*
X159421738Y-75900000D02*
X160378262Y-75900000D01*
G75*
G02*
X160650000Y-76171738I0J-271738D01*
G01*
X160650000Y-76878262D01*
G75*
G02*
X160378262Y-77150000I-271738J0D01*
G01*
X159421738Y-77150000D01*
G75*
G02*
X159150000Y-76878262I0J271738D01*
G01*
X159150000Y-76171738D01*
G75*
G02*
X159421738Y-75900000I271738J0D01*
G01*
G37*
G36*
G01*
X159421738Y-77950000D02*
X160378262Y-77950000D01*
G75*
G02*
X160650000Y-78221738I0J-271738D01*
G01*
X160650000Y-78928262D01*
G75*
G02*
X160378262Y-79200000I-271738J0D01*
G01*
X159421738Y-79200000D01*
G75*
G02*
X159150000Y-78928262I0J271738D01*
G01*
X159150000Y-78221738D01*
G75*
G02*
X159421738Y-77950000I271738J0D01*
G01*
G37*
G36*
G01*
X165021738Y-77750000D02*
X165978262Y-77750000D01*
G75*
G02*
X166250000Y-78021738I0J-271738D01*
G01*
X166250000Y-78728262D01*
G75*
G02*
X165978262Y-79000000I-271738J0D01*
G01*
X165021738Y-79000000D01*
G75*
G02*
X164750000Y-78728262I0J271738D01*
G01*
X164750000Y-78021738D01*
G75*
G02*
X165021738Y-77750000I271738J0D01*
G01*
G37*
G36*
G01*
X165021738Y-75700000D02*
X165978262Y-75700000D01*
G75*
G02*
X166250000Y-75971738I0J-271738D01*
G01*
X166250000Y-76678262D01*
G75*
G02*
X165978262Y-76950000I-271738J0D01*
G01*
X165021738Y-76950000D01*
G75*
G02*
X164750000Y-76678262I0J271738D01*
G01*
X164750000Y-75971738D01*
G75*
G02*
X165021738Y-75700000I271738J0D01*
G01*
G37*
G36*
G01*
X75050000Y-97087343D02*
X75050000Y-92112657D01*
G75*
G02*
X75312657Y-91850000I262657J0D01*
G01*
X76862343Y-91850000D01*
G75*
G02*
X77125000Y-92112657I0J-262657D01*
G01*
X77125000Y-97087343D01*
G75*
G02*
X76862343Y-97350000I-262657J0D01*
G01*
X75312657Y-97350000D01*
G75*
G02*
X75050000Y-97087343I0J262657D01*
G01*
G37*
G36*
G01*
X69775000Y-97087343D02*
X69775000Y-92112657D01*
G75*
G02*
X70037657Y-91850000I262657J0D01*
G01*
X71587343Y-91850000D01*
G75*
G02*
X71850000Y-92112657I0J-262657D01*
G01*
X71850000Y-97087343D01*
G75*
G02*
X71587343Y-97350000I-262657J0D01*
G01*
X70037657Y-97350000D01*
G75*
G02*
X69775000Y-97087343I0J262657D01*
G01*
G37*
G36*
G01*
X124875000Y-76319231D02*
X124875000Y-79280769D01*
G75*
G02*
X124605769Y-79550000I-269231J0D01*
G01*
X123744231Y-79550000D01*
G75*
G02*
X123475000Y-79280769I0J269231D01*
G01*
X123475000Y-76319231D01*
G75*
G02*
X123744231Y-76050000I269231J0D01*
G01*
X124605769Y-76050000D01*
G75*
G02*
X124875000Y-76319231I0J-269231D01*
G01*
G37*
G36*
G01*
X129325000Y-76319231D02*
X129325000Y-79280769D01*
G75*
G02*
X129055769Y-79550000I-269231J0D01*
G01*
X128194231Y-79550000D01*
G75*
G02*
X127925000Y-79280769I0J269231D01*
G01*
X127925000Y-76319231D01*
G75*
G02*
X128194231Y-76050000I269231J0D01*
G01*
X129055769Y-76050000D01*
G75*
G02*
X129325000Y-76319231I0J-269231D01*
G01*
G37*
G36*
G01*
X219778262Y-134350000D02*
X218821738Y-134350000D01*
G75*
G02*
X218550000Y-134078262I0J271738D01*
G01*
X218550000Y-133371738D01*
G75*
G02*
X218821738Y-133100000I271738J0D01*
G01*
X219778262Y-133100000D01*
G75*
G02*
X220050000Y-133371738I0J-271738D01*
G01*
X220050000Y-134078262D01*
G75*
G02*
X219778262Y-134350000I-271738J0D01*
G01*
G37*
G36*
G01*
X219778262Y-132300000D02*
X218821738Y-132300000D01*
G75*
G02*
X218550000Y-132028262I0J271738D01*
G01*
X218550000Y-131321738D01*
G75*
G02*
X218821738Y-131050000I271738J0D01*
G01*
X219778262Y-131050000D01*
G75*
G02*
X220050000Y-131321738I0J-271738D01*
G01*
X220050000Y-132028262D01*
G75*
G02*
X219778262Y-132300000I-271738J0D01*
G01*
G37*
G36*
G01*
X186450000Y-57821738D02*
X186450000Y-58778262D01*
G75*
G02*
X186178262Y-59050000I-271738J0D01*
G01*
X185471738Y-59050000D01*
G75*
G02*
X185200000Y-58778262I0J271738D01*
G01*
X185200000Y-57821738D01*
G75*
G02*
X185471738Y-57550000I271738J0D01*
G01*
X186178262Y-57550000D01*
G75*
G02*
X186450000Y-57821738I0J-271738D01*
G01*
G37*
G36*
G01*
X188500000Y-57821738D02*
X188500000Y-58778262D01*
G75*
G02*
X188228262Y-59050000I-271738J0D01*
G01*
X187521738Y-59050000D01*
G75*
G02*
X187250000Y-58778262I0J271738D01*
G01*
X187250000Y-57821738D01*
G75*
G02*
X187521738Y-57550000I271738J0D01*
G01*
X188228262Y-57550000D01*
G75*
G02*
X188500000Y-57821738I0J-271738D01*
G01*
G37*
G36*
G01*
X187721738Y-60200000D02*
X188678262Y-60200000D01*
G75*
G02*
X188950000Y-60471738I0J-271738D01*
G01*
X188950000Y-61178262D01*
G75*
G02*
X188678262Y-61450000I-271738J0D01*
G01*
X187721738Y-61450000D01*
G75*
G02*
X187450000Y-61178262I0J271738D01*
G01*
X187450000Y-60471738D01*
G75*
G02*
X187721738Y-60200000I271738J0D01*
G01*
G37*
G36*
G01*
X187721738Y-62250000D02*
X188678262Y-62250000D01*
G75*
G02*
X188950000Y-62521738I0J-271738D01*
G01*
X188950000Y-63228262D01*
G75*
G02*
X188678262Y-63500000I-271738J0D01*
G01*
X187721738Y-63500000D01*
G75*
G02*
X187450000Y-63228262I0J271738D01*
G01*
X187450000Y-62521738D01*
G75*
G02*
X187721738Y-62250000I271738J0D01*
G01*
G37*
D31*
X164650000Y-90050000D03*
X164650000Y-88150000D03*
X161650000Y-89100000D03*
G36*
G01*
X64521738Y-59700000D02*
X65478262Y-59700000D01*
G75*
G02*
X65750000Y-59971738I0J-271738D01*
G01*
X65750000Y-60678262D01*
G75*
G02*
X65478262Y-60950000I-271738J0D01*
G01*
X64521738Y-60950000D01*
G75*
G02*
X64250000Y-60678262I0J271738D01*
G01*
X64250000Y-59971738D01*
G75*
G02*
X64521738Y-59700000I271738J0D01*
G01*
G37*
G36*
G01*
X64521738Y-57650000D02*
X65478262Y-57650000D01*
G75*
G02*
X65750000Y-57921738I0J-271738D01*
G01*
X65750000Y-58628262D01*
G75*
G02*
X65478262Y-58900000I-271738J0D01*
G01*
X64521738Y-58900000D01*
G75*
G02*
X64250000Y-58628262I0J271738D01*
G01*
X64250000Y-57921738D01*
G75*
G02*
X64521738Y-57650000I271738J0D01*
G01*
G37*
G36*
G01*
X205450000Y-71221738D02*
X205450000Y-72178262D01*
G75*
G02*
X205178262Y-72450000I-271738J0D01*
G01*
X204471738Y-72450000D01*
G75*
G02*
X204200000Y-72178262I0J271738D01*
G01*
X204200000Y-71221738D01*
G75*
G02*
X204471738Y-70950000I271738J0D01*
G01*
X205178262Y-70950000D01*
G75*
G02*
X205450000Y-71221738I0J-271738D01*
G01*
G37*
G36*
G01*
X203400000Y-71221738D02*
X203400000Y-72178262D01*
G75*
G02*
X203128262Y-72450000I-271738J0D01*
G01*
X202421738Y-72450000D01*
G75*
G02*
X202150000Y-72178262I0J271738D01*
G01*
X202150000Y-71221738D01*
G75*
G02*
X202421738Y-70950000I271738J0D01*
G01*
X203128262Y-70950000D01*
G75*
G02*
X203400000Y-71221738I0J-271738D01*
G01*
G37*
G36*
G01*
X200500000Y-73321738D02*
X200500000Y-74278262D01*
G75*
G02*
X200228262Y-74550000I-271738J0D01*
G01*
X199521738Y-74550000D01*
G75*
G02*
X199250000Y-74278262I0J271738D01*
G01*
X199250000Y-73321738D01*
G75*
G02*
X199521738Y-73050000I271738J0D01*
G01*
X200228262Y-73050000D01*
G75*
G02*
X200500000Y-73321738I0J-271738D01*
G01*
G37*
G36*
G01*
X202550000Y-73321738D02*
X202550000Y-74278262D01*
G75*
G02*
X202278262Y-74550000I-271738J0D01*
G01*
X201571738Y-74550000D01*
G75*
G02*
X201300000Y-74278262I0J271738D01*
G01*
X201300000Y-73321738D01*
G75*
G02*
X201571738Y-73050000I271738J0D01*
G01*
X202278262Y-73050000D01*
G75*
G02*
X202550000Y-73321738I0J-271738D01*
G01*
G37*
G36*
G01*
X199250000Y-76578262D02*
X199250000Y-75621738D01*
G75*
G02*
X199521738Y-75350000I271738J0D01*
G01*
X200228262Y-75350000D01*
G75*
G02*
X200500000Y-75621738I0J-271738D01*
G01*
X200500000Y-76578262D01*
G75*
G02*
X200228262Y-76850000I-271738J0D01*
G01*
X199521738Y-76850000D01*
G75*
G02*
X199250000Y-76578262I0J271738D01*
G01*
G37*
G36*
G01*
X201300000Y-76578262D02*
X201300000Y-75621738D01*
G75*
G02*
X201571738Y-75350000I271738J0D01*
G01*
X202278262Y-75350000D01*
G75*
G02*
X202550000Y-75621738I0J-271738D01*
G01*
X202550000Y-76578262D01*
G75*
G02*
X202278262Y-76850000I-271738J0D01*
G01*
X201571738Y-76850000D01*
G75*
G02*
X201300000Y-76578262I0J271738D01*
G01*
G37*
G36*
G01*
X200850000Y-78478262D02*
X200850000Y-77521738D01*
G75*
G02*
X201121738Y-77250000I271738J0D01*
G01*
X201828262Y-77250000D01*
G75*
G02*
X202100000Y-77521738I0J-271738D01*
G01*
X202100000Y-78478262D01*
G75*
G02*
X201828262Y-78750000I-271738J0D01*
G01*
X201121738Y-78750000D01*
G75*
G02*
X200850000Y-78478262I0J271738D01*
G01*
G37*
G36*
G01*
X202900000Y-78478262D02*
X202900000Y-77521738D01*
G75*
G02*
X203171738Y-77250000I271738J0D01*
G01*
X203878262Y-77250000D01*
G75*
G02*
X204150000Y-77521738I0J-271738D01*
G01*
X204150000Y-78478262D01*
G75*
G02*
X203878262Y-78750000I-271738J0D01*
G01*
X203171738Y-78750000D01*
G75*
G02*
X202900000Y-78478262I0J271738D01*
G01*
G37*
G36*
G01*
X179200000Y-73978262D02*
X179200000Y-73021738D01*
G75*
G02*
X179471738Y-72750000I271738J0D01*
G01*
X180178262Y-72750000D01*
G75*
G02*
X180450000Y-73021738I0J-271738D01*
G01*
X180450000Y-73978262D01*
G75*
G02*
X180178262Y-74250000I-271738J0D01*
G01*
X179471738Y-74250000D01*
G75*
G02*
X179200000Y-73978262I0J271738D01*
G01*
G37*
G36*
G01*
X177150000Y-73978262D02*
X177150000Y-73021738D01*
G75*
G02*
X177421738Y-72750000I271738J0D01*
G01*
X178128262Y-72750000D01*
G75*
G02*
X178400000Y-73021738I0J-271738D01*
G01*
X178400000Y-73978262D01*
G75*
G02*
X178128262Y-74250000I-271738J0D01*
G01*
X177421738Y-74250000D01*
G75*
G02*
X177150000Y-73978262I0J271738D01*
G01*
G37*
G36*
G01*
X180450000Y-78221738D02*
X180450000Y-79178262D01*
G75*
G02*
X180178262Y-79450000I-271738J0D01*
G01*
X179471738Y-79450000D01*
G75*
G02*
X179200000Y-79178262I0J271738D01*
G01*
X179200000Y-78221738D01*
G75*
G02*
X179471738Y-77950000I271738J0D01*
G01*
X180178262Y-77950000D01*
G75*
G02*
X180450000Y-78221738I0J-271738D01*
G01*
G37*
G36*
G01*
X178400000Y-78221738D02*
X178400000Y-79178262D01*
G75*
G02*
X178128262Y-79450000I-271738J0D01*
G01*
X177421738Y-79450000D01*
G75*
G02*
X177150000Y-79178262I0J271738D01*
G01*
X177150000Y-78221738D01*
G75*
G02*
X177421738Y-77950000I271738J0D01*
G01*
X178128262Y-77950000D01*
G75*
G02*
X178400000Y-78221738I0J-271738D01*
G01*
G37*
G36*
G01*
X178350000Y-80521738D02*
X178350000Y-81478262D01*
G75*
G02*
X178078262Y-81750000I-271738J0D01*
G01*
X177371738Y-81750000D01*
G75*
G02*
X177100000Y-81478262I0J271738D01*
G01*
X177100000Y-80521738D01*
G75*
G02*
X177371738Y-80250000I271738J0D01*
G01*
X178078262Y-80250000D01*
G75*
G02*
X178350000Y-80521738I0J-271738D01*
G01*
G37*
G36*
G01*
X180400000Y-80521738D02*
X180400000Y-81478262D01*
G75*
G02*
X180128262Y-81750000I-271738J0D01*
G01*
X179421738Y-81750000D01*
G75*
G02*
X179150000Y-81478262I0J271738D01*
G01*
X179150000Y-80521738D01*
G75*
G02*
X179421738Y-80250000I271738J0D01*
G01*
X180128262Y-80250000D01*
G75*
G02*
X180400000Y-80521738I0J-271738D01*
G01*
G37*
G36*
G01*
X182800000Y-85421738D02*
X182800000Y-86378262D01*
G75*
G02*
X182528262Y-86650000I-271738J0D01*
G01*
X181821738Y-86650000D01*
G75*
G02*
X181550000Y-86378262I0J271738D01*
G01*
X181550000Y-85421738D01*
G75*
G02*
X181821738Y-85150000I271738J0D01*
G01*
X182528262Y-85150000D01*
G75*
G02*
X182800000Y-85421738I0J-271738D01*
G01*
G37*
G36*
G01*
X184850000Y-85421738D02*
X184850000Y-86378262D01*
G75*
G02*
X184578262Y-86650000I-271738J0D01*
G01*
X183871738Y-86650000D01*
G75*
G02*
X183600000Y-86378262I0J271738D01*
G01*
X183600000Y-85421738D01*
G75*
G02*
X183871738Y-85150000I271738J0D01*
G01*
X184578262Y-85150000D01*
G75*
G02*
X184850000Y-85421738I0J-271738D01*
G01*
G37*
G36*
G01*
X185078262Y-93050000D02*
X184121738Y-93050000D01*
G75*
G02*
X183850000Y-92778262I0J271738D01*
G01*
X183850000Y-92071738D01*
G75*
G02*
X184121738Y-91800000I271738J0D01*
G01*
X185078262Y-91800000D01*
G75*
G02*
X185350000Y-92071738I0J-271738D01*
G01*
X185350000Y-92778262D01*
G75*
G02*
X185078262Y-93050000I-271738J0D01*
G01*
G37*
G36*
G01*
X185078262Y-91000000D02*
X184121738Y-91000000D01*
G75*
G02*
X183850000Y-90728262I0J271738D01*
G01*
X183850000Y-90021738D01*
G75*
G02*
X184121738Y-89750000I271738J0D01*
G01*
X185078262Y-89750000D01*
G75*
G02*
X185350000Y-90021738I0J-271738D01*
G01*
X185350000Y-90728262D01*
G75*
G02*
X185078262Y-91000000I-271738J0D01*
G01*
G37*
G36*
G01*
X183550000Y-88278262D02*
X183550000Y-87321738D01*
G75*
G02*
X183821738Y-87050000I271738J0D01*
G01*
X184528262Y-87050000D01*
G75*
G02*
X184800000Y-87321738I0J-271738D01*
G01*
X184800000Y-88278262D01*
G75*
G02*
X184528262Y-88550000I-271738J0D01*
G01*
X183821738Y-88550000D01*
G75*
G02*
X183550000Y-88278262I0J271738D01*
G01*
G37*
G36*
G01*
X181500000Y-88278262D02*
X181500000Y-87321738D01*
G75*
G02*
X181771738Y-87050000I271738J0D01*
G01*
X182478262Y-87050000D01*
G75*
G02*
X182750000Y-87321738I0J-271738D01*
G01*
X182750000Y-88278262D01*
G75*
G02*
X182478262Y-88550000I-271738J0D01*
G01*
X181771738Y-88550000D01*
G75*
G02*
X181500000Y-88278262I0J271738D01*
G01*
G37*
G36*
G01*
X186321738Y-77750000D02*
X187278262Y-77750000D01*
G75*
G02*
X187550000Y-78021738I0J-271738D01*
G01*
X187550000Y-78728262D01*
G75*
G02*
X187278262Y-79000000I-271738J0D01*
G01*
X186321738Y-79000000D01*
G75*
G02*
X186050000Y-78728262I0J271738D01*
G01*
X186050000Y-78021738D01*
G75*
G02*
X186321738Y-77750000I271738J0D01*
G01*
G37*
G36*
G01*
X186321738Y-79800000D02*
X187278262Y-79800000D01*
G75*
G02*
X187550000Y-80071738I0J-271738D01*
G01*
X187550000Y-80778262D01*
G75*
G02*
X187278262Y-81050000I-271738J0D01*
G01*
X186321738Y-81050000D01*
G75*
G02*
X186050000Y-80778262I0J271738D01*
G01*
X186050000Y-80071738D01*
G75*
G02*
X186321738Y-79800000I271738J0D01*
G01*
G37*
G36*
G01*
X202500000Y-66221738D02*
X202500000Y-67178262D01*
G75*
G02*
X202228262Y-67450000I-271738J0D01*
G01*
X201521738Y-67450000D01*
G75*
G02*
X201250000Y-67178262I0J271738D01*
G01*
X201250000Y-66221738D01*
G75*
G02*
X201521738Y-65950000I271738J0D01*
G01*
X202228262Y-65950000D01*
G75*
G02*
X202500000Y-66221738I0J-271738D01*
G01*
G37*
G36*
G01*
X204550000Y-66221738D02*
X204550000Y-67178262D01*
G75*
G02*
X204278262Y-67450000I-271738J0D01*
G01*
X203571738Y-67450000D01*
G75*
G02*
X203300000Y-67178262I0J271738D01*
G01*
X203300000Y-66221738D01*
G75*
G02*
X203571738Y-65950000I271738J0D01*
G01*
X204278262Y-65950000D01*
G75*
G02*
X204550000Y-66221738I0J-271738D01*
G01*
G37*
G36*
G01*
X181692544Y-35225000D02*
X183907456Y-35225000D01*
G75*
G02*
X184175000Y-35492544I0J-267544D01*
G01*
X184175000Y-36482456D01*
G75*
G02*
X183907456Y-36750000I-267544J0D01*
G01*
X181692544Y-36750000D01*
G75*
G02*
X181425000Y-36482456I0J267544D01*
G01*
X181425000Y-35492544D01*
G75*
G02*
X181692544Y-35225000I267544J0D01*
G01*
G37*
G36*
G01*
X181692544Y-32250000D02*
X183907456Y-32250000D01*
G75*
G02*
X184175000Y-32517544I0J-267544D01*
G01*
X184175000Y-33507456D01*
G75*
G02*
X183907456Y-33775000I-267544J0D01*
G01*
X181692544Y-33775000D01*
G75*
G02*
X181425000Y-33507456I0J267544D01*
G01*
X181425000Y-32517544D01*
G75*
G02*
X181692544Y-32250000I267544J0D01*
G01*
G37*
G36*
G01*
X164350000Y-66478262D02*
X164350000Y-65521738D01*
G75*
G02*
X164621738Y-65250000I271738J0D01*
G01*
X165328262Y-65250000D01*
G75*
G02*
X165600000Y-65521738I0J-271738D01*
G01*
X165600000Y-66478262D01*
G75*
G02*
X165328262Y-66750000I-271738J0D01*
G01*
X164621738Y-66750000D01*
G75*
G02*
X164350000Y-66478262I0J271738D01*
G01*
G37*
G36*
G01*
X162300000Y-66478262D02*
X162300000Y-65521738D01*
G75*
G02*
X162571738Y-65250000I271738J0D01*
G01*
X163278262Y-65250000D01*
G75*
G02*
X163550000Y-65521738I0J-271738D01*
G01*
X163550000Y-66478262D01*
G75*
G02*
X163278262Y-66750000I-271738J0D01*
G01*
X162571738Y-66750000D01*
G75*
G02*
X162300000Y-66478262I0J271738D01*
G01*
G37*
G36*
G01*
X195600000Y-83778262D02*
X195600000Y-82821738D01*
G75*
G02*
X195871738Y-82550000I271738J0D01*
G01*
X196578262Y-82550000D01*
G75*
G02*
X196850000Y-82821738I0J-271738D01*
G01*
X196850000Y-83778262D01*
G75*
G02*
X196578262Y-84050000I-271738J0D01*
G01*
X195871738Y-84050000D01*
G75*
G02*
X195600000Y-83778262I0J271738D01*
G01*
G37*
G36*
G01*
X193550000Y-83778262D02*
X193550000Y-82821738D01*
G75*
G02*
X193821738Y-82550000I271738J0D01*
G01*
X194528262Y-82550000D01*
G75*
G02*
X194800000Y-82821738I0J-271738D01*
G01*
X194800000Y-83778262D01*
G75*
G02*
X194528262Y-84050000I-271738J0D01*
G01*
X193821738Y-84050000D01*
G75*
G02*
X193550000Y-83778262I0J271738D01*
G01*
G37*
G36*
G01*
X193350000Y-88028262D02*
X193350000Y-87071738D01*
G75*
G02*
X193621738Y-86800000I271738J0D01*
G01*
X194328262Y-86800000D01*
G75*
G02*
X194600000Y-87071738I0J-271738D01*
G01*
X194600000Y-88028262D01*
G75*
G02*
X194328262Y-88300000I-271738J0D01*
G01*
X193621738Y-88300000D01*
G75*
G02*
X193350000Y-88028262I0J271738D01*
G01*
G37*
G36*
G01*
X195400000Y-88028262D02*
X195400000Y-87071738D01*
G75*
G02*
X195671738Y-86800000I271738J0D01*
G01*
X196378262Y-86800000D01*
G75*
G02*
X196650000Y-87071738I0J-271738D01*
G01*
X196650000Y-88028262D01*
G75*
G02*
X196378262Y-88300000I-271738J0D01*
G01*
X195671738Y-88300000D01*
G75*
G02*
X195400000Y-88028262I0J271738D01*
G01*
G37*
G36*
G01*
X201000000Y-83778262D02*
X201000000Y-82821738D01*
G75*
G02*
X201271738Y-82550000I271738J0D01*
G01*
X201978262Y-82550000D01*
G75*
G02*
X202250000Y-82821738I0J-271738D01*
G01*
X202250000Y-83778262D01*
G75*
G02*
X201978262Y-84050000I-271738J0D01*
G01*
X201271738Y-84050000D01*
G75*
G02*
X201000000Y-83778262I0J271738D01*
G01*
G37*
G36*
G01*
X198950000Y-83778262D02*
X198950000Y-82821738D01*
G75*
G02*
X199221738Y-82550000I271738J0D01*
G01*
X199928262Y-82550000D01*
G75*
G02*
X200200000Y-82821738I0J-271738D01*
G01*
X200200000Y-83778262D01*
G75*
G02*
X199928262Y-84050000I-271738J0D01*
G01*
X199221738Y-84050000D01*
G75*
G02*
X198950000Y-83778262I0J271738D01*
G01*
G37*
G36*
G01*
X280207456Y-70600000D02*
X277992544Y-70600000D01*
G75*
G02*
X277725000Y-70332456I0J267544D01*
G01*
X277725000Y-69342544D01*
G75*
G02*
X277992544Y-69075000I267544J0D01*
G01*
X280207456Y-69075000D01*
G75*
G02*
X280475000Y-69342544I0J-267544D01*
G01*
X280475000Y-70332456D01*
G75*
G02*
X280207456Y-70600000I-267544J0D01*
G01*
G37*
G36*
G01*
X280207456Y-67625000D02*
X277992544Y-67625000D01*
G75*
G02*
X277725000Y-67357456I0J267544D01*
G01*
X277725000Y-66367544D01*
G75*
G02*
X277992544Y-66100000I267544J0D01*
G01*
X280207456Y-66100000D01*
G75*
G02*
X280475000Y-66367544I0J-267544D01*
G01*
X280475000Y-67357456D01*
G75*
G02*
X280207456Y-67625000I-267544J0D01*
G01*
G37*
G36*
G01*
X100471738Y-80300000D02*
X101428262Y-80300000D01*
G75*
G02*
X101700000Y-80571738I0J-271738D01*
G01*
X101700000Y-81278262D01*
G75*
G02*
X101428262Y-81550000I-271738J0D01*
G01*
X100471738Y-81550000D01*
G75*
G02*
X100200000Y-81278262I0J271738D01*
G01*
X100200000Y-80571738D01*
G75*
G02*
X100471738Y-80300000I271738J0D01*
G01*
G37*
G36*
G01*
X100471738Y-78250000D02*
X101428262Y-78250000D01*
G75*
G02*
X101700000Y-78521738I0J-271738D01*
G01*
X101700000Y-79228262D01*
G75*
G02*
X101428262Y-79500000I-271738J0D01*
G01*
X100471738Y-79500000D01*
G75*
G02*
X100200000Y-79228262I0J271738D01*
G01*
X100200000Y-78521738D01*
G75*
G02*
X100471738Y-78250000I271738J0D01*
G01*
G37*
G36*
G01*
X100521738Y-82500000D02*
X101478262Y-82500000D01*
G75*
G02*
X101750000Y-82771738I0J-271738D01*
G01*
X101750000Y-83478262D01*
G75*
G02*
X101478262Y-83750000I-271738J0D01*
G01*
X100521738Y-83750000D01*
G75*
G02*
X100250000Y-83478262I0J271738D01*
G01*
X100250000Y-82771738D01*
G75*
G02*
X100521738Y-82500000I271738J0D01*
G01*
G37*
G36*
G01*
X100521738Y-84550000D02*
X101478262Y-84550000D01*
G75*
G02*
X101750000Y-84821738I0J-271738D01*
G01*
X101750000Y-85528262D01*
G75*
G02*
X101478262Y-85800000I-271738J0D01*
G01*
X100521738Y-85800000D01*
G75*
G02*
X100250000Y-85528262I0J271738D01*
G01*
X100250000Y-84821738D01*
G75*
G02*
X100521738Y-84550000I271738J0D01*
G01*
G37*
G36*
G01*
X151971738Y-139750000D02*
X152928262Y-139750000D01*
G75*
G02*
X153200000Y-140021738I0J-271738D01*
G01*
X153200000Y-140728262D01*
G75*
G02*
X152928262Y-141000000I-271738J0D01*
G01*
X151971738Y-141000000D01*
G75*
G02*
X151700000Y-140728262I0J271738D01*
G01*
X151700000Y-140021738D01*
G75*
G02*
X151971738Y-139750000I271738J0D01*
G01*
G37*
G36*
G01*
X151971738Y-141800000D02*
X152928262Y-141800000D01*
G75*
G02*
X153200000Y-142071738I0J-271738D01*
G01*
X153200000Y-142778262D01*
G75*
G02*
X152928262Y-143050000I-271738J0D01*
G01*
X151971738Y-143050000D01*
G75*
G02*
X151700000Y-142778262I0J271738D01*
G01*
X151700000Y-142071738D01*
G75*
G02*
X151971738Y-141800000I271738J0D01*
G01*
G37*
G36*
G01*
X103850000Y-149021738D02*
X103850000Y-149978262D01*
G75*
G02*
X103578262Y-150250000I-271738J0D01*
G01*
X102871738Y-150250000D01*
G75*
G02*
X102600000Y-149978262I0J271738D01*
G01*
X102600000Y-149021738D01*
G75*
G02*
X102871738Y-148750000I271738J0D01*
G01*
X103578262Y-148750000D01*
G75*
G02*
X103850000Y-149021738I0J-271738D01*
G01*
G37*
G36*
G01*
X105900000Y-149021738D02*
X105900000Y-149978262D01*
G75*
G02*
X105628262Y-150250000I-271738J0D01*
G01*
X104921738Y-150250000D01*
G75*
G02*
X104650000Y-149978262I0J271738D01*
G01*
X104650000Y-149021738D01*
G75*
G02*
X104921738Y-148750000I271738J0D01*
G01*
X105628262Y-148750000D01*
G75*
G02*
X105900000Y-149021738I0J-271738D01*
G01*
G37*
G36*
G01*
X157171738Y-134100000D02*
X158128262Y-134100000D01*
G75*
G02*
X158400000Y-134371738I0J-271738D01*
G01*
X158400000Y-135078262D01*
G75*
G02*
X158128262Y-135350000I-271738J0D01*
G01*
X157171738Y-135350000D01*
G75*
G02*
X156900000Y-135078262I0J271738D01*
G01*
X156900000Y-134371738D01*
G75*
G02*
X157171738Y-134100000I271738J0D01*
G01*
G37*
G36*
G01*
X157171738Y-136150000D02*
X158128262Y-136150000D01*
G75*
G02*
X158400000Y-136421738I0J-271738D01*
G01*
X158400000Y-137128262D01*
G75*
G02*
X158128262Y-137400000I-271738J0D01*
G01*
X157171738Y-137400000D01*
G75*
G02*
X156900000Y-137128262I0J271738D01*
G01*
X156900000Y-136421738D01*
G75*
G02*
X157171738Y-136150000I271738J0D01*
G01*
G37*
G36*
G01*
X139550000Y-125371738D02*
X139550000Y-126328262D01*
G75*
G02*
X139278262Y-126600000I-271738J0D01*
G01*
X138571738Y-126600000D01*
G75*
G02*
X138300000Y-126328262I0J271738D01*
G01*
X138300000Y-125371738D01*
G75*
G02*
X138571738Y-125100000I271738J0D01*
G01*
X139278262Y-125100000D01*
G75*
G02*
X139550000Y-125371738I0J-271738D01*
G01*
G37*
G36*
G01*
X141600000Y-125371738D02*
X141600000Y-126328262D01*
G75*
G02*
X141328262Y-126600000I-271738J0D01*
G01*
X140621738Y-126600000D01*
G75*
G02*
X140350000Y-126328262I0J271738D01*
G01*
X140350000Y-125371738D01*
G75*
G02*
X140621738Y-125100000I271738J0D01*
G01*
X141328262Y-125100000D01*
G75*
G02*
X141600000Y-125371738I0J-271738D01*
G01*
G37*
G36*
G01*
X38600000Y-132728262D02*
X38600000Y-131771738D01*
G75*
G02*
X38871738Y-131500000I271738J0D01*
G01*
X39578262Y-131500000D01*
G75*
G02*
X39850000Y-131771738I0J-271738D01*
G01*
X39850000Y-132728262D01*
G75*
G02*
X39578262Y-133000000I-271738J0D01*
G01*
X38871738Y-133000000D01*
G75*
G02*
X38600000Y-132728262I0J271738D01*
G01*
G37*
G36*
G01*
X40650000Y-132728262D02*
X40650000Y-131771738D01*
G75*
G02*
X40921738Y-131500000I271738J0D01*
G01*
X41628262Y-131500000D01*
G75*
G02*
X41900000Y-131771738I0J-271738D01*
G01*
X41900000Y-132728262D01*
G75*
G02*
X41628262Y-133000000I-271738J0D01*
G01*
X40921738Y-133000000D01*
G75*
G02*
X40650000Y-132728262I0J271738D01*
G01*
G37*
G36*
G01*
X34550000Y-123028262D02*
X34550000Y-122071738D01*
G75*
G02*
X34821738Y-121800000I271738J0D01*
G01*
X35528262Y-121800000D01*
G75*
G02*
X35800000Y-122071738I0J-271738D01*
G01*
X35800000Y-123028262D01*
G75*
G02*
X35528262Y-123300000I-271738J0D01*
G01*
X34821738Y-123300000D01*
G75*
G02*
X34550000Y-123028262I0J271738D01*
G01*
G37*
G36*
G01*
X32500000Y-123028262D02*
X32500000Y-122071738D01*
G75*
G02*
X32771738Y-121800000I271738J0D01*
G01*
X33478262Y-121800000D01*
G75*
G02*
X33750000Y-122071738I0J-271738D01*
G01*
X33750000Y-123028262D01*
G75*
G02*
X33478262Y-123300000I-271738J0D01*
G01*
X32771738Y-123300000D01*
G75*
G02*
X32500000Y-123028262I0J271738D01*
G01*
G37*
G36*
G01*
X160471738Y-93950000D02*
X161428262Y-93950000D01*
G75*
G02*
X161700000Y-94221738I0J-271738D01*
G01*
X161700000Y-94928262D01*
G75*
G02*
X161428262Y-95200000I-271738J0D01*
G01*
X160471738Y-95200000D01*
G75*
G02*
X160200000Y-94928262I0J271738D01*
G01*
X160200000Y-94221738D01*
G75*
G02*
X160471738Y-93950000I271738J0D01*
G01*
G37*
G36*
G01*
X160471738Y-96000000D02*
X161428262Y-96000000D01*
G75*
G02*
X161700000Y-96271738I0J-271738D01*
G01*
X161700000Y-96978262D01*
G75*
G02*
X161428262Y-97250000I-271738J0D01*
G01*
X160471738Y-97250000D01*
G75*
G02*
X160200000Y-96978262I0J271738D01*
G01*
X160200000Y-96271738D01*
G75*
G02*
X160471738Y-96000000I271738J0D01*
G01*
G37*
G36*
G01*
X156821738Y-93950000D02*
X157778262Y-93950000D01*
G75*
G02*
X158050000Y-94221738I0J-271738D01*
G01*
X158050000Y-94928262D01*
G75*
G02*
X157778262Y-95200000I-271738J0D01*
G01*
X156821738Y-95200000D01*
G75*
G02*
X156550000Y-94928262I0J271738D01*
G01*
X156550000Y-94221738D01*
G75*
G02*
X156821738Y-93950000I271738J0D01*
G01*
G37*
G36*
G01*
X156821738Y-96000000D02*
X157778262Y-96000000D01*
G75*
G02*
X158050000Y-96271738I0J-271738D01*
G01*
X158050000Y-96978262D01*
G75*
G02*
X157778262Y-97250000I-271738J0D01*
G01*
X156821738Y-97250000D01*
G75*
G02*
X156550000Y-96978262I0J271738D01*
G01*
X156550000Y-96271738D01*
G75*
G02*
X156821738Y-96000000I271738J0D01*
G01*
G37*
G36*
G01*
X66428262Y-125000000D02*
X65471738Y-125000000D01*
G75*
G02*
X65200000Y-124728262I0J271738D01*
G01*
X65200000Y-124021738D01*
G75*
G02*
X65471738Y-123750000I271738J0D01*
G01*
X66428262Y-123750000D01*
G75*
G02*
X66700000Y-124021738I0J-271738D01*
G01*
X66700000Y-124728262D01*
G75*
G02*
X66428262Y-125000000I-271738J0D01*
G01*
G37*
G36*
G01*
X66428262Y-122950000D02*
X65471738Y-122950000D01*
G75*
G02*
X65200000Y-122678262I0J271738D01*
G01*
X65200000Y-121971738D01*
G75*
G02*
X65471738Y-121700000I271738J0D01*
G01*
X66428262Y-121700000D01*
G75*
G02*
X66700000Y-121971738I0J-271738D01*
G01*
X66700000Y-122678262D01*
G75*
G02*
X66428262Y-122950000I-271738J0D01*
G01*
G37*
G36*
G01*
X90000000Y-86521738D02*
X90000000Y-87478262D01*
G75*
G02*
X89728262Y-87750000I-271738J0D01*
G01*
X89021738Y-87750000D01*
G75*
G02*
X88750000Y-87478262I0J271738D01*
G01*
X88750000Y-86521738D01*
G75*
G02*
X89021738Y-86250000I271738J0D01*
G01*
X89728262Y-86250000D01*
G75*
G02*
X90000000Y-86521738I0J-271738D01*
G01*
G37*
G36*
G01*
X87950000Y-86521738D02*
X87950000Y-87478262D01*
G75*
G02*
X87678262Y-87750000I-271738J0D01*
G01*
X86971738Y-87750000D01*
G75*
G02*
X86700000Y-87478262I0J271738D01*
G01*
X86700000Y-86521738D01*
G75*
G02*
X86971738Y-86250000I271738J0D01*
G01*
X87678262Y-86250000D01*
G75*
G02*
X87950000Y-86521738I0J-271738D01*
G01*
G37*
G36*
G01*
X87950000Y-81521738D02*
X87950000Y-82478262D01*
G75*
G02*
X87678262Y-82750000I-271738J0D01*
G01*
X86971738Y-82750000D01*
G75*
G02*
X86700000Y-82478262I0J271738D01*
G01*
X86700000Y-81521738D01*
G75*
G02*
X86971738Y-81250000I271738J0D01*
G01*
X87678262Y-81250000D01*
G75*
G02*
X87950000Y-81521738I0J-271738D01*
G01*
G37*
G36*
G01*
X90000000Y-81521738D02*
X90000000Y-82478262D01*
G75*
G02*
X89728262Y-82750000I-271738J0D01*
G01*
X89021738Y-82750000D01*
G75*
G02*
X88750000Y-82478262I0J271738D01*
G01*
X88750000Y-81521738D01*
G75*
G02*
X89021738Y-81250000I271738J0D01*
G01*
X89728262Y-81250000D01*
G75*
G02*
X90000000Y-81521738I0J-271738D01*
G01*
G37*
G36*
G01*
X20100000Y-107578262D02*
X20100000Y-106621738D01*
G75*
G02*
X20371738Y-106350000I271738J0D01*
G01*
X21078262Y-106350000D01*
G75*
G02*
X21350000Y-106621738I0J-271738D01*
G01*
X21350000Y-107578262D01*
G75*
G02*
X21078262Y-107850000I-271738J0D01*
G01*
X20371738Y-107850000D01*
G75*
G02*
X20100000Y-107578262I0J271738D01*
G01*
G37*
G36*
G01*
X22150000Y-107578262D02*
X22150000Y-106621738D01*
G75*
G02*
X22421738Y-106350000I271738J0D01*
G01*
X23128262Y-106350000D01*
G75*
G02*
X23400000Y-106621738I0J-271738D01*
G01*
X23400000Y-107578262D01*
G75*
G02*
X23128262Y-107850000I-271738J0D01*
G01*
X22421738Y-107850000D01*
G75*
G02*
X22150000Y-107578262I0J271738D01*
G01*
G37*
G36*
G01*
X25921738Y-108850000D02*
X26878262Y-108850000D01*
G75*
G02*
X27150000Y-109121738I0J-271738D01*
G01*
X27150000Y-109828262D01*
G75*
G02*
X26878262Y-110100000I-271738J0D01*
G01*
X25921738Y-110100000D01*
G75*
G02*
X25650000Y-109828262I0J271738D01*
G01*
X25650000Y-109121738D01*
G75*
G02*
X25921738Y-108850000I271738J0D01*
G01*
G37*
G36*
G01*
X25921738Y-106800000D02*
X26878262Y-106800000D01*
G75*
G02*
X27150000Y-107071738I0J-271738D01*
G01*
X27150000Y-107778262D01*
G75*
G02*
X26878262Y-108050000I-271738J0D01*
G01*
X25921738Y-108050000D01*
G75*
G02*
X25650000Y-107778262I0J271738D01*
G01*
X25650000Y-107071738D01*
G75*
G02*
X25921738Y-106800000I271738J0D01*
G01*
G37*
G36*
G01*
X126621738Y-84300000D02*
X127578262Y-84300000D01*
G75*
G02*
X127850000Y-84571738I0J-271738D01*
G01*
X127850000Y-85278262D01*
G75*
G02*
X127578262Y-85550000I-271738J0D01*
G01*
X126621738Y-85550000D01*
G75*
G02*
X126350000Y-85278262I0J271738D01*
G01*
X126350000Y-84571738D01*
G75*
G02*
X126621738Y-84300000I271738J0D01*
G01*
G37*
G36*
G01*
X126621738Y-86350000D02*
X127578262Y-86350000D01*
G75*
G02*
X127850000Y-86621738I0J-271738D01*
G01*
X127850000Y-87328262D01*
G75*
G02*
X127578262Y-87600000I-271738J0D01*
G01*
X126621738Y-87600000D01*
G75*
G02*
X126350000Y-87328262I0J271738D01*
G01*
X126350000Y-86621738D01*
G75*
G02*
X126621738Y-86350000I271738J0D01*
G01*
G37*
G36*
G01*
X126521738Y-91750000D02*
X127478262Y-91750000D01*
G75*
G02*
X127750000Y-92021738I0J-271738D01*
G01*
X127750000Y-92728262D01*
G75*
G02*
X127478262Y-93000000I-271738J0D01*
G01*
X126521738Y-93000000D01*
G75*
G02*
X126250000Y-92728262I0J271738D01*
G01*
X126250000Y-92021738D01*
G75*
G02*
X126521738Y-91750000I271738J0D01*
G01*
G37*
G36*
G01*
X126521738Y-89700000D02*
X127478262Y-89700000D01*
G75*
G02*
X127750000Y-89971738I0J-271738D01*
G01*
X127750000Y-90678262D01*
G75*
G02*
X127478262Y-90950000I-271738J0D01*
G01*
X126521738Y-90950000D01*
G75*
G02*
X126250000Y-90678262I0J271738D01*
G01*
X126250000Y-89971738D01*
G75*
G02*
X126521738Y-89700000I271738J0D01*
G01*
G37*
G36*
G01*
X140050000Y-84421738D02*
X140050000Y-85378262D01*
G75*
G02*
X139778262Y-85650000I-271738J0D01*
G01*
X139071738Y-85650000D01*
G75*
G02*
X138800000Y-85378262I0J271738D01*
G01*
X138800000Y-84421738D01*
G75*
G02*
X139071738Y-84150000I271738J0D01*
G01*
X139778262Y-84150000D01*
G75*
G02*
X140050000Y-84421738I0J-271738D01*
G01*
G37*
G36*
G01*
X142100000Y-84421738D02*
X142100000Y-85378262D01*
G75*
G02*
X141828262Y-85650000I-271738J0D01*
G01*
X141121738Y-85650000D01*
G75*
G02*
X140850000Y-85378262I0J271738D01*
G01*
X140850000Y-84421738D01*
G75*
G02*
X141121738Y-84150000I271738J0D01*
G01*
X141828262Y-84150000D01*
G75*
G02*
X142100000Y-84421738I0J-271738D01*
G01*
G37*
G36*
G01*
X138750000Y-83378262D02*
X138750000Y-82421738D01*
G75*
G02*
X139021738Y-82150000I271738J0D01*
G01*
X139728262Y-82150000D01*
G75*
G02*
X140000000Y-82421738I0J-271738D01*
G01*
X140000000Y-83378262D01*
G75*
G02*
X139728262Y-83650000I-271738J0D01*
G01*
X139021738Y-83650000D01*
G75*
G02*
X138750000Y-83378262I0J271738D01*
G01*
G37*
G36*
G01*
X140800000Y-83378262D02*
X140800000Y-82421738D01*
G75*
G02*
X141071738Y-82150000I271738J0D01*
G01*
X141778262Y-82150000D01*
G75*
G02*
X142050000Y-82421738I0J-271738D01*
G01*
X142050000Y-83378262D01*
G75*
G02*
X141778262Y-83650000I-271738J0D01*
G01*
X141071738Y-83650000D01*
G75*
G02*
X140800000Y-83378262I0J271738D01*
G01*
G37*
G36*
G01*
X89950000Y-89821738D02*
X89950000Y-90778262D01*
G75*
G02*
X89678262Y-91050000I-271738J0D01*
G01*
X88971738Y-91050000D01*
G75*
G02*
X88700000Y-90778262I0J271738D01*
G01*
X88700000Y-89821738D01*
G75*
G02*
X88971738Y-89550000I271738J0D01*
G01*
X89678262Y-89550000D01*
G75*
G02*
X89950000Y-89821738I0J-271738D01*
G01*
G37*
G36*
G01*
X87900000Y-89821738D02*
X87900000Y-90778262D01*
G75*
G02*
X87628262Y-91050000I-271738J0D01*
G01*
X86921738Y-91050000D01*
G75*
G02*
X86650000Y-90778262I0J271738D01*
G01*
X86650000Y-89821738D01*
G75*
G02*
X86921738Y-89550000I271738J0D01*
G01*
X87628262Y-89550000D01*
G75*
G02*
X87900000Y-89821738I0J-271738D01*
G01*
G37*
G36*
G01*
X230150000Y-118671738D02*
X230150000Y-119628262D01*
G75*
G02*
X229878262Y-119900000I-271738J0D01*
G01*
X229171738Y-119900000D01*
G75*
G02*
X228900000Y-119628262I0J271738D01*
G01*
X228900000Y-118671738D01*
G75*
G02*
X229171738Y-118400000I271738J0D01*
G01*
X229878262Y-118400000D01*
G75*
G02*
X230150000Y-118671738I0J-271738D01*
G01*
G37*
G36*
G01*
X228100000Y-118671738D02*
X228100000Y-119628262D01*
G75*
G02*
X227828262Y-119900000I-271738J0D01*
G01*
X227121738Y-119900000D01*
G75*
G02*
X226850000Y-119628262I0J271738D01*
G01*
X226850000Y-118671738D01*
G75*
G02*
X227121738Y-118400000I271738J0D01*
G01*
X227828262Y-118400000D01*
G75*
G02*
X228100000Y-118671738I0J-271738D01*
G01*
G37*
G36*
G01*
X221871738Y-118900000D02*
X222828262Y-118900000D01*
G75*
G02*
X223100000Y-119171738I0J-271738D01*
G01*
X223100000Y-119878262D01*
G75*
G02*
X222828262Y-120150000I-271738J0D01*
G01*
X221871738Y-120150000D01*
G75*
G02*
X221600000Y-119878262I0J271738D01*
G01*
X221600000Y-119171738D01*
G75*
G02*
X221871738Y-118900000I271738J0D01*
G01*
G37*
G36*
G01*
X221871738Y-120950000D02*
X222828262Y-120950000D01*
G75*
G02*
X223100000Y-121221738I0J-271738D01*
G01*
X223100000Y-121928262D01*
G75*
G02*
X222828262Y-122200000I-271738J0D01*
G01*
X221871738Y-122200000D01*
G75*
G02*
X221600000Y-121928262I0J271738D01*
G01*
X221600000Y-121221738D01*
G75*
G02*
X221871738Y-120950000I271738J0D01*
G01*
G37*
G36*
G01*
X217578262Y-139750000D02*
X216621738Y-139750000D01*
G75*
G02*
X216350000Y-139478262I0J271738D01*
G01*
X216350000Y-138771738D01*
G75*
G02*
X216621738Y-138500000I271738J0D01*
G01*
X217578262Y-138500000D01*
G75*
G02*
X217850000Y-138771738I0J-271738D01*
G01*
X217850000Y-139478262D01*
G75*
G02*
X217578262Y-139750000I-271738J0D01*
G01*
G37*
G36*
G01*
X217578262Y-141800000D02*
X216621738Y-141800000D01*
G75*
G02*
X216350000Y-141528262I0J271738D01*
G01*
X216350000Y-140821738D01*
G75*
G02*
X216621738Y-140550000I271738J0D01*
G01*
X217578262Y-140550000D01*
G75*
G02*
X217850000Y-140821738I0J-271738D01*
G01*
X217850000Y-141528262D01*
G75*
G02*
X217578262Y-141800000I-271738J0D01*
G01*
G37*
G36*
G01*
X222228262Y-136600000D02*
X221271738Y-136600000D01*
G75*
G02*
X221000000Y-136328262I0J271738D01*
G01*
X221000000Y-135621738D01*
G75*
G02*
X221271738Y-135350000I271738J0D01*
G01*
X222228262Y-135350000D01*
G75*
G02*
X222500000Y-135621738I0J-271738D01*
G01*
X222500000Y-136328262D01*
G75*
G02*
X222228262Y-136600000I-271738J0D01*
G01*
G37*
G36*
G01*
X222228262Y-138650000D02*
X221271738Y-138650000D01*
G75*
G02*
X221000000Y-138378262I0J271738D01*
G01*
X221000000Y-137671738D01*
G75*
G02*
X221271738Y-137400000I271738J0D01*
G01*
X222228262Y-137400000D01*
G75*
G02*
X222500000Y-137671738I0J-271738D01*
G01*
X222500000Y-138378262D01*
G75*
G02*
X222228262Y-138650000I-271738J0D01*
G01*
G37*
G36*
G01*
X222078262Y-134400000D02*
X221121738Y-134400000D01*
G75*
G02*
X220850000Y-134128262I0J271738D01*
G01*
X220850000Y-133421738D01*
G75*
G02*
X221121738Y-133150000I271738J0D01*
G01*
X222078262Y-133150000D01*
G75*
G02*
X222350000Y-133421738I0J-271738D01*
G01*
X222350000Y-134128262D01*
G75*
G02*
X222078262Y-134400000I-271738J0D01*
G01*
G37*
G36*
G01*
X222078262Y-132350000D02*
X221121738Y-132350000D01*
G75*
G02*
X220850000Y-132078262I0J271738D01*
G01*
X220850000Y-131371738D01*
G75*
G02*
X221121738Y-131100000I271738J0D01*
G01*
X222078262Y-131100000D01*
G75*
G02*
X222350000Y-131371738I0J-271738D01*
G01*
X222350000Y-132078262D01*
G75*
G02*
X222078262Y-132350000I-271738J0D01*
G01*
G37*
G36*
G01*
X185221738Y-62250000D02*
X186178262Y-62250000D01*
G75*
G02*
X186450000Y-62521738I0J-271738D01*
G01*
X186450000Y-63228262D01*
G75*
G02*
X186178262Y-63500000I-271738J0D01*
G01*
X185221738Y-63500000D01*
G75*
G02*
X184950000Y-63228262I0J271738D01*
G01*
X184950000Y-62521738D01*
G75*
G02*
X185221738Y-62250000I271738J0D01*
G01*
G37*
G36*
G01*
X185221738Y-60200000D02*
X186178262Y-60200000D01*
G75*
G02*
X186450000Y-60471738I0J-271738D01*
G01*
X186450000Y-61178262D01*
G75*
G02*
X186178262Y-61450000I-271738J0D01*
G01*
X185221738Y-61450000D01*
G75*
G02*
X184950000Y-61178262I0J271738D01*
G01*
X184950000Y-60471738D01*
G75*
G02*
X185221738Y-60200000I271738J0D01*
G01*
G37*
G36*
G01*
X185250000Y-65878262D02*
X185250000Y-64921738D01*
G75*
G02*
X185521738Y-64650000I271738J0D01*
G01*
X186228262Y-64650000D01*
G75*
G02*
X186500000Y-64921738I0J-271738D01*
G01*
X186500000Y-65878262D01*
G75*
G02*
X186228262Y-66150000I-271738J0D01*
G01*
X185521738Y-66150000D01*
G75*
G02*
X185250000Y-65878262I0J271738D01*
G01*
G37*
G36*
G01*
X187300000Y-65878262D02*
X187300000Y-64921738D01*
G75*
G02*
X187571738Y-64650000I271738J0D01*
G01*
X188278262Y-64650000D01*
G75*
G02*
X188550000Y-64921738I0J-271738D01*
G01*
X188550000Y-65878262D01*
G75*
G02*
X188278262Y-66150000I-271738J0D01*
G01*
X187571738Y-66150000D01*
G75*
G02*
X187300000Y-65878262I0J271738D01*
G01*
G37*
G36*
G01*
X194050000Y-69221738D02*
X194050000Y-70178262D01*
G75*
G02*
X193778262Y-70450000I-271738J0D01*
G01*
X193071738Y-70450000D01*
G75*
G02*
X192800000Y-70178262I0J271738D01*
G01*
X192800000Y-69221738D01*
G75*
G02*
X193071738Y-68950000I271738J0D01*
G01*
X193778262Y-68950000D01*
G75*
G02*
X194050000Y-69221738I0J-271738D01*
G01*
G37*
G36*
G01*
X196100000Y-69221738D02*
X196100000Y-70178262D01*
G75*
G02*
X195828262Y-70450000I-271738J0D01*
G01*
X195121738Y-70450000D01*
G75*
G02*
X194850000Y-70178262I0J271738D01*
G01*
X194850000Y-69221738D01*
G75*
G02*
X195121738Y-68950000I271738J0D01*
G01*
X195828262Y-68950000D01*
G75*
G02*
X196100000Y-69221738I0J-271738D01*
G01*
G37*
G36*
G01*
X177100000Y-76978262D02*
X177100000Y-76021738D01*
G75*
G02*
X177371738Y-75750000I271738J0D01*
G01*
X178078262Y-75750000D01*
G75*
G02*
X178350000Y-76021738I0J-271738D01*
G01*
X178350000Y-76978262D01*
G75*
G02*
X178078262Y-77250000I-271738J0D01*
G01*
X177371738Y-77250000D01*
G75*
G02*
X177100000Y-76978262I0J271738D01*
G01*
G37*
G36*
G01*
X179150000Y-76978262D02*
X179150000Y-76021738D01*
G75*
G02*
X179421738Y-75750000I271738J0D01*
G01*
X180128262Y-75750000D01*
G75*
G02*
X180400000Y-76021738I0J-271738D01*
G01*
X180400000Y-76978262D01*
G75*
G02*
X180128262Y-77250000I-271738J0D01*
G01*
X179421738Y-77250000D01*
G75*
G02*
X179150000Y-76978262I0J271738D01*
G01*
G37*
G36*
G01*
X189200000Y-69171738D02*
X189200000Y-70128262D01*
G75*
G02*
X188928262Y-70400000I-271738J0D01*
G01*
X188221738Y-70400000D01*
G75*
G02*
X187950000Y-70128262I0J271738D01*
G01*
X187950000Y-69171738D01*
G75*
G02*
X188221738Y-68900000I271738J0D01*
G01*
X188928262Y-68900000D01*
G75*
G02*
X189200000Y-69171738I0J-271738D01*
G01*
G37*
G36*
G01*
X191250000Y-69171738D02*
X191250000Y-70128262D01*
G75*
G02*
X190978262Y-70400000I-271738J0D01*
G01*
X190271738Y-70400000D01*
G75*
G02*
X190000000Y-70128262I0J271738D01*
G01*
X190000000Y-69171738D01*
G75*
G02*
X190271738Y-68900000I271738J0D01*
G01*
X190978262Y-68900000D01*
G75*
G02*
X191250000Y-69171738I0J-271738D01*
G01*
G37*
G36*
G01*
X194578262Y-92400000D02*
X193621738Y-92400000D01*
G75*
G02*
X193350000Y-92128262I0J271738D01*
G01*
X193350000Y-91421738D01*
G75*
G02*
X193621738Y-91150000I271738J0D01*
G01*
X194578262Y-91150000D01*
G75*
G02*
X194850000Y-91421738I0J-271738D01*
G01*
X194850000Y-92128262D01*
G75*
G02*
X194578262Y-92400000I-271738J0D01*
G01*
G37*
G36*
G01*
X194578262Y-90350000D02*
X193621738Y-90350000D01*
G75*
G02*
X193350000Y-90078262I0J271738D01*
G01*
X193350000Y-89371738D01*
G75*
G02*
X193621738Y-89100000I271738J0D01*
G01*
X194578262Y-89100000D01*
G75*
G02*
X194850000Y-89371738I0J-271738D01*
G01*
X194850000Y-90078262D01*
G75*
G02*
X194578262Y-90350000I-271738J0D01*
G01*
G37*
G36*
G01*
X124100000Y-143271738D02*
X124100000Y-144228262D01*
G75*
G02*
X123828262Y-144500000I-271738J0D01*
G01*
X123121738Y-144500000D01*
G75*
G02*
X122850000Y-144228262I0J271738D01*
G01*
X122850000Y-143271738D01*
G75*
G02*
X123121738Y-143000000I271738J0D01*
G01*
X123828262Y-143000000D01*
G75*
G02*
X124100000Y-143271738I0J-271738D01*
G01*
G37*
G36*
G01*
X126150000Y-143271738D02*
X126150000Y-144228262D01*
G75*
G02*
X125878262Y-144500000I-271738J0D01*
G01*
X125171738Y-144500000D01*
G75*
G02*
X124900000Y-144228262I0J271738D01*
G01*
X124900000Y-143271738D01*
G75*
G02*
X125171738Y-143000000I271738J0D01*
G01*
X125878262Y-143000000D01*
G75*
G02*
X126150000Y-143271738I0J-271738D01*
G01*
G37*
G36*
G01*
X123650000Y-141221738D02*
X123650000Y-142178262D01*
G75*
G02*
X123378262Y-142450000I-271738J0D01*
G01*
X122671738Y-142450000D01*
G75*
G02*
X122400000Y-142178262I0J271738D01*
G01*
X122400000Y-141221738D01*
G75*
G02*
X122671738Y-140950000I271738J0D01*
G01*
X123378262Y-140950000D01*
G75*
G02*
X123650000Y-141221738I0J-271738D01*
G01*
G37*
G36*
G01*
X121600000Y-141221738D02*
X121600000Y-142178262D01*
G75*
G02*
X121328262Y-142450000I-271738J0D01*
G01*
X120621738Y-142450000D01*
G75*
G02*
X120350000Y-142178262I0J271738D01*
G01*
X120350000Y-141221738D01*
G75*
G02*
X120621738Y-140950000I271738J0D01*
G01*
X121328262Y-140950000D01*
G75*
G02*
X121600000Y-141221738I0J-271738D01*
G01*
G37*
G36*
G01*
X119350000Y-139121738D02*
X119350000Y-140078262D01*
G75*
G02*
X119078262Y-140350000I-271738J0D01*
G01*
X118371738Y-140350000D01*
G75*
G02*
X118100000Y-140078262I0J271738D01*
G01*
X118100000Y-139121738D01*
G75*
G02*
X118371738Y-138850000I271738J0D01*
G01*
X119078262Y-138850000D01*
G75*
G02*
X119350000Y-139121738I0J-271738D01*
G01*
G37*
G36*
G01*
X121400000Y-139121738D02*
X121400000Y-140078262D01*
G75*
G02*
X121128262Y-140350000I-271738J0D01*
G01*
X120421738Y-140350000D01*
G75*
G02*
X120150000Y-140078262I0J271738D01*
G01*
X120150000Y-139121738D01*
G75*
G02*
X120421738Y-138850000I271738J0D01*
G01*
X121128262Y-138850000D01*
G75*
G02*
X121400000Y-139121738I0J-271738D01*
G01*
G37*
G36*
G01*
X118700000Y-137071738D02*
X118700000Y-138028262D01*
G75*
G02*
X118428262Y-138300000I-271738J0D01*
G01*
X117721738Y-138300000D01*
G75*
G02*
X117450000Y-138028262I0J271738D01*
G01*
X117450000Y-137071738D01*
G75*
G02*
X117721738Y-136800000I271738J0D01*
G01*
X118428262Y-136800000D01*
G75*
G02*
X118700000Y-137071738I0J-271738D01*
G01*
G37*
G36*
G01*
X116650000Y-137071738D02*
X116650000Y-138028262D01*
G75*
G02*
X116378262Y-138300000I-271738J0D01*
G01*
X115671738Y-138300000D01*
G75*
G02*
X115400000Y-138028262I0J271738D01*
G01*
X115400000Y-137071738D01*
G75*
G02*
X115671738Y-136800000I271738J0D01*
G01*
X116378262Y-136800000D01*
G75*
G02*
X116650000Y-137071738I0J-271738D01*
G01*
G37*
D46*
X114300000Y-83600000D03*
X119300000Y-83600000D03*
D26*
X18700000Y-51950000D03*
X18700000Y-59570000D03*
X18700000Y-84208000D03*
X18700000Y-76588000D03*
D28*
X272750000Y-138150000D03*
D12*
X272750000Y-133150000D03*
D31*
X179300000Y-101750000D03*
X179300000Y-99850000D03*
X176300000Y-100800000D03*
G36*
G01*
X265100000Y-106521738D02*
X265100000Y-107478262D01*
G75*
G02*
X264828262Y-107750000I-271738J0D01*
G01*
X264121738Y-107750000D01*
G75*
G02*
X263850000Y-107478262I0J271738D01*
G01*
X263850000Y-106521738D01*
G75*
G02*
X264121738Y-106250000I271738J0D01*
G01*
X264828262Y-106250000D01*
G75*
G02*
X265100000Y-106521738I0J-271738D01*
G01*
G37*
G36*
G01*
X263050000Y-106521738D02*
X263050000Y-107478262D01*
G75*
G02*
X262778262Y-107750000I-271738J0D01*
G01*
X262071738Y-107750000D01*
G75*
G02*
X261800000Y-107478262I0J271738D01*
G01*
X261800000Y-106521738D01*
G75*
G02*
X262071738Y-106250000I271738J0D01*
G01*
X262778262Y-106250000D01*
G75*
G02*
X263050000Y-106521738I0J-271738D01*
G01*
G37*
G36*
G01*
X265050000Y-108921738D02*
X265050000Y-109878262D01*
G75*
G02*
X264778262Y-110150000I-271738J0D01*
G01*
X264071738Y-110150000D01*
G75*
G02*
X263800000Y-109878262I0J271738D01*
G01*
X263800000Y-108921738D01*
G75*
G02*
X264071738Y-108650000I271738J0D01*
G01*
X264778262Y-108650000D01*
G75*
G02*
X265050000Y-108921738I0J-271738D01*
G01*
G37*
G36*
G01*
X267100000Y-108921738D02*
X267100000Y-109878262D01*
G75*
G02*
X266828262Y-110150000I-271738J0D01*
G01*
X266121738Y-110150000D01*
G75*
G02*
X265850000Y-109878262I0J271738D01*
G01*
X265850000Y-108921738D01*
G75*
G02*
X266121738Y-108650000I271738J0D01*
G01*
X266828262Y-108650000D01*
G75*
G02*
X267100000Y-108921738I0J-271738D01*
G01*
G37*
G36*
G01*
X267921738Y-106750000D02*
X268878262Y-106750000D01*
G75*
G02*
X269150000Y-107021738I0J-271738D01*
G01*
X269150000Y-107728262D01*
G75*
G02*
X268878262Y-108000000I-271738J0D01*
G01*
X267921738Y-108000000D01*
G75*
G02*
X267650000Y-107728262I0J271738D01*
G01*
X267650000Y-107021738D01*
G75*
G02*
X267921738Y-106750000I271738J0D01*
G01*
G37*
G36*
G01*
X267921738Y-108800000D02*
X268878262Y-108800000D01*
G75*
G02*
X269150000Y-109071738I0J-271738D01*
G01*
X269150000Y-109778262D01*
G75*
G02*
X268878262Y-110050000I-271738J0D01*
G01*
X267921738Y-110050000D01*
G75*
G02*
X267650000Y-109778262I0J271738D01*
G01*
X267650000Y-109071738D01*
G75*
G02*
X267921738Y-108800000I271738J0D01*
G01*
G37*
G36*
G01*
X271000000Y-106871738D02*
X271000000Y-107828262D01*
G75*
G02*
X270728262Y-108100000I-271738J0D01*
G01*
X270021738Y-108100000D01*
G75*
G02*
X269750000Y-107828262I0J271738D01*
G01*
X269750000Y-106871738D01*
G75*
G02*
X270021738Y-106600000I271738J0D01*
G01*
X270728262Y-106600000D01*
G75*
G02*
X271000000Y-106871738I0J-271738D01*
G01*
G37*
G36*
G01*
X273050000Y-106871738D02*
X273050000Y-107828262D01*
G75*
G02*
X272778262Y-108100000I-271738J0D01*
G01*
X272071738Y-108100000D01*
G75*
G02*
X271800000Y-107828262I0J271738D01*
G01*
X271800000Y-106871738D01*
G75*
G02*
X272071738Y-106600000I271738J0D01*
G01*
X272778262Y-106600000D01*
G75*
G02*
X273050000Y-106871738I0J-271738D01*
G01*
G37*
G36*
G01*
X275378262Y-110000000D02*
X274421738Y-110000000D01*
G75*
G02*
X274150000Y-109728262I0J271738D01*
G01*
X274150000Y-109021738D01*
G75*
G02*
X274421738Y-108750000I271738J0D01*
G01*
X275378262Y-108750000D01*
G75*
G02*
X275650000Y-109021738I0J-271738D01*
G01*
X275650000Y-109728262D01*
G75*
G02*
X275378262Y-110000000I-271738J0D01*
G01*
G37*
G36*
G01*
X275378262Y-107950000D02*
X274421738Y-107950000D01*
G75*
G02*
X274150000Y-107678262I0J271738D01*
G01*
X274150000Y-106971738D01*
G75*
G02*
X274421738Y-106700000I271738J0D01*
G01*
X275378262Y-106700000D01*
G75*
G02*
X275650000Y-106971738I0J-271738D01*
G01*
X275650000Y-107678262D01*
G75*
G02*
X275378262Y-107950000I-271738J0D01*
G01*
G37*
G36*
G01*
X279528262Y-107900000D02*
X278571738Y-107900000D01*
G75*
G02*
X278300000Y-107628262I0J271738D01*
G01*
X278300000Y-106921738D01*
G75*
G02*
X278571738Y-106650000I271738J0D01*
G01*
X279528262Y-106650000D01*
G75*
G02*
X279800000Y-106921738I0J-271738D01*
G01*
X279800000Y-107628262D01*
G75*
G02*
X279528262Y-107900000I-271738J0D01*
G01*
G37*
G36*
G01*
X279528262Y-109950000D02*
X278571738Y-109950000D01*
G75*
G02*
X278300000Y-109678262I0J271738D01*
G01*
X278300000Y-108971738D01*
G75*
G02*
X278571738Y-108700000I271738J0D01*
G01*
X279528262Y-108700000D01*
G75*
G02*
X279800000Y-108971738I0J-271738D01*
G01*
X279800000Y-109678262D01*
G75*
G02*
X279528262Y-109950000I-271738J0D01*
G01*
G37*
D47*
X205350000Y-152650000D03*
X194700000Y-102700000D03*
X194850000Y-72750000D03*
X184600000Y-98150000D03*
X118350000Y-128250000D03*
X153900000Y-126000000D03*
X171750000Y-100650000D03*
X29450000Y-102950000D03*
X108650000Y-91350000D03*
X148300000Y-68650000D03*
X175700000Y-130800000D03*
X94550000Y-82000000D03*
X167850000Y-87250000D03*
X26150000Y-116450000D03*
G36*
G01*
X205450000Y-133878262D02*
X205450000Y-132921738D01*
G75*
G02*
X205721738Y-132650000I271738J0D01*
G01*
X206428262Y-132650000D01*
G75*
G02*
X206700000Y-132921738I0J-271738D01*
G01*
X206700000Y-133878262D01*
G75*
G02*
X206428262Y-134150000I-271738J0D01*
G01*
X205721738Y-134150000D01*
G75*
G02*
X205450000Y-133878262I0J271738D01*
G01*
G37*
G36*
G01*
X203400000Y-133878262D02*
X203400000Y-132921738D01*
G75*
G02*
X203671738Y-132650000I271738J0D01*
G01*
X204378262Y-132650000D01*
G75*
G02*
X204650000Y-132921738I0J-271738D01*
G01*
X204650000Y-133878262D01*
G75*
G02*
X204378262Y-134150000I-271738J0D01*
G01*
X203671738Y-134150000D01*
G75*
G02*
X203400000Y-133878262I0J271738D01*
G01*
G37*
G36*
G01*
X208850000Y-124878262D02*
X208850000Y-123921738D01*
G75*
G02*
X209121738Y-123650000I271738J0D01*
G01*
X209828262Y-123650000D01*
G75*
G02*
X210100000Y-123921738I0J-271738D01*
G01*
X210100000Y-124878262D01*
G75*
G02*
X209828262Y-125150000I-271738J0D01*
G01*
X209121738Y-125150000D01*
G75*
G02*
X208850000Y-124878262I0J271738D01*
G01*
G37*
G36*
G01*
X210900000Y-124878262D02*
X210900000Y-123921738D01*
G75*
G02*
X211171738Y-123650000I271738J0D01*
G01*
X211878262Y-123650000D01*
G75*
G02*
X212150000Y-123921738I0J-271738D01*
G01*
X212150000Y-124878262D01*
G75*
G02*
X211878262Y-125150000I-271738J0D01*
G01*
X211171738Y-125150000D01*
G75*
G02*
X210900000Y-124878262I0J271738D01*
G01*
G37*
D30*
X204750000Y-129000000D03*
X203800000Y-126000000D03*
X205700000Y-126000000D03*
D31*
X214550000Y-137950000D03*
X214550000Y-136050000D03*
X211550000Y-137000000D03*
G36*
G01*
X217578262Y-135600000D02*
X216621738Y-135600000D01*
G75*
G02*
X216350000Y-135328262I0J271738D01*
G01*
X216350000Y-134621738D01*
G75*
G02*
X216621738Y-134350000I271738J0D01*
G01*
X217578262Y-134350000D01*
G75*
G02*
X217850000Y-134621738I0J-271738D01*
G01*
X217850000Y-135328262D01*
G75*
G02*
X217578262Y-135600000I-271738J0D01*
G01*
G37*
G36*
G01*
X217578262Y-137650000D02*
X216621738Y-137650000D01*
G75*
G02*
X216350000Y-137378262I0J271738D01*
G01*
X216350000Y-136671738D01*
G75*
G02*
X216621738Y-136400000I271738J0D01*
G01*
X217578262Y-136400000D01*
G75*
G02*
X217850000Y-136671738I0J-271738D01*
G01*
X217850000Y-137378262D01*
G75*
G02*
X217578262Y-137650000I-271738J0D01*
G01*
G37*
G36*
G01*
X201200000Y-135771738D02*
X201200000Y-136728262D01*
G75*
G02*
X200928262Y-137000000I-271738J0D01*
G01*
X200221738Y-137000000D01*
G75*
G02*
X199950000Y-136728262I0J271738D01*
G01*
X199950000Y-135771738D01*
G75*
G02*
X200221738Y-135500000I271738J0D01*
G01*
X200928262Y-135500000D01*
G75*
G02*
X201200000Y-135771738I0J-271738D01*
G01*
G37*
G36*
G01*
X203250000Y-135771738D02*
X203250000Y-136728262D01*
G75*
G02*
X202978262Y-137000000I-271738J0D01*
G01*
X202271738Y-137000000D01*
G75*
G02*
X202000000Y-136728262I0J271738D01*
G01*
X202000000Y-135771738D01*
G75*
G02*
X202271738Y-135500000I271738J0D01*
G01*
X202978262Y-135500000D01*
G75*
G02*
X203250000Y-135771738I0J-271738D01*
G01*
G37*
G36*
G01*
X200421738Y-126700000D02*
X201378262Y-126700000D01*
G75*
G02*
X201650000Y-126971738I0J-271738D01*
G01*
X201650000Y-127678262D01*
G75*
G02*
X201378262Y-127950000I-271738J0D01*
G01*
X200421738Y-127950000D01*
G75*
G02*
X200150000Y-127678262I0J271738D01*
G01*
X200150000Y-126971738D01*
G75*
G02*
X200421738Y-126700000I271738J0D01*
G01*
G37*
G36*
G01*
X200421738Y-128750000D02*
X201378262Y-128750000D01*
G75*
G02*
X201650000Y-129021738I0J-271738D01*
G01*
X201650000Y-129728262D01*
G75*
G02*
X201378262Y-130000000I-271738J0D01*
G01*
X200421738Y-130000000D01*
G75*
G02*
X200150000Y-129728262I0J271738D01*
G01*
X200150000Y-129021738D01*
G75*
G02*
X200421738Y-128750000I271738J0D01*
G01*
G37*
G36*
G01*
X211928262Y-129850000D02*
X210971738Y-129850000D01*
G75*
G02*
X210700000Y-129578262I0J271738D01*
G01*
X210700000Y-128871738D01*
G75*
G02*
X210971738Y-128600000I271738J0D01*
G01*
X211928262Y-128600000D01*
G75*
G02*
X212200000Y-128871738I0J-271738D01*
G01*
X212200000Y-129578262D01*
G75*
G02*
X211928262Y-129850000I-271738J0D01*
G01*
G37*
G36*
G01*
X211928262Y-131900000D02*
X210971738Y-131900000D01*
G75*
G02*
X210700000Y-131628262I0J271738D01*
G01*
X210700000Y-130921738D01*
G75*
G02*
X210971738Y-130650000I271738J0D01*
G01*
X211928262Y-130650000D01*
G75*
G02*
X212200000Y-130921738I0J-271738D01*
G01*
X212200000Y-131628262D01*
G75*
G02*
X211928262Y-131900000I-271738J0D01*
G01*
G37*
G36*
G01*
X196671738Y-127650000D02*
X197628262Y-127650000D01*
G75*
G02*
X197900000Y-127921738I0J-271738D01*
G01*
X197900000Y-128628262D01*
G75*
G02*
X197628262Y-128900000I-271738J0D01*
G01*
X196671738Y-128900000D01*
G75*
G02*
X196400000Y-128628262I0J271738D01*
G01*
X196400000Y-127921738D01*
G75*
G02*
X196671738Y-127650000I271738J0D01*
G01*
G37*
G36*
G01*
X196671738Y-125600000D02*
X197628262Y-125600000D01*
G75*
G02*
X197900000Y-125871738I0J-271738D01*
G01*
X197900000Y-126578262D01*
G75*
G02*
X197628262Y-126850000I-271738J0D01*
G01*
X196671738Y-126850000D01*
G75*
G02*
X196400000Y-126578262I0J271738D01*
G01*
X196400000Y-125871738D01*
G75*
G02*
X196671738Y-125600000I271738J0D01*
G01*
G37*
G36*
G01*
X196721738Y-129750000D02*
X197678262Y-129750000D01*
G75*
G02*
X197950000Y-130021738I0J-271738D01*
G01*
X197950000Y-130728262D01*
G75*
G02*
X197678262Y-131000000I-271738J0D01*
G01*
X196721738Y-131000000D01*
G75*
G02*
X196450000Y-130728262I0J271738D01*
G01*
X196450000Y-130021738D01*
G75*
G02*
X196721738Y-129750000I271738J0D01*
G01*
G37*
G36*
G01*
X196721738Y-131800000D02*
X197678262Y-131800000D01*
G75*
G02*
X197950000Y-132071738I0J-271738D01*
G01*
X197950000Y-132778262D01*
G75*
G02*
X197678262Y-133050000I-271738J0D01*
G01*
X196721738Y-133050000D01*
G75*
G02*
X196450000Y-132778262I0J271738D01*
G01*
X196450000Y-132071738D01*
G75*
G02*
X196721738Y-131800000I271738J0D01*
G01*
G37*
D37*
X201950000Y-134350000D03*
X201950000Y-133400000D03*
X201950000Y-132450000D03*
X199250000Y-132450000D03*
X199250000Y-134350000D03*
D41*
X207550000Y-126500000D03*
X209450000Y-126500000D03*
X209450000Y-129200000D03*
X208500000Y-129200000D03*
X207550000Y-129200000D03*
D31*
X208400000Y-137950000D03*
X208400000Y-136050000D03*
X205400000Y-137000000D03*
G36*
G01*
X208950000Y-122628262D02*
X208950000Y-121671738D01*
G75*
G02*
X209221738Y-121400000I271738J0D01*
G01*
X209928262Y-121400000D01*
G75*
G02*
X210200000Y-121671738I0J-271738D01*
G01*
X210200000Y-122628262D01*
G75*
G02*
X209928262Y-122900000I-271738J0D01*
G01*
X209221738Y-122900000D01*
G75*
G02*
X208950000Y-122628262I0J271738D01*
G01*
G37*
G36*
G01*
X211000000Y-122628262D02*
X211000000Y-121671738D01*
G75*
G02*
X211271738Y-121400000I271738J0D01*
G01*
X211978262Y-121400000D01*
G75*
G02*
X212250000Y-121671738I0J-271738D01*
G01*
X212250000Y-122628262D01*
G75*
G02*
X211978262Y-122900000I-271738J0D01*
G01*
X211271738Y-122900000D01*
G75*
G02*
X211000000Y-122628262I0J271738D01*
G01*
G37*
D47*
X225700000Y-141450000D03*
X217100000Y-126500000D03*
X190950000Y-125300000D03*
M02*
