M48
; DRILL file {KiCad 5.1.6-c6e7f7d~87~ubuntu18.04.1} date Mon Aug 24 14:23:54 2020
; FORMAT={-:-/ absolute / inch / decimal}
; #@! TF.CreationDate,2020-08-24T14:23:54+10:00
; #@! TF.GenerationSoftware,Kicad,Pcbnew,5.1.6-c6e7f7d~87~ubuntu18.04.1
; #@! TF.FileFunction,Plated,1,2,PTH
FMAT,2
INCH
T1C0.0118
T2C0.0157
T3C0.0197
T4C0.0256
T5C0.0300
T6C0.0394
T7C0.0433
T8C0.0450
T9C0.0472
T10C0.0510
T11C0.0512
T12C0.0571
T13C0.0591
T14C0.0600
T15C0.0630
T16C0.0669
T17C0.0787
T18C0.0827
T19C0.1260
%
G90
G05
T1
X2.063Y-5.122
X2.063Y-5.2067
X2.065Y-5.1654
X2.1122Y-5.122
X2.1122Y-5.1673
X2.1122Y-5.2067
X2.1673Y-5.122
X2.1673Y-5.1654
X2.1673Y-5.2067
X4.6752Y-3.4291
X4.6772Y-3.4685
X4.6772Y-3.5079
X4.7106Y-3.4291
X4.7126Y-3.4705
X4.7146Y-3.5079
T2
X0.9744Y-4.3209
X1.1024Y-4.25
X1.1024Y-4.2933
X1.1024Y-4.3445
X1.2205Y-4.6339
X1.2874Y-5.1457
X1.3583Y-4.9114
X1.3602Y-4.4941
X1.3661Y-4.1732
X1.4646Y-4.1043
X1.4665Y-5.2067
X1.4724Y-4.6654
X1.5433Y-4.7362
X1.5925Y-5.4606
X1.6024Y-4.5689
X1.6614Y-5.3839
X1.6811Y-4.6555
X2.4882Y-4.9114
X2.4921Y-5.2047
X2.7598Y-5.0886
X2.811Y-3.3268
X2.8248Y-5.4665
X2.937Y-3.0984
X3.0787Y-3.0984
X3.3031Y-3.5984
X3.3799Y-3.3287
X3.687Y-3.9508
X3.687Y-4.1772
X3.9764Y-3.4193
X4.2382Y-5.3957
X4.4527Y-3.5374
X4.4528Y-3.498
X4.5413Y-3.439
X4.7874Y-3.0157
X4.7874Y-3.0669
X4.7874Y-3.1024
X4.7874Y-3.1378
X4.7874Y-3.1732
X4.8346Y-3.4409
X4.9193Y-3.4783
X4.9961Y-3.7264
X5.0217Y-5.4685
X5.0236Y-5.1181
X5.0236Y-5.1654
X5.0236Y-5.2185
X5.252Y-3.1181
X5.252Y-3.1535
X5.252Y-3.189
X5.5656Y-3.2087
X5.5669Y-3.1457
X5.5681Y-3.0786
X5.7323Y-5.0394
X5.7343Y-5.1142
X5.7835Y-4.263
X5.7854Y-4.0945
X5.9094Y-3.2559
X5.9331Y-5.4783
X5.937Y-5.6772
X5.939Y-5.8602
X6.0276Y-3.252
X6.0551Y-4.4311
X6.0709Y-4.5709
X6.0728Y-4.3583
X6.0748Y-4.2551
X6.0846Y-5.8583
X6.0945Y-5.6772
X6.1201Y-3.5059
X6.124Y-4.3622
X6.189Y-4.4311
X6.2874Y-3.5059
X6.2953Y-3.1654
X6.315Y-4.5709
X6.3189Y-4.3268
X6.3346Y-4.435
X6.4843Y-3.6043
X6.5079Y-3.7579
X6.5157Y-3.1811
X6.6024Y-4.0354
X6.6772Y-2.8169
X6.7441Y-3.5453
X6.7441Y-3.7087
X6.7618Y-2.5787
X6.9921Y-2.5453
X6.9921Y-2.7028
X7.1417Y-2.7579
X7.1476Y-4.0059
X7.1594Y-1.4587
X7.1969Y-1.4921
X7.1969Y-1.5354
X7.1969Y-1.5787
X7.1969Y-1.5787
X7.2087Y-2.8661
X7.2205Y-2.685
X7.2205Y-3.7441
X7.2343Y-4.8701
X7.2382Y-2.9528
X7.3543Y-3.0118
X7.3563Y-4.8701
X7.3622Y-2.8917
X7.3622Y-3.4429
X7.372Y-2.7815
X7.4075Y-4.7402
X7.4783Y-4.4705
X7.4783Y-4.5886
X7.4941Y-4.1457
X7.5Y-3.7441
X7.563Y-2.2756
X7.5689Y-3.0335
X7.5748Y-4.315
X7.5984Y-2.6142
X7.6417Y-2.2717
X7.6909Y-5.7008
X7.6929Y-5.2126
X7.7146Y-3.4921
X7.7205Y-3.6142
X7.748Y-4.5551
X7.7598Y-3.7441
X7.7776Y-5.2894
X7.7795Y-2.9016
X7.7835Y-5.6063
X7.8071Y-2.6732
X7.8268Y-2.3898
X7.8425Y-3.1634
X7.9016Y-2.3937
X7.9488Y-3.7461
X7.9744Y-2.5472
X8.0335Y-3.3976
X8.1102Y-3.0748
X8.1713Y-4.9154
X8.1772Y-5.252
X8.3228Y-5.4823
X8.3248Y-5.25
X8.3858Y-4.8976
X8.3878Y-4.8091
X8.5098Y-5.7461
X8.6339Y-5.1161
X8.6909Y-5.5669
X8.7244Y-5.1043
X9.2717Y-2.7165
X9.2776Y-2.6398
X9.8071Y-2.7697
X9.8327Y-2.6929
X10.9882Y-4.1634
T3
X6.1197Y-4.4724
X6.2697Y-4.4724
T4
X1.0768Y-3.315
X1.5709Y-3.9213
X2.6161Y-3.3268
X3.5118Y-3.9154
X3.5118Y-4.187
X3.6083Y-3.9528
X3.6083Y-4.1752
T6
X2.935Y-5.2665
X2.935Y-5.3665
X2.935Y-5.4665
X4.3504Y-5.7717
X4.4504Y-5.7717
X4.5504Y-5.7717
X4.6504Y-5.7717
X4.7504Y-5.7717
X4.8504Y-5.7717
X4.9504Y-5.7717
X5.0504Y-5.7717
X5.1504Y-5.7717
X5.2504Y-5.7717
X5.3504Y-5.7717
X5.4504Y-5.7717
X5.5504Y-5.7717
X5.6504Y-5.7717
X5.7504Y-5.7717
X5.8504Y-5.7717
X1.5Y-5.3606
X1.5Y-5.4606
X1.1732Y-5.4173
X1.2732Y-5.4173
X6.5299Y-5.8472
X6.6299Y-5.5472
X6.6299Y-6.0472
X6.0354Y-3.9764
X6.1354Y-3.9764
X6.2354Y-3.9764
X6.3354Y-3.9764
X1.1732Y-5.2559
X1.2732Y-5.2559
T7
X5.8697Y-4.1724
X5.8697Y-4.7724
X5.9697Y-4.1724
X5.9697Y-4.2724
X5.9697Y-4.7724
X6.0697Y-4.1724
X6.0697Y-4.7724
X6.1697Y-4.1724
X6.1697Y-4.2724
X6.1697Y-4.7724
X6.2697Y-4.1724
X6.2697Y-4.2724
X6.2697Y-4.7724
X6.3697Y-4.1724
X6.3697Y-4.2724
X6.3697Y-4.7724
X6.4697Y-4.1724
X6.4697Y-4.7724
X6.5697Y-4.1724
X6.5697Y-4.7724
X6.6697Y-4.1724
X6.6697Y-4.7724
X6.7697Y-4.1724
X6.7697Y-4.7724
X6.8697Y-4.1724
X6.8697Y-4.7724
X6.9697Y-4.1724
X6.9697Y-4.7724
X7.0697Y-4.1724
X7.0697Y-4.7724
X7.1697Y-4.1724
X7.1697Y-4.2724
X7.1697Y-4.3724
X7.1697Y-4.4724
X7.1697Y-4.5724
X7.1697Y-4.6724
X7.1697Y-4.7724
T8
X7.4669Y-1.2402
X7.5669Y-1.1417
X7.6669Y-1.2402
T9
X9.2205Y-4.3504
X9.4252Y-4.3504
X8.0276Y-1.248
X8.2323Y-1.248
X8.3346Y-3.6024
X8.5394Y-3.6024
X9.437Y-2.9055
X9.437Y-3.1102
T10
X0.7618Y-1.187
X0.7618Y-1.3839
X0.7618Y-1.5807
X0.7618Y-1.7776
T11
X10.7283Y-4.6417
X10.7283Y-4.8386
X1.9685Y-6.0906
X2.1654Y-6.0906
X10.7382Y-5.2421
X10.7382Y-5.439
X6.9291Y-6.1004
X7.126Y-6.1004
X7.5433Y-6.0945
X7.7402Y-6.0945
T12
X10.0472Y-1.0669
X10.0472Y-2.5433
X10.8465Y-1.0669
X10.8465Y-2.5433
X3.2874Y-0.8622
X3.2874Y-2.8307
T13
X1.7343Y-2.6634
X1.9488Y-2.6634
X2.1634Y-2.6634
X1.0866Y-2.6516
X1.3012Y-2.6516
X1.5157Y-2.6516
T14
X9.0726Y-4.8543
X9.0726Y-5.1033
X9.0726Y-5.3563
X9.0726Y-5.6043
X10.2726Y-4.8543
X10.2736Y-5.1043
X10.2736Y-5.6043
X10.2746Y-5.3543
T15
X1.2991Y-3.0041
X1.9488Y-2.4508
X2.4882Y-2.5059
X2.6358Y-2.4941
T16
X10.2008Y-3.3642
X10.2008Y-3.8642
X10.5748Y-3.1142
X10.5748Y-3.6142
T17
X9.0984Y-1.2598
X9.0984Y-1.6535
X2.2618Y-1.7008
X2.2618Y-2.0945
T19
X0.7087Y-0.7677
X0.7087Y-6.0039
X5.5807Y-3.6142
X10.9469Y-6.0079
X10.9508Y-0.7677
T5
G00X0.7587Y-2.0453
M15
G01X0.7137Y-2.0453
M16
G05
G00X0.7587Y-2.3453
M15
G01X0.7137Y-2.3453
M16
G05
G00X0.7587Y-3.0153
M15
G01X0.7137Y-3.0153
M16
G05
G00X0.7587Y-3.3153
M15
G01X0.7137Y-3.3153
M16
G05
G00X1.2323Y-1.0129
M15
G01X1.2323Y-1.0579
M16
G05
G00X1.5323Y-1.0129
M15
G01X1.5323Y-1.0579
M16
G05
G00X2.2023Y-1.0129
M15
G01X2.2023Y-1.0579
M16
G05
G00X2.5023Y-1.0129
M15
G01X2.5023Y-1.0579
M16
G05
T18
G00X6.1004Y-2.1043
M15
G01X5.8484Y-2.1043
M16
G05
G00X6.6634Y-1.0138
M15
G01X6.4114Y-1.0138
M16
G05
G00X4.5492Y-2.0965
M15
G01X4.2972Y-2.0965
M16
G05
G00X5.1122Y-1.0059
M15
G01X4.8602Y-1.0059
M16
G05
T0
M30
