G04 #@! TF.GenerationSoftware,KiCad,Pcbnew,5.1.6-c6e7f7d~87~ubuntu18.04.1*
G04 #@! TF.CreationDate,2020-08-24T14:21:44+10:00*
G04 #@! TF.ProjectId,GridTiedBatteryBoostConverter,47726964-5469-4656-9442-617474657279,rev?*
G04 #@! TF.SameCoordinates,Original*
G04 #@! TF.FileFunction,Copper,L1,Top*
G04 #@! TF.FilePolarity,Positive*
%FSLAX46Y46*%
G04 Gerber Fmt 4.6, Leading zero omitted, Abs format (unit mm)*
G04 Created by KiCad (PCBNEW 5.1.6-c6e7f7d~87~ubuntu18.04.1) date 2020-08-24 14:21:44*
%MOMM*%
%LPD*%
G01*
G04 APERTURE LIST*
G04 #@! TA.AperFunction,ComponentPad*
%ADD10C,1.803400*%
G04 #@! TD*
G04 #@! TA.AperFunction,ComponentPad*
%ADD11R,10.500000X4.100000*%
G04 #@! TD*
G04 #@! TA.AperFunction,ComponentPad*
%ADD12C,3.048000*%
G04 #@! TD*
G04 #@! TA.AperFunction,ComponentPad*
%ADD13O,2.032000X2.540000*%
G04 #@! TD*
G04 #@! TA.AperFunction,ComponentPad*
%ADD14C,2.600000*%
G04 #@! TD*
G04 #@! TA.AperFunction,ComponentPad*
%ADD15C,6.400000*%
G04 #@! TD*
G04 #@! TA.AperFunction,SMDPad,CuDef*
%ADD16R,4.000000X4.000000*%
G04 #@! TD*
G04 #@! TA.AperFunction,SMDPad,CuDef*
%ADD17R,1.485000X0.900000*%
G04 #@! TD*
G04 #@! TA.AperFunction,ComponentPad*
%ADD18C,1.900000*%
G04 #@! TD*
G04 #@! TA.AperFunction,ComponentPad*
%ADD19R,1.600000X1.600000*%
G04 #@! TD*
G04 #@! TA.AperFunction,ComponentPad*
%ADD20C,1.600000*%
G04 #@! TD*
G04 #@! TA.AperFunction,SMDPad,CuDef*
%ADD21R,1.550000X0.600000*%
G04 #@! TD*
G04 #@! TA.AperFunction,ComponentPad*
%ADD22C,2.900000*%
G04 #@! TD*
G04 #@! TA.AperFunction,ComponentPad*
%ADD23C,2.400000*%
G04 #@! TD*
G04 #@! TA.AperFunction,ComponentPad*
%ADD24R,2.400000X2.400000*%
G04 #@! TD*
G04 #@! TA.AperFunction,ComponentPad*
%ADD25C,5.080000*%
G04 #@! TD*
G04 #@! TA.AperFunction,ComponentPad*
%ADD26C,3.400000*%
G04 #@! TD*
G04 #@! TA.AperFunction,ComponentPad*
%ADD27C,2.500000*%
G04 #@! TD*
G04 #@! TA.AperFunction,ComponentPad*
%ADD28R,2.500000X2.500000*%
G04 #@! TD*
G04 #@! TA.AperFunction,SMDPad,CuDef*
%ADD29R,2.000000X2.500000*%
G04 #@! TD*
G04 #@! TA.AperFunction,SMDPad,CuDef*
%ADD30R,0.800000X1.900000*%
G04 #@! TD*
G04 #@! TA.AperFunction,SMDPad,CuDef*
%ADD31R,1.900000X0.800000*%
G04 #@! TD*
G04 #@! TA.AperFunction,ComponentPad*
%ADD32C,1.800000*%
G04 #@! TD*
G04 #@! TA.AperFunction,SMDPad,CuDef*
%ADD33R,1.450000X0.450000*%
G04 #@! TD*
G04 #@! TA.AperFunction,SMDPad,CuDef*
%ADD34R,2.032000X1.524000*%
G04 #@! TD*
G04 #@! TA.AperFunction,SMDPad,CuDef*
%ADD35R,1.651000X2.844800*%
G04 #@! TD*
G04 #@! TA.AperFunction,SMDPad,CuDef*
%ADD36R,0.889000X0.304800*%
G04 #@! TD*
G04 #@! TA.AperFunction,SMDPad,CuDef*
%ADD37R,1.560000X0.650000*%
G04 #@! TD*
G04 #@! TA.AperFunction,ComponentPad*
%ADD38R,1.700000X1.700000*%
G04 #@! TD*
G04 #@! TA.AperFunction,ComponentPad*
%ADD39O,1.700000X1.700000*%
G04 #@! TD*
G04 #@! TA.AperFunction,SMDPad,CuDef*
%ADD40R,1.500000X0.600000*%
G04 #@! TD*
G04 #@! TA.AperFunction,SMDPad,CuDef*
%ADD41R,0.650000X1.560000*%
G04 #@! TD*
G04 #@! TA.AperFunction,ComponentPad*
%ADD42O,2.500000X4.500000*%
G04 #@! TD*
G04 #@! TA.AperFunction,ComponentPad*
%ADD43R,2.500000X4.500000*%
G04 #@! TD*
G04 #@! TA.AperFunction,ComponentPad*
%ADD44R,4.000000X4.000000*%
G04 #@! TD*
G04 #@! TA.AperFunction,ComponentPad*
%ADD45C,4.000000*%
G04 #@! TD*
G04 #@! TA.AperFunction,SMDPad,CuDef*
%ADD46R,3.500000X1.800000*%
G04 #@! TD*
G04 #@! TA.AperFunction,SMDPad,CuDef*
%ADD47R,3.000000X3.000000*%
G04 #@! TD*
G04 #@! TA.AperFunction,ViaPad*
%ADD48C,0.800000*%
G04 #@! TD*
G04 #@! TA.AperFunction,ViaPad*
%ADD49C,0.600000*%
G04 #@! TD*
G04 #@! TA.AperFunction,ViaPad*
%ADD50C,3.200000*%
G04 #@! TD*
G04 #@! TA.AperFunction,ViaPad*
%ADD51C,1.300000*%
G04 #@! TD*
G04 #@! TA.AperFunction,Conductor*
%ADD52C,8.000000*%
G04 #@! TD*
G04 #@! TA.AperFunction,Conductor*
%ADD53C,6.000000*%
G04 #@! TD*
G04 #@! TA.AperFunction,Conductor*
%ADD54C,12.000000*%
G04 #@! TD*
G04 #@! TA.AperFunction,Conductor*
%ADD55C,5.000000*%
G04 #@! TD*
G04 #@! TA.AperFunction,Conductor*
%ADD56C,0.500000*%
G04 #@! TD*
G04 #@! TA.AperFunction,Conductor*
%ADD57C,1.000000*%
G04 #@! TD*
G04 #@! TA.AperFunction,Conductor*
%ADD58C,2.000000*%
G04 #@! TD*
G04 #@! TA.AperFunction,Conductor*
%ADD59C,0.250000*%
G04 #@! TD*
G04 #@! TA.AperFunction,Conductor*
%ADD60C,4.000000*%
G04 #@! TD*
G04 #@! TA.AperFunction,Conductor*
%ADD61C,3.000000*%
G04 #@! TD*
G04 #@! TA.AperFunction,Conductor*
%ADD62C,10.000000*%
G04 #@! TD*
G04 APERTURE END LIST*
D10*
X19350000Y-30150000D03*
X19350000Y-35150000D03*
X19350000Y-40150000D03*
X19350000Y-45150001D03*
D11*
X126650000Y-25550000D03*
X112350000Y-53250000D03*
X166050000Y-25750000D03*
X151750000Y-53450000D03*
D12*
X230444600Y-123300000D03*
X230444600Y-129624600D03*
X230444600Y-136050800D03*
X230444600Y-142350000D03*
X260924600Y-123300000D03*
X260950000Y-129650000D03*
X260975400Y-136000000D03*
X260950000Y-142350000D03*
D13*
X194740000Y-31500000D03*
X192200000Y-29000000D03*
X189660000Y-31500000D03*
D14*
X196600000Y-154800000D03*
X191600000Y-154800000D03*
X181000000Y-154950000D03*
X176000000Y-154950000D03*
X55000000Y-154700000D03*
X50000000Y-154700000D03*
D15*
X141750000Y-91800000D03*
X278150000Y-19500000D03*
X278050000Y-152600000D03*
X18000000Y-19500000D03*
X18000000Y-152500000D03*
D16*
X53850000Y-131350000D03*
D17*
X61642500Y-124750000D03*
X61642500Y-126250000D03*
X61642500Y-127750000D03*
X61642500Y-129250000D03*
X61642500Y-130750000D03*
X61642500Y-132250000D03*
X61642500Y-133750000D03*
X61642500Y-135250000D03*
X61642500Y-136750000D03*
X43857500Y-136750000D03*
X43857500Y-135250000D03*
X43857500Y-133750000D03*
X43857500Y-132250000D03*
X43857500Y-130750000D03*
X43857500Y-129250000D03*
X43857500Y-127750000D03*
X43857500Y-126250000D03*
X43857500Y-124750000D03*
D18*
X155440000Y-113600000D03*
X159250000Y-113600000D03*
D19*
X149090000Y-121220000D03*
D20*
X151630000Y-121220000D03*
X154170000Y-121220000D03*
X156710000Y-121220000D03*
X159250000Y-121220000D03*
X161790000Y-121220000D03*
X164330000Y-121220000D03*
X166870000Y-121220000D03*
X169410000Y-121220000D03*
X171950000Y-121220000D03*
X174490000Y-121220000D03*
X177030000Y-121220000D03*
X179570000Y-121220000D03*
X161790000Y-108520000D03*
X159250000Y-108520000D03*
X156710000Y-108520000D03*
X151630000Y-108520000D03*
X149090000Y-105980000D03*
X151630000Y-105980000D03*
X154170000Y-105980000D03*
X156710000Y-105980000D03*
X159250000Y-105980000D03*
X161790000Y-105980000D03*
X164330000Y-105980000D03*
X166870000Y-105980000D03*
X169410000Y-105980000D03*
X171950000Y-105980000D03*
X174490000Y-105980000D03*
X177030000Y-105980000D03*
X179570000Y-105980000D03*
X182110000Y-121220000D03*
X182110000Y-118680000D03*
X182110000Y-116140000D03*
X182110000Y-105980000D03*
X182110000Y-108520000D03*
X182110000Y-111060000D03*
X182110000Y-113600000D03*
D21*
X191000000Y-64095000D03*
X191000000Y-65365000D03*
X191000000Y-66635000D03*
X191000000Y-67905000D03*
X196400000Y-67905000D03*
X196400000Y-66635000D03*
X196400000Y-65365000D03*
X196400000Y-64095000D03*
D22*
X83500000Y-71900000D03*
X83500000Y-21900000D03*
X275500000Y-27100000D03*
X275500000Y-64600000D03*
X255200000Y-64600000D03*
X255200000Y-27100000D03*
D23*
X203900000Y-31700000D03*
D24*
X209100000Y-31700000D03*
D23*
X239700000Y-73800000D03*
D24*
X239700000Y-79000000D03*
D23*
X211700000Y-91500000D03*
D24*
X216900000Y-91500000D03*
D23*
X239400000Y-110500000D03*
D24*
X234200000Y-110500000D03*
D25*
X55938000Y-26300000D03*
X63558000Y-26300000D03*
X38920000Y-26300000D03*
X31300000Y-26300000D03*
D26*
X259100000Y-98150000D03*
X268600000Y-91800000D03*
X259100000Y-85450000D03*
X268600000Y-79100000D03*
D27*
X272500000Y-117900000D03*
D28*
X272500000Y-122900000D03*
D16*
X116300000Y-70750000D03*
X127900000Y-70750000D03*
D29*
X147600000Y-76500000D03*
X143600000Y-76500000D03*
D30*
X190800000Y-75200000D03*
X189850000Y-72200000D03*
X191750000Y-72200000D03*
D31*
X168750000Y-68550000D03*
X171750000Y-67600000D03*
X171750000Y-69500000D03*
D30*
X163850000Y-71550000D03*
X162900000Y-68550000D03*
X164800000Y-68550000D03*
D31*
X154350000Y-136100000D03*
X151350000Y-137050000D03*
X151350000Y-135150000D03*
D30*
X108600000Y-142100000D03*
X107650000Y-139100000D03*
X109550000Y-139100000D03*
D31*
X157650000Y-141600000D03*
X154650000Y-142550000D03*
X154650000Y-140650000D03*
D30*
X71950000Y-73500000D03*
X72900000Y-76500000D03*
X71000000Y-76500000D03*
X77250000Y-73500000D03*
X78200000Y-76500000D03*
X76300000Y-76500000D03*
D32*
X168400000Y-140900000D03*
X165860000Y-148520000D03*
X168400000Y-153600000D03*
D33*
X191400000Y-84125000D03*
X191400000Y-84775000D03*
X191400000Y-85425000D03*
X191400000Y-86075000D03*
X187000000Y-86075000D03*
X187000000Y-85425000D03*
X187000000Y-84775000D03*
X187000000Y-84125000D03*
D34*
X83910000Y-89610000D03*
X83910000Y-87070000D03*
X83910000Y-84530000D03*
X83910000Y-81990000D03*
X76290000Y-81990000D03*
X76290000Y-84530000D03*
X76290000Y-87070000D03*
X76290000Y-89610000D03*
D35*
X119200000Y-88100000D03*
D36*
X121308200Y-86348670D03*
X121308200Y-87349430D03*
X121308200Y-88350190D03*
X121308200Y-88850570D03*
X121308200Y-89350950D03*
X121308200Y-89851330D03*
X117091800Y-89851330D03*
X117091800Y-89350950D03*
X117091800Y-88850570D03*
X117091800Y-88350190D03*
X117091800Y-87349430D03*
X117091800Y-86348670D03*
D37*
X140050000Y-80850000D03*
X140050000Y-78950000D03*
X142750000Y-78950000D03*
X142750000Y-79900000D03*
X142750000Y-80850000D03*
D38*
X148600000Y-146600000D03*
D39*
X146060000Y-146600000D03*
X143520000Y-146600000D03*
X140980000Y-146600000D03*
X138440000Y-146600000D03*
X135900000Y-146600000D03*
X133360000Y-146600000D03*
X130820000Y-146600000D03*
X128280000Y-146600000D03*
X125740000Y-146600000D03*
X123200000Y-146600000D03*
X120660000Y-146600000D03*
X118120000Y-146600000D03*
X115580000Y-146600000D03*
X113040000Y-146600000D03*
X110500000Y-146600000D03*
X74550000Y-138850000D03*
X74550000Y-136310000D03*
D38*
X74550000Y-133770000D03*
D39*
X32340000Y-137600000D03*
D38*
X29800000Y-137600000D03*
D39*
X32340000Y-133500000D03*
D38*
X29800000Y-133500000D03*
X38100000Y-138700000D03*
D39*
X38100000Y-136160000D03*
D29*
X29700000Y-112550000D03*
X25700000Y-112550000D03*
D40*
X138400000Y-130005000D03*
X138400000Y-131275000D03*
X138400000Y-132545000D03*
X138400000Y-133815000D03*
X138400000Y-135085000D03*
X138400000Y-136355000D03*
X138400000Y-137625000D03*
X138400000Y-138895000D03*
X129100000Y-138895000D03*
X129100000Y-137625000D03*
X129100000Y-136355000D03*
X129100000Y-135085000D03*
X129100000Y-133815000D03*
X129100000Y-132545000D03*
X129100000Y-131275000D03*
X129100000Y-130005000D03*
D30*
X167300000Y-99500000D03*
X165400000Y-99500000D03*
X166350000Y-102500000D03*
D37*
X29700000Y-108100000D03*
X29700000Y-109050000D03*
X29700000Y-110000000D03*
X32400000Y-110000000D03*
X32400000Y-108100000D03*
D39*
X160920000Y-101000000D03*
X158380000Y-101000000D03*
X155840000Y-101000000D03*
D38*
X153300000Y-101000000D03*
D30*
X194700000Y-106650000D03*
X195650000Y-109650000D03*
X193750000Y-109650000D03*
D31*
X190350000Y-103850000D03*
X190350000Y-101950000D03*
X187350000Y-102900000D03*
X185050000Y-117550000D03*
X188050000Y-116600000D03*
X188050000Y-118500000D03*
X194900000Y-115650000D03*
X194900000Y-113750000D03*
X191900000Y-114700000D03*
D41*
X161750000Y-78850000D03*
X162700000Y-78850000D03*
X163650000Y-78850000D03*
X163650000Y-76150000D03*
X161750000Y-76150000D03*
D42*
X38500000Y-67350000D03*
X33050000Y-67350000D03*
D43*
X27600000Y-67350000D03*
X54950000Y-67650000D03*
D42*
X49500000Y-67650000D03*
X44050000Y-67650000D03*
D44*
X57450000Y-43200000D03*
D45*
X57450000Y-53200000D03*
D44*
X231100000Y-32000000D03*
D45*
X231100000Y-42000000D03*
G04 #@! TA.AperFunction,SMDPad,CuDef*
G36*
G01*
X188800000Y-78750001D02*
X188800000Y-77849999D01*
G75*
G02*
X189049999Y-77600000I249999J0D01*
G01*
X189700001Y-77600000D01*
G75*
G02*
X189950000Y-77849999I0J-249999D01*
G01*
X189950000Y-78750001D01*
G75*
G02*
X189700001Y-79000000I-249999J0D01*
G01*
X189049999Y-79000000D01*
G75*
G02*
X188800000Y-78750001I0J249999D01*
G01*
G37*
G04 #@! TD.AperFunction*
G04 #@! TA.AperFunction,SMDPad,CuDef*
G36*
G01*
X190850000Y-78750001D02*
X190850000Y-77849999D01*
G75*
G02*
X191099999Y-77600000I249999J0D01*
G01*
X191750001Y-77600000D01*
G75*
G02*
X192000000Y-77849999I0J-249999D01*
G01*
X192000000Y-78750001D01*
G75*
G02*
X191750001Y-79000000I-249999J0D01*
G01*
X191099999Y-79000000D01*
G75*
G02*
X190850000Y-78750001I0J249999D01*
G01*
G37*
G04 #@! TD.AperFunction*
G04 #@! TA.AperFunction,SMDPad,CuDef*
G36*
G01*
X188800000Y-82750001D02*
X188800000Y-81849999D01*
G75*
G02*
X189049999Y-81600000I249999J0D01*
G01*
X189700001Y-81600000D01*
G75*
G02*
X189950000Y-81849999I0J-249999D01*
G01*
X189950000Y-82750001D01*
G75*
G02*
X189700001Y-83000000I-249999J0D01*
G01*
X189049999Y-83000000D01*
G75*
G02*
X188800000Y-82750001I0J249999D01*
G01*
G37*
G04 #@! TD.AperFunction*
G04 #@! TA.AperFunction,SMDPad,CuDef*
G36*
G01*
X190850000Y-82750001D02*
X190850000Y-81849999D01*
G75*
G02*
X191099999Y-81600000I249999J0D01*
G01*
X191750001Y-81600000D01*
G75*
G02*
X192000000Y-81849999I0J-249999D01*
G01*
X192000000Y-82750001D01*
G75*
G02*
X191750001Y-83000000I-249999J0D01*
G01*
X191099999Y-83000000D01*
G75*
G02*
X190850000Y-82750001I0J249999D01*
G01*
G37*
G04 #@! TD.AperFunction*
G04 #@! TA.AperFunction,SMDPad,CuDef*
G36*
G01*
X192550001Y-60150000D02*
X191649999Y-60150000D01*
G75*
G02*
X191400000Y-59900001I0J249999D01*
G01*
X191400000Y-59249999D01*
G75*
G02*
X191649999Y-59000000I249999J0D01*
G01*
X192550001Y-59000000D01*
G75*
G02*
X192800000Y-59249999I0J-249999D01*
G01*
X192800000Y-59900001D01*
G75*
G02*
X192550001Y-60150000I-249999J0D01*
G01*
G37*
G04 #@! TD.AperFunction*
G04 #@! TA.AperFunction,SMDPad,CuDef*
G36*
G01*
X192550001Y-62200000D02*
X191649999Y-62200000D01*
G75*
G02*
X191400000Y-61950001I0J249999D01*
G01*
X191400000Y-61299999D01*
G75*
G02*
X191649999Y-61050000I249999J0D01*
G01*
X192550001Y-61050000D01*
G75*
G02*
X192800000Y-61299999I0J-249999D01*
G01*
X192800000Y-61950001D01*
G75*
G02*
X192550001Y-62200000I-249999J0D01*
G01*
G37*
G04 #@! TD.AperFunction*
G04 #@! TA.AperFunction,SMDPad,CuDef*
G36*
G01*
X194550001Y-62200000D02*
X193649999Y-62200000D01*
G75*
G02*
X193400000Y-61950001I0J249999D01*
G01*
X193400000Y-61299999D01*
G75*
G02*
X193649999Y-61050000I249999J0D01*
G01*
X194550001Y-61050000D01*
G75*
G02*
X194800000Y-61299999I0J-249999D01*
G01*
X194800000Y-61950001D01*
G75*
G02*
X194550001Y-62200000I-249999J0D01*
G01*
G37*
G04 #@! TD.AperFunction*
G04 #@! TA.AperFunction,SMDPad,CuDef*
G36*
G01*
X194550001Y-60150000D02*
X193649999Y-60150000D01*
G75*
G02*
X193400000Y-59900001I0J249999D01*
G01*
X193400000Y-59249999D01*
G75*
G02*
X193649999Y-59000000I249999J0D01*
G01*
X194550001Y-59000000D01*
G75*
G02*
X194800000Y-59249999I0J-249999D01*
G01*
X194800000Y-59900001D01*
G75*
G02*
X194550001Y-60150000I-249999J0D01*
G01*
G37*
G04 #@! TD.AperFunction*
G04 #@! TA.AperFunction,SMDPad,CuDef*
G36*
G01*
X182750000Y-83349999D02*
X182750000Y-84250001D01*
G75*
G02*
X182500001Y-84500000I-249999J0D01*
G01*
X181849999Y-84500000D01*
G75*
G02*
X181600000Y-84250001I0J249999D01*
G01*
X181600000Y-83349999D01*
G75*
G02*
X181849999Y-83100000I249999J0D01*
G01*
X182500001Y-83100000D01*
G75*
G02*
X182750000Y-83349999I0J-249999D01*
G01*
G37*
G04 #@! TD.AperFunction*
G04 #@! TA.AperFunction,SMDPad,CuDef*
G36*
G01*
X184800000Y-83349999D02*
X184800000Y-84250001D01*
G75*
G02*
X184550001Y-84500000I-249999J0D01*
G01*
X183899999Y-84500000D01*
G75*
G02*
X183650000Y-84250001I0J249999D01*
G01*
X183650000Y-83349999D01*
G75*
G02*
X183899999Y-83100000I249999J0D01*
G01*
X184550001Y-83100000D01*
G75*
G02*
X184800000Y-83349999I0J-249999D01*
G01*
G37*
G04 #@! TD.AperFunction*
G04 #@! TA.AperFunction,SMDPad,CuDef*
G36*
G01*
X190850000Y-80750001D02*
X190850000Y-79849999D01*
G75*
G02*
X191099999Y-79600000I249999J0D01*
G01*
X191750001Y-79600000D01*
G75*
G02*
X192000000Y-79849999I0J-249999D01*
G01*
X192000000Y-80750001D01*
G75*
G02*
X191750001Y-81000000I-249999J0D01*
G01*
X191099999Y-81000000D01*
G75*
G02*
X190850000Y-80750001I0J249999D01*
G01*
G37*
G04 #@! TD.AperFunction*
G04 #@! TA.AperFunction,SMDPad,CuDef*
G36*
G01*
X188800000Y-80750001D02*
X188800000Y-79849999D01*
G75*
G02*
X189049999Y-79600000I249999J0D01*
G01*
X189700001Y-79600000D01*
G75*
G02*
X189950000Y-79849999I0J-249999D01*
G01*
X189950000Y-80750001D01*
G75*
G02*
X189700001Y-81000000I-249999J0D01*
G01*
X189049999Y-81000000D01*
G75*
G02*
X188800000Y-80750001I0J249999D01*
G01*
G37*
G04 #@! TD.AperFunction*
G04 #@! TA.AperFunction,SMDPad,CuDef*
G36*
G01*
X199250001Y-65100000D02*
X198349999Y-65100000D01*
G75*
G02*
X198100000Y-64850001I0J249999D01*
G01*
X198100000Y-64199999D01*
G75*
G02*
X198349999Y-63950000I249999J0D01*
G01*
X199250001Y-63950000D01*
G75*
G02*
X199500000Y-64199999I0J-249999D01*
G01*
X199500000Y-64850001D01*
G75*
G02*
X199250001Y-65100000I-249999J0D01*
G01*
G37*
G04 #@! TD.AperFunction*
G04 #@! TA.AperFunction,SMDPad,CuDef*
G36*
G01*
X199250001Y-63050000D02*
X198349999Y-63050000D01*
G75*
G02*
X198100000Y-62800001I0J249999D01*
G01*
X198100000Y-62149999D01*
G75*
G02*
X198349999Y-61900000I249999J0D01*
G01*
X199250001Y-61900000D01*
G75*
G02*
X199500000Y-62149999I0J-249999D01*
G01*
X199500000Y-62800001D01*
G75*
G02*
X199250001Y-63050000I-249999J0D01*
G01*
G37*
G04 #@! TD.AperFunction*
G04 #@! TA.AperFunction,SMDPad,CuDef*
G36*
G01*
X180950000Y-90250001D02*
X180950000Y-89349999D01*
G75*
G02*
X181199999Y-89100000I249999J0D01*
G01*
X181850001Y-89100000D01*
G75*
G02*
X182100000Y-89349999I0J-249999D01*
G01*
X182100000Y-90250001D01*
G75*
G02*
X181850001Y-90500000I-249999J0D01*
G01*
X181199999Y-90500000D01*
G75*
G02*
X180950000Y-90250001I0J249999D01*
G01*
G37*
G04 #@! TD.AperFunction*
G04 #@! TA.AperFunction,SMDPad,CuDef*
G36*
G01*
X178900000Y-90250001D02*
X178900000Y-89349999D01*
G75*
G02*
X179149999Y-89100000I249999J0D01*
G01*
X179800001Y-89100000D01*
G75*
G02*
X180050000Y-89349999I0J-249999D01*
G01*
X180050000Y-90250001D01*
G75*
G02*
X179800001Y-90500000I-249999J0D01*
G01*
X179149999Y-90500000D01*
G75*
G02*
X178900000Y-90250001I0J249999D01*
G01*
G37*
G04 #@! TD.AperFunction*
G04 #@! TA.AperFunction,SMDPad,CuDef*
G36*
G01*
X194750000Y-84849999D02*
X194750000Y-85750001D01*
G75*
G02*
X194500001Y-86000000I-249999J0D01*
G01*
X193849999Y-86000000D01*
G75*
G02*
X193600000Y-85750001I0J249999D01*
G01*
X193600000Y-84849999D01*
G75*
G02*
X193849999Y-84600000I249999J0D01*
G01*
X194500001Y-84600000D01*
G75*
G02*
X194750000Y-84849999I0J-249999D01*
G01*
G37*
G04 #@! TD.AperFunction*
G04 #@! TA.AperFunction,SMDPad,CuDef*
G36*
G01*
X196800000Y-84849999D02*
X196800000Y-85750001D01*
G75*
G02*
X196550001Y-86000000I-249999J0D01*
G01*
X195899999Y-86000000D01*
G75*
G02*
X195650000Y-85750001I0J249999D01*
G01*
X195650000Y-84849999D01*
G75*
G02*
X195899999Y-84600000I249999J0D01*
G01*
X196550001Y-84600000D01*
G75*
G02*
X196800000Y-84849999I0J-249999D01*
G01*
G37*
G04 #@! TD.AperFunction*
G04 #@! TA.AperFunction,SMDPad,CuDef*
G36*
G01*
X201150001Y-65100000D02*
X200249999Y-65100000D01*
G75*
G02*
X200000000Y-64850001I0J249999D01*
G01*
X200000000Y-64199999D01*
G75*
G02*
X200249999Y-63950000I249999J0D01*
G01*
X201150001Y-63950000D01*
G75*
G02*
X201400000Y-64199999I0J-249999D01*
G01*
X201400000Y-64850001D01*
G75*
G02*
X201150001Y-65100000I-249999J0D01*
G01*
G37*
G04 #@! TD.AperFunction*
G04 #@! TA.AperFunction,SMDPad,CuDef*
G36*
G01*
X201150001Y-63050000D02*
X200249999Y-63050000D01*
G75*
G02*
X200000000Y-62800001I0J249999D01*
G01*
X200000000Y-62149999D01*
G75*
G02*
X200249999Y-61900000I249999J0D01*
G01*
X201150001Y-61900000D01*
G75*
G02*
X201400000Y-62149999I0J-249999D01*
G01*
X201400000Y-62800001D01*
G75*
G02*
X201150001Y-63050000I-249999J0D01*
G01*
G37*
G04 #@! TD.AperFunction*
G04 #@! TA.AperFunction,SMDPad,CuDef*
G36*
G01*
X141200000Y-130350001D02*
X141200000Y-129449999D01*
G75*
G02*
X141449999Y-129200000I249999J0D01*
G01*
X142100001Y-129200000D01*
G75*
G02*
X142350000Y-129449999I0J-249999D01*
G01*
X142350000Y-130350001D01*
G75*
G02*
X142100001Y-130600000I-249999J0D01*
G01*
X141449999Y-130600000D01*
G75*
G02*
X141200000Y-130350001I0J249999D01*
G01*
G37*
G04 #@! TD.AperFunction*
G04 #@! TA.AperFunction,SMDPad,CuDef*
G36*
G01*
X143250000Y-130350001D02*
X143250000Y-129449999D01*
G75*
G02*
X143499999Y-129200000I249999J0D01*
G01*
X144150001Y-129200000D01*
G75*
G02*
X144400000Y-129449999I0J-249999D01*
G01*
X144400000Y-130350001D01*
G75*
G02*
X144150001Y-130600000I-249999J0D01*
G01*
X143499999Y-130600000D01*
G75*
G02*
X143250000Y-130350001I0J249999D01*
G01*
G37*
G04 #@! TD.AperFunction*
G04 #@! TA.AperFunction,SMDPad,CuDef*
G36*
G01*
X141150000Y-128450001D02*
X141150000Y-127549999D01*
G75*
G02*
X141399999Y-127300000I249999J0D01*
G01*
X142050001Y-127300000D01*
G75*
G02*
X142300000Y-127549999I0J-249999D01*
G01*
X142300000Y-128450001D01*
G75*
G02*
X142050001Y-128700000I-249999J0D01*
G01*
X141399999Y-128700000D01*
G75*
G02*
X141150000Y-128450001I0J249999D01*
G01*
G37*
G04 #@! TD.AperFunction*
G04 #@! TA.AperFunction,SMDPad,CuDef*
G36*
G01*
X143200000Y-128450001D02*
X143200000Y-127549999D01*
G75*
G02*
X143449999Y-127300000I249999J0D01*
G01*
X144100001Y-127300000D01*
G75*
G02*
X144350000Y-127549999I0J-249999D01*
G01*
X144350000Y-128450001D01*
G75*
G02*
X144100001Y-128700000I-249999J0D01*
G01*
X143449999Y-128700000D01*
G75*
G02*
X143200000Y-128450001I0J249999D01*
G01*
G37*
G04 #@! TD.AperFunction*
G04 #@! TA.AperFunction,SMDPad,CuDef*
G36*
G01*
X32299999Y-128300000D02*
X33200001Y-128300000D01*
G75*
G02*
X33450000Y-128549999I0J-249999D01*
G01*
X33450000Y-129200001D01*
G75*
G02*
X33200001Y-129450000I-249999J0D01*
G01*
X32299999Y-129450000D01*
G75*
G02*
X32050000Y-129200001I0J249999D01*
G01*
X32050000Y-128549999D01*
G75*
G02*
X32299999Y-128300000I249999J0D01*
G01*
G37*
G04 #@! TD.AperFunction*
G04 #@! TA.AperFunction,SMDPad,CuDef*
G36*
G01*
X32299999Y-126250000D02*
X33200001Y-126250000D01*
G75*
G02*
X33450000Y-126499999I0J-249999D01*
G01*
X33450000Y-127150001D01*
G75*
G02*
X33200001Y-127400000I-249999J0D01*
G01*
X32299999Y-127400000D01*
G75*
G02*
X32050000Y-127150001I0J249999D01*
G01*
X32050000Y-126499999D01*
G75*
G02*
X32299999Y-126250000I249999J0D01*
G01*
G37*
G04 #@! TD.AperFunction*
G04 #@! TA.AperFunction,SMDPad,CuDef*
G36*
G01*
X40800000Y-124175000D02*
X40800000Y-125425000D01*
G75*
G02*
X40550000Y-125675000I-250000J0D01*
G01*
X39625000Y-125675000D01*
G75*
G02*
X39375000Y-125425000I0J250000D01*
G01*
X39375000Y-124175000D01*
G75*
G02*
X39625000Y-123925000I250000J0D01*
G01*
X40550000Y-123925000D01*
G75*
G02*
X40800000Y-124175000I0J-250000D01*
G01*
G37*
G04 #@! TD.AperFunction*
G04 #@! TA.AperFunction,SMDPad,CuDef*
G36*
G01*
X37825000Y-124175000D02*
X37825000Y-125425000D01*
G75*
G02*
X37575000Y-125675000I-250000J0D01*
G01*
X36650000Y-125675000D01*
G75*
G02*
X36400000Y-125425000I0J250000D01*
G01*
X36400000Y-124175000D01*
G75*
G02*
X36650000Y-123925000I250000J0D01*
G01*
X37575000Y-123925000D01*
G75*
G02*
X37825000Y-124175000I0J-250000D01*
G01*
G37*
G04 #@! TD.AperFunction*
G04 #@! TA.AperFunction,SMDPad,CuDef*
G36*
G01*
X65600000Y-129700001D02*
X65600000Y-128799999D01*
G75*
G02*
X65849999Y-128550000I249999J0D01*
G01*
X66500001Y-128550000D01*
G75*
G02*
X66750000Y-128799999I0J-249999D01*
G01*
X66750000Y-129700001D01*
G75*
G02*
X66500001Y-129950000I-249999J0D01*
G01*
X65849999Y-129950000D01*
G75*
G02*
X65600000Y-129700001I0J249999D01*
G01*
G37*
G04 #@! TD.AperFunction*
G04 #@! TA.AperFunction,SMDPad,CuDef*
G36*
G01*
X67650000Y-129700001D02*
X67650000Y-128799999D01*
G75*
G02*
X67899999Y-128550000I249999J0D01*
G01*
X68550001Y-128550000D01*
G75*
G02*
X68800000Y-128799999I0J-249999D01*
G01*
X68800000Y-129700001D01*
G75*
G02*
X68550001Y-129950000I-249999J0D01*
G01*
X67899999Y-129950000D01*
G75*
G02*
X67650000Y-129700001I0J249999D01*
G01*
G37*
G04 #@! TD.AperFunction*
G04 #@! TA.AperFunction,SMDPad,CuDef*
G36*
G01*
X37825000Y-107325000D02*
X36575000Y-107325000D01*
G75*
G02*
X36325000Y-107075000I0J250000D01*
G01*
X36325000Y-106150000D01*
G75*
G02*
X36575000Y-105900000I250000J0D01*
G01*
X37825000Y-105900000D01*
G75*
G02*
X38075000Y-106150000I0J-250000D01*
G01*
X38075000Y-107075000D01*
G75*
G02*
X37825000Y-107325000I-250000J0D01*
G01*
G37*
G04 #@! TD.AperFunction*
G04 #@! TA.AperFunction,SMDPad,CuDef*
G36*
G01*
X37825000Y-110300000D02*
X36575000Y-110300000D01*
G75*
G02*
X36325000Y-110050000I0J250000D01*
G01*
X36325000Y-109125000D01*
G75*
G02*
X36575000Y-108875000I250000J0D01*
G01*
X37825000Y-108875000D01*
G75*
G02*
X38075000Y-109125000I0J-250000D01*
G01*
X38075000Y-110050000D01*
G75*
G02*
X37825000Y-110300000I-250000J0D01*
G01*
G37*
G04 #@! TD.AperFunction*
G04 #@! TA.AperFunction,SMDPad,CuDef*
G36*
G01*
X166100000Y-96449999D02*
X166100000Y-97350001D01*
G75*
G02*
X165850001Y-97600000I-249999J0D01*
G01*
X165199999Y-97600000D01*
G75*
G02*
X164950000Y-97350001I0J249999D01*
G01*
X164950000Y-96449999D01*
G75*
G02*
X165199999Y-96200000I249999J0D01*
G01*
X165850001Y-96200000D01*
G75*
G02*
X166100000Y-96449999I0J-249999D01*
G01*
G37*
G04 #@! TD.AperFunction*
G04 #@! TA.AperFunction,SMDPad,CuDef*
G36*
G01*
X168150000Y-96449999D02*
X168150000Y-97350001D01*
G75*
G02*
X167900001Y-97600000I-249999J0D01*
G01*
X167249999Y-97600000D01*
G75*
G02*
X167000000Y-97350001I0J249999D01*
G01*
X167000000Y-96449999D01*
G75*
G02*
X167249999Y-96200000I249999J0D01*
G01*
X167900001Y-96200000D01*
G75*
G02*
X168150000Y-96449999I0J-249999D01*
G01*
G37*
G04 #@! TD.AperFunction*
G04 #@! TA.AperFunction,SMDPad,CuDef*
G36*
G01*
X112675000Y-81250001D02*
X112675000Y-76349999D01*
G75*
G02*
X112924999Y-76100000I249999J0D01*
G01*
X114400001Y-76100000D01*
G75*
G02*
X114650000Y-76349999I0J-249999D01*
G01*
X114650000Y-81250001D01*
G75*
G02*
X114400001Y-81500000I-249999J0D01*
G01*
X112924999Y-81500000D01*
G75*
G02*
X112675000Y-81250001I0J249999D01*
G01*
G37*
G04 #@! TD.AperFunction*
G04 #@! TA.AperFunction,SMDPad,CuDef*
G36*
G01*
X117950000Y-81250001D02*
X117950000Y-76349999D01*
G75*
G02*
X118199999Y-76100000I249999J0D01*
G01*
X119675001Y-76100000D01*
G75*
G02*
X119925000Y-76349999I0J-249999D01*
G01*
X119925000Y-81250001D01*
G75*
G02*
X119675001Y-81500000I-249999J0D01*
G01*
X118199999Y-81500000D01*
G75*
G02*
X117950000Y-81250001I0J249999D01*
G01*
G37*
G04 #@! TD.AperFunction*
G04 #@! TA.AperFunction,SMDPad,CuDef*
G36*
G01*
X35100001Y-108400000D02*
X34199999Y-108400000D01*
G75*
G02*
X33950000Y-108150001I0J249999D01*
G01*
X33950000Y-107499999D01*
G75*
G02*
X34199999Y-107250000I249999J0D01*
G01*
X35100001Y-107250000D01*
G75*
G02*
X35350000Y-107499999I0J-249999D01*
G01*
X35350000Y-108150001D01*
G75*
G02*
X35100001Y-108400000I-249999J0D01*
G01*
G37*
G04 #@! TD.AperFunction*
G04 #@! TA.AperFunction,SMDPad,CuDef*
G36*
G01*
X35100001Y-110450000D02*
X34199999Y-110450000D01*
G75*
G02*
X33950000Y-110200001I0J249999D01*
G01*
X33950000Y-109549999D01*
G75*
G02*
X34199999Y-109300000I249999J0D01*
G01*
X35100001Y-109300000D01*
G75*
G02*
X35350000Y-109549999I0J-249999D01*
G01*
X35350000Y-110200001D01*
G75*
G02*
X35100001Y-110450000I-249999J0D01*
G01*
G37*
G04 #@! TD.AperFunction*
G04 #@! TA.AperFunction,SMDPad,CuDef*
G36*
G01*
X23675000Y-111075000D02*
X22425000Y-111075000D01*
G75*
G02*
X22175000Y-110825000I0J250000D01*
G01*
X22175000Y-109900000D01*
G75*
G02*
X22425000Y-109650000I250000J0D01*
G01*
X23675000Y-109650000D01*
G75*
G02*
X23925000Y-109900000I0J-250000D01*
G01*
X23925000Y-110825000D01*
G75*
G02*
X23675000Y-111075000I-250000J0D01*
G01*
G37*
G04 #@! TD.AperFunction*
G04 #@! TA.AperFunction,SMDPad,CuDef*
G36*
G01*
X23675000Y-114050000D02*
X22425000Y-114050000D01*
G75*
G02*
X22175000Y-113800000I0J250000D01*
G01*
X22175000Y-112875000D01*
G75*
G02*
X22425000Y-112625000I250000J0D01*
G01*
X23675000Y-112625000D01*
G75*
G02*
X23925000Y-112875000I0J-250000D01*
G01*
X23925000Y-113800000D01*
G75*
G02*
X23675000Y-114050000I-250000J0D01*
G01*
G37*
G04 #@! TD.AperFunction*
G04 #@! TA.AperFunction,SMDPad,CuDef*
G36*
G01*
X129225000Y-80350000D02*
X129225000Y-83250000D01*
G75*
G02*
X128975000Y-83500000I-250000J0D01*
G01*
X128175000Y-83500000D01*
G75*
G02*
X127925000Y-83250000I0J250000D01*
G01*
X127925000Y-80350000D01*
G75*
G02*
X128175000Y-80100000I250000J0D01*
G01*
X128975000Y-80100000D01*
G75*
G02*
X129225000Y-80350000I0J-250000D01*
G01*
G37*
G04 #@! TD.AperFunction*
G04 #@! TA.AperFunction,SMDPad,CuDef*
G36*
G01*
X124775000Y-80350000D02*
X124775000Y-83250000D01*
G75*
G02*
X124525000Y-83500000I-250000J0D01*
G01*
X123725000Y-83500000D01*
G75*
G02*
X123475000Y-83250000I0J250000D01*
G01*
X123475000Y-80350000D01*
G75*
G02*
X123725000Y-80100000I250000J0D01*
G01*
X124525000Y-80100000D01*
G75*
G02*
X124775000Y-80350000I0J-250000D01*
G01*
G37*
G04 #@! TD.AperFunction*
G04 #@! TA.AperFunction,SMDPad,CuDef*
G36*
G01*
X21125000Y-111025000D02*
X19875000Y-111025000D01*
G75*
G02*
X19625000Y-110775000I0J250000D01*
G01*
X19625000Y-109850000D01*
G75*
G02*
X19875000Y-109600000I250000J0D01*
G01*
X21125000Y-109600000D01*
G75*
G02*
X21375000Y-109850000I0J-250000D01*
G01*
X21375000Y-110775000D01*
G75*
G02*
X21125000Y-111025000I-250000J0D01*
G01*
G37*
G04 #@! TD.AperFunction*
G04 #@! TA.AperFunction,SMDPad,CuDef*
G36*
G01*
X21125000Y-114000000D02*
X19875000Y-114000000D01*
G75*
G02*
X19625000Y-113750000I0J250000D01*
G01*
X19625000Y-112825000D01*
G75*
G02*
X19875000Y-112575000I250000J0D01*
G01*
X21125000Y-112575000D01*
G75*
G02*
X21375000Y-112825000I0J-250000D01*
G01*
X21375000Y-113750000D01*
G75*
G02*
X21125000Y-114000000I-250000J0D01*
G01*
G37*
G04 #@! TD.AperFunction*
G04 #@! TA.AperFunction,SMDPad,CuDef*
G36*
G01*
X134575000Y-76000000D02*
X135825000Y-76000000D01*
G75*
G02*
X136075000Y-76250000I0J-250000D01*
G01*
X136075000Y-77175000D01*
G75*
G02*
X135825000Y-77425000I-250000J0D01*
G01*
X134575000Y-77425000D01*
G75*
G02*
X134325000Y-77175000I0J250000D01*
G01*
X134325000Y-76250000D01*
G75*
G02*
X134575000Y-76000000I250000J0D01*
G01*
G37*
G04 #@! TD.AperFunction*
G04 #@! TA.AperFunction,SMDPad,CuDef*
G36*
G01*
X134575000Y-78975000D02*
X135825000Y-78975000D01*
G75*
G02*
X136075000Y-79225000I0J-250000D01*
G01*
X136075000Y-80150000D01*
G75*
G02*
X135825000Y-80400000I-250000J0D01*
G01*
X134575000Y-80400000D01*
G75*
G02*
X134325000Y-80150000I0J250000D01*
G01*
X134325000Y-79225000D01*
G75*
G02*
X134575000Y-78975000I250000J0D01*
G01*
G37*
G04 #@! TD.AperFunction*
G04 #@! TA.AperFunction,SMDPad,CuDef*
G36*
G01*
X137349999Y-79400000D02*
X138250001Y-79400000D01*
G75*
G02*
X138500000Y-79649999I0J-249999D01*
G01*
X138500000Y-80300001D01*
G75*
G02*
X138250001Y-80550000I-249999J0D01*
G01*
X137349999Y-80550000D01*
G75*
G02*
X137100000Y-80300001I0J249999D01*
G01*
X137100000Y-79649999D01*
G75*
G02*
X137349999Y-79400000I249999J0D01*
G01*
G37*
G04 #@! TD.AperFunction*
G04 #@! TA.AperFunction,SMDPad,CuDef*
G36*
G01*
X137349999Y-77350000D02*
X138250001Y-77350000D01*
G75*
G02*
X138500000Y-77599999I0J-249999D01*
G01*
X138500000Y-78250001D01*
G75*
G02*
X138250001Y-78500000I-249999J0D01*
G01*
X137349999Y-78500000D01*
G75*
G02*
X137100000Y-78250001I0J249999D01*
G01*
X137100000Y-77599999D01*
G75*
G02*
X137349999Y-77350000I249999J0D01*
G01*
G37*
G04 #@! TD.AperFunction*
G04 #@! TA.AperFunction,SMDPad,CuDef*
G36*
G01*
X152475000Y-76400000D02*
X153725000Y-76400000D01*
G75*
G02*
X153975000Y-76650000I0J-250000D01*
G01*
X153975000Y-77575000D01*
G75*
G02*
X153725000Y-77825000I-250000J0D01*
G01*
X152475000Y-77825000D01*
G75*
G02*
X152225000Y-77575000I0J250000D01*
G01*
X152225000Y-76650000D01*
G75*
G02*
X152475000Y-76400000I250000J0D01*
G01*
G37*
G04 #@! TD.AperFunction*
G04 #@! TA.AperFunction,SMDPad,CuDef*
G36*
G01*
X152475000Y-79375000D02*
X153725000Y-79375000D01*
G75*
G02*
X153975000Y-79625000I0J-250000D01*
G01*
X153975000Y-80550000D01*
G75*
G02*
X153725000Y-80800000I-250000J0D01*
G01*
X152475000Y-80800000D01*
G75*
G02*
X152225000Y-80550000I0J250000D01*
G01*
X152225000Y-79625000D01*
G75*
G02*
X152475000Y-79375000I250000J0D01*
G01*
G37*
G04 #@! TD.AperFunction*
G04 #@! TA.AperFunction,SMDPad,CuDef*
G36*
G01*
X149475000Y-76300000D02*
X150725000Y-76300000D01*
G75*
G02*
X150975000Y-76550000I0J-250000D01*
G01*
X150975000Y-77475000D01*
G75*
G02*
X150725000Y-77725000I-250000J0D01*
G01*
X149475000Y-77725000D01*
G75*
G02*
X149225000Y-77475000I0J250000D01*
G01*
X149225000Y-76550000D01*
G75*
G02*
X149475000Y-76300000I250000J0D01*
G01*
G37*
G04 #@! TD.AperFunction*
G04 #@! TA.AperFunction,SMDPad,CuDef*
G36*
G01*
X149475000Y-79275000D02*
X150725000Y-79275000D01*
G75*
G02*
X150975000Y-79525000I0J-250000D01*
G01*
X150975000Y-80450000D01*
G75*
G02*
X150725000Y-80700000I-250000J0D01*
G01*
X149475000Y-80700000D01*
G75*
G02*
X149225000Y-80450000I0J250000D01*
G01*
X149225000Y-79525000D01*
G75*
G02*
X149475000Y-79275000I250000J0D01*
G01*
G37*
G04 #@! TD.AperFunction*
G04 #@! TA.AperFunction,SMDPad,CuDef*
G36*
G01*
X159449999Y-75950000D02*
X160350001Y-75950000D01*
G75*
G02*
X160600000Y-76199999I0J-249999D01*
G01*
X160600000Y-76850001D01*
G75*
G02*
X160350001Y-77100000I-249999J0D01*
G01*
X159449999Y-77100000D01*
G75*
G02*
X159200000Y-76850001I0J249999D01*
G01*
X159200000Y-76199999D01*
G75*
G02*
X159449999Y-75950000I249999J0D01*
G01*
G37*
G04 #@! TD.AperFunction*
G04 #@! TA.AperFunction,SMDPad,CuDef*
G36*
G01*
X159449999Y-78000000D02*
X160350001Y-78000000D01*
G75*
G02*
X160600000Y-78249999I0J-249999D01*
G01*
X160600000Y-78900001D01*
G75*
G02*
X160350001Y-79150000I-249999J0D01*
G01*
X159449999Y-79150000D01*
G75*
G02*
X159200000Y-78900001I0J249999D01*
G01*
X159200000Y-78249999D01*
G75*
G02*
X159449999Y-78000000I249999J0D01*
G01*
G37*
G04 #@! TD.AperFunction*
G04 #@! TA.AperFunction,SMDPad,CuDef*
G36*
G01*
X165049999Y-77800000D02*
X165950001Y-77800000D01*
G75*
G02*
X166200000Y-78049999I0J-249999D01*
G01*
X166200000Y-78700001D01*
G75*
G02*
X165950001Y-78950000I-249999J0D01*
G01*
X165049999Y-78950000D01*
G75*
G02*
X164800000Y-78700001I0J249999D01*
G01*
X164800000Y-78049999D01*
G75*
G02*
X165049999Y-77800000I249999J0D01*
G01*
G37*
G04 #@! TD.AperFunction*
G04 #@! TA.AperFunction,SMDPad,CuDef*
G36*
G01*
X165049999Y-75750000D02*
X165950001Y-75750000D01*
G75*
G02*
X166200000Y-75999999I0J-249999D01*
G01*
X166200000Y-76650001D01*
G75*
G02*
X165950001Y-76900000I-249999J0D01*
G01*
X165049999Y-76900000D01*
G75*
G02*
X164800000Y-76650001I0J249999D01*
G01*
X164800000Y-75999999D01*
G75*
G02*
X165049999Y-75750000I249999J0D01*
G01*
G37*
G04 #@! TD.AperFunction*
G04 #@! TA.AperFunction,SMDPad,CuDef*
G36*
G01*
X75100000Y-97050001D02*
X75100000Y-92149999D01*
G75*
G02*
X75349999Y-91900000I249999J0D01*
G01*
X76825001Y-91900000D01*
G75*
G02*
X77075000Y-92149999I0J-249999D01*
G01*
X77075000Y-97050001D01*
G75*
G02*
X76825001Y-97300000I-249999J0D01*
G01*
X75349999Y-97300000D01*
G75*
G02*
X75100000Y-97050001I0J249999D01*
G01*
G37*
G04 #@! TD.AperFunction*
G04 #@! TA.AperFunction,SMDPad,CuDef*
G36*
G01*
X69825000Y-97050001D02*
X69825000Y-92149999D01*
G75*
G02*
X70074999Y-91900000I249999J0D01*
G01*
X71550001Y-91900000D01*
G75*
G02*
X71800000Y-92149999I0J-249999D01*
G01*
X71800000Y-97050001D01*
G75*
G02*
X71550001Y-97300000I-249999J0D01*
G01*
X70074999Y-97300000D01*
G75*
G02*
X69825000Y-97050001I0J249999D01*
G01*
G37*
G04 #@! TD.AperFunction*
G04 #@! TA.AperFunction,SMDPad,CuDef*
G36*
G01*
X124825000Y-76350000D02*
X124825000Y-79250000D01*
G75*
G02*
X124575000Y-79500000I-250000J0D01*
G01*
X123775000Y-79500000D01*
G75*
G02*
X123525000Y-79250000I0J250000D01*
G01*
X123525000Y-76350000D01*
G75*
G02*
X123775000Y-76100000I250000J0D01*
G01*
X124575000Y-76100000D01*
G75*
G02*
X124825000Y-76350000I0J-250000D01*
G01*
G37*
G04 #@! TD.AperFunction*
G04 #@! TA.AperFunction,SMDPad,CuDef*
G36*
G01*
X129275000Y-76350000D02*
X129275000Y-79250000D01*
G75*
G02*
X129025000Y-79500000I-250000J0D01*
G01*
X128225000Y-79500000D01*
G75*
G02*
X127975000Y-79250000I0J250000D01*
G01*
X127975000Y-76350000D01*
G75*
G02*
X128225000Y-76100000I250000J0D01*
G01*
X129025000Y-76100000D01*
G75*
G02*
X129275000Y-76350000I0J-250000D01*
G01*
G37*
G04 #@! TD.AperFunction*
G04 #@! TA.AperFunction,SMDPad,CuDef*
G36*
G01*
X219750001Y-134300000D02*
X218849999Y-134300000D01*
G75*
G02*
X218600000Y-134050001I0J249999D01*
G01*
X218600000Y-133399999D01*
G75*
G02*
X218849999Y-133150000I249999J0D01*
G01*
X219750001Y-133150000D01*
G75*
G02*
X220000000Y-133399999I0J-249999D01*
G01*
X220000000Y-134050001D01*
G75*
G02*
X219750001Y-134300000I-249999J0D01*
G01*
G37*
G04 #@! TD.AperFunction*
G04 #@! TA.AperFunction,SMDPad,CuDef*
G36*
G01*
X219750001Y-132250000D02*
X218849999Y-132250000D01*
G75*
G02*
X218600000Y-132000001I0J249999D01*
G01*
X218600000Y-131349999D01*
G75*
G02*
X218849999Y-131100000I249999J0D01*
G01*
X219750001Y-131100000D01*
G75*
G02*
X220000000Y-131349999I0J-249999D01*
G01*
X220000000Y-132000001D01*
G75*
G02*
X219750001Y-132250000I-249999J0D01*
G01*
G37*
G04 #@! TD.AperFunction*
G04 #@! TA.AperFunction,SMDPad,CuDef*
G36*
G01*
X186400000Y-57849999D02*
X186400000Y-58750001D01*
G75*
G02*
X186150001Y-59000000I-249999J0D01*
G01*
X185499999Y-59000000D01*
G75*
G02*
X185250000Y-58750001I0J249999D01*
G01*
X185250000Y-57849999D01*
G75*
G02*
X185499999Y-57600000I249999J0D01*
G01*
X186150001Y-57600000D01*
G75*
G02*
X186400000Y-57849999I0J-249999D01*
G01*
G37*
G04 #@! TD.AperFunction*
G04 #@! TA.AperFunction,SMDPad,CuDef*
G36*
G01*
X188450000Y-57849999D02*
X188450000Y-58750001D01*
G75*
G02*
X188200001Y-59000000I-249999J0D01*
G01*
X187549999Y-59000000D01*
G75*
G02*
X187300000Y-58750001I0J249999D01*
G01*
X187300000Y-57849999D01*
G75*
G02*
X187549999Y-57600000I249999J0D01*
G01*
X188200001Y-57600000D01*
G75*
G02*
X188450000Y-57849999I0J-249999D01*
G01*
G37*
G04 #@! TD.AperFunction*
G04 #@! TA.AperFunction,SMDPad,CuDef*
G36*
G01*
X187749999Y-60250000D02*
X188650001Y-60250000D01*
G75*
G02*
X188900000Y-60499999I0J-249999D01*
G01*
X188900000Y-61150001D01*
G75*
G02*
X188650001Y-61400000I-249999J0D01*
G01*
X187749999Y-61400000D01*
G75*
G02*
X187500000Y-61150001I0J249999D01*
G01*
X187500000Y-60499999D01*
G75*
G02*
X187749999Y-60250000I249999J0D01*
G01*
G37*
G04 #@! TD.AperFunction*
G04 #@! TA.AperFunction,SMDPad,CuDef*
G36*
G01*
X187749999Y-62300000D02*
X188650001Y-62300000D01*
G75*
G02*
X188900000Y-62549999I0J-249999D01*
G01*
X188900000Y-63200001D01*
G75*
G02*
X188650001Y-63450000I-249999J0D01*
G01*
X187749999Y-63450000D01*
G75*
G02*
X187500000Y-63200001I0J249999D01*
G01*
X187500000Y-62549999D01*
G75*
G02*
X187749999Y-62300000I249999J0D01*
G01*
G37*
G04 #@! TD.AperFunction*
D31*
X164650000Y-90050000D03*
X164650000Y-88150000D03*
X161650000Y-89100000D03*
G04 #@! TA.AperFunction,SMDPad,CuDef*
G36*
G01*
X64549999Y-59750000D02*
X65450001Y-59750000D01*
G75*
G02*
X65700000Y-59999999I0J-249999D01*
G01*
X65700000Y-60650001D01*
G75*
G02*
X65450001Y-60900000I-249999J0D01*
G01*
X64549999Y-60900000D01*
G75*
G02*
X64300000Y-60650001I0J249999D01*
G01*
X64300000Y-59999999D01*
G75*
G02*
X64549999Y-59750000I249999J0D01*
G01*
G37*
G04 #@! TD.AperFunction*
G04 #@! TA.AperFunction,SMDPad,CuDef*
G36*
G01*
X64549999Y-57700000D02*
X65450001Y-57700000D01*
G75*
G02*
X65700000Y-57949999I0J-249999D01*
G01*
X65700000Y-58600001D01*
G75*
G02*
X65450001Y-58850000I-249999J0D01*
G01*
X64549999Y-58850000D01*
G75*
G02*
X64300000Y-58600001I0J249999D01*
G01*
X64300000Y-57949999D01*
G75*
G02*
X64549999Y-57700000I249999J0D01*
G01*
G37*
G04 #@! TD.AperFunction*
G04 #@! TA.AperFunction,SMDPad,CuDef*
G36*
G01*
X205400000Y-71249999D02*
X205400000Y-72150001D01*
G75*
G02*
X205150001Y-72400000I-249999J0D01*
G01*
X204499999Y-72400000D01*
G75*
G02*
X204250000Y-72150001I0J249999D01*
G01*
X204250000Y-71249999D01*
G75*
G02*
X204499999Y-71000000I249999J0D01*
G01*
X205150001Y-71000000D01*
G75*
G02*
X205400000Y-71249999I0J-249999D01*
G01*
G37*
G04 #@! TD.AperFunction*
G04 #@! TA.AperFunction,SMDPad,CuDef*
G36*
G01*
X203350000Y-71249999D02*
X203350000Y-72150001D01*
G75*
G02*
X203100001Y-72400000I-249999J0D01*
G01*
X202449999Y-72400000D01*
G75*
G02*
X202200000Y-72150001I0J249999D01*
G01*
X202200000Y-71249999D01*
G75*
G02*
X202449999Y-71000000I249999J0D01*
G01*
X203100001Y-71000000D01*
G75*
G02*
X203350000Y-71249999I0J-249999D01*
G01*
G37*
G04 #@! TD.AperFunction*
G04 #@! TA.AperFunction,SMDPad,CuDef*
G36*
G01*
X200450000Y-73349999D02*
X200450000Y-74250001D01*
G75*
G02*
X200200001Y-74500000I-249999J0D01*
G01*
X199549999Y-74500000D01*
G75*
G02*
X199300000Y-74250001I0J249999D01*
G01*
X199300000Y-73349999D01*
G75*
G02*
X199549999Y-73100000I249999J0D01*
G01*
X200200001Y-73100000D01*
G75*
G02*
X200450000Y-73349999I0J-249999D01*
G01*
G37*
G04 #@! TD.AperFunction*
G04 #@! TA.AperFunction,SMDPad,CuDef*
G36*
G01*
X202500000Y-73349999D02*
X202500000Y-74250001D01*
G75*
G02*
X202250001Y-74500000I-249999J0D01*
G01*
X201599999Y-74500000D01*
G75*
G02*
X201350000Y-74250001I0J249999D01*
G01*
X201350000Y-73349999D01*
G75*
G02*
X201599999Y-73100000I249999J0D01*
G01*
X202250001Y-73100000D01*
G75*
G02*
X202500000Y-73349999I0J-249999D01*
G01*
G37*
G04 #@! TD.AperFunction*
G04 #@! TA.AperFunction,SMDPad,CuDef*
G36*
G01*
X199300000Y-76550001D02*
X199300000Y-75649999D01*
G75*
G02*
X199549999Y-75400000I249999J0D01*
G01*
X200200001Y-75400000D01*
G75*
G02*
X200450000Y-75649999I0J-249999D01*
G01*
X200450000Y-76550001D01*
G75*
G02*
X200200001Y-76800000I-249999J0D01*
G01*
X199549999Y-76800000D01*
G75*
G02*
X199300000Y-76550001I0J249999D01*
G01*
G37*
G04 #@! TD.AperFunction*
G04 #@! TA.AperFunction,SMDPad,CuDef*
G36*
G01*
X201350000Y-76550001D02*
X201350000Y-75649999D01*
G75*
G02*
X201599999Y-75400000I249999J0D01*
G01*
X202250001Y-75400000D01*
G75*
G02*
X202500000Y-75649999I0J-249999D01*
G01*
X202500000Y-76550001D01*
G75*
G02*
X202250001Y-76800000I-249999J0D01*
G01*
X201599999Y-76800000D01*
G75*
G02*
X201350000Y-76550001I0J249999D01*
G01*
G37*
G04 #@! TD.AperFunction*
G04 #@! TA.AperFunction,SMDPad,CuDef*
G36*
G01*
X200900000Y-78450001D02*
X200900000Y-77549999D01*
G75*
G02*
X201149999Y-77300000I249999J0D01*
G01*
X201800001Y-77300000D01*
G75*
G02*
X202050000Y-77549999I0J-249999D01*
G01*
X202050000Y-78450001D01*
G75*
G02*
X201800001Y-78700000I-249999J0D01*
G01*
X201149999Y-78700000D01*
G75*
G02*
X200900000Y-78450001I0J249999D01*
G01*
G37*
G04 #@! TD.AperFunction*
G04 #@! TA.AperFunction,SMDPad,CuDef*
G36*
G01*
X202950000Y-78450001D02*
X202950000Y-77549999D01*
G75*
G02*
X203199999Y-77300000I249999J0D01*
G01*
X203850001Y-77300000D01*
G75*
G02*
X204100000Y-77549999I0J-249999D01*
G01*
X204100000Y-78450001D01*
G75*
G02*
X203850001Y-78700000I-249999J0D01*
G01*
X203199999Y-78700000D01*
G75*
G02*
X202950000Y-78450001I0J249999D01*
G01*
G37*
G04 #@! TD.AperFunction*
G04 #@! TA.AperFunction,SMDPad,CuDef*
G36*
G01*
X179250000Y-73950001D02*
X179250000Y-73049999D01*
G75*
G02*
X179499999Y-72800000I249999J0D01*
G01*
X180150001Y-72800000D01*
G75*
G02*
X180400000Y-73049999I0J-249999D01*
G01*
X180400000Y-73950001D01*
G75*
G02*
X180150001Y-74200000I-249999J0D01*
G01*
X179499999Y-74200000D01*
G75*
G02*
X179250000Y-73950001I0J249999D01*
G01*
G37*
G04 #@! TD.AperFunction*
G04 #@! TA.AperFunction,SMDPad,CuDef*
G36*
G01*
X177200000Y-73950001D02*
X177200000Y-73049999D01*
G75*
G02*
X177449999Y-72800000I249999J0D01*
G01*
X178100001Y-72800000D01*
G75*
G02*
X178350000Y-73049999I0J-249999D01*
G01*
X178350000Y-73950001D01*
G75*
G02*
X178100001Y-74200000I-249999J0D01*
G01*
X177449999Y-74200000D01*
G75*
G02*
X177200000Y-73950001I0J249999D01*
G01*
G37*
G04 #@! TD.AperFunction*
G04 #@! TA.AperFunction,SMDPad,CuDef*
G36*
G01*
X180400000Y-78249999D02*
X180400000Y-79150001D01*
G75*
G02*
X180150001Y-79400000I-249999J0D01*
G01*
X179499999Y-79400000D01*
G75*
G02*
X179250000Y-79150001I0J249999D01*
G01*
X179250000Y-78249999D01*
G75*
G02*
X179499999Y-78000000I249999J0D01*
G01*
X180150001Y-78000000D01*
G75*
G02*
X180400000Y-78249999I0J-249999D01*
G01*
G37*
G04 #@! TD.AperFunction*
G04 #@! TA.AperFunction,SMDPad,CuDef*
G36*
G01*
X178350000Y-78249999D02*
X178350000Y-79150001D01*
G75*
G02*
X178100001Y-79400000I-249999J0D01*
G01*
X177449999Y-79400000D01*
G75*
G02*
X177200000Y-79150001I0J249999D01*
G01*
X177200000Y-78249999D01*
G75*
G02*
X177449999Y-78000000I249999J0D01*
G01*
X178100001Y-78000000D01*
G75*
G02*
X178350000Y-78249999I0J-249999D01*
G01*
G37*
G04 #@! TD.AperFunction*
G04 #@! TA.AperFunction,SMDPad,CuDef*
G36*
G01*
X178300000Y-80549999D02*
X178300000Y-81450001D01*
G75*
G02*
X178050001Y-81700000I-249999J0D01*
G01*
X177399999Y-81700000D01*
G75*
G02*
X177150000Y-81450001I0J249999D01*
G01*
X177150000Y-80549999D01*
G75*
G02*
X177399999Y-80300000I249999J0D01*
G01*
X178050001Y-80300000D01*
G75*
G02*
X178300000Y-80549999I0J-249999D01*
G01*
G37*
G04 #@! TD.AperFunction*
G04 #@! TA.AperFunction,SMDPad,CuDef*
G36*
G01*
X180350000Y-80549999D02*
X180350000Y-81450001D01*
G75*
G02*
X180100001Y-81700000I-249999J0D01*
G01*
X179449999Y-81700000D01*
G75*
G02*
X179200000Y-81450001I0J249999D01*
G01*
X179200000Y-80549999D01*
G75*
G02*
X179449999Y-80300000I249999J0D01*
G01*
X180100001Y-80300000D01*
G75*
G02*
X180350000Y-80549999I0J-249999D01*
G01*
G37*
G04 #@! TD.AperFunction*
G04 #@! TA.AperFunction,SMDPad,CuDef*
G36*
G01*
X182750000Y-85449999D02*
X182750000Y-86350001D01*
G75*
G02*
X182500001Y-86600000I-249999J0D01*
G01*
X181849999Y-86600000D01*
G75*
G02*
X181600000Y-86350001I0J249999D01*
G01*
X181600000Y-85449999D01*
G75*
G02*
X181849999Y-85200000I249999J0D01*
G01*
X182500001Y-85200000D01*
G75*
G02*
X182750000Y-85449999I0J-249999D01*
G01*
G37*
G04 #@! TD.AperFunction*
G04 #@! TA.AperFunction,SMDPad,CuDef*
G36*
G01*
X184800000Y-85449999D02*
X184800000Y-86350001D01*
G75*
G02*
X184550001Y-86600000I-249999J0D01*
G01*
X183899999Y-86600000D01*
G75*
G02*
X183650000Y-86350001I0J249999D01*
G01*
X183650000Y-85449999D01*
G75*
G02*
X183899999Y-85200000I249999J0D01*
G01*
X184550001Y-85200000D01*
G75*
G02*
X184800000Y-85449999I0J-249999D01*
G01*
G37*
G04 #@! TD.AperFunction*
G04 #@! TA.AperFunction,SMDPad,CuDef*
G36*
G01*
X185050001Y-93000000D02*
X184149999Y-93000000D01*
G75*
G02*
X183900000Y-92750001I0J249999D01*
G01*
X183900000Y-92099999D01*
G75*
G02*
X184149999Y-91850000I249999J0D01*
G01*
X185050001Y-91850000D01*
G75*
G02*
X185300000Y-92099999I0J-249999D01*
G01*
X185300000Y-92750001D01*
G75*
G02*
X185050001Y-93000000I-249999J0D01*
G01*
G37*
G04 #@! TD.AperFunction*
G04 #@! TA.AperFunction,SMDPad,CuDef*
G36*
G01*
X185050001Y-90950000D02*
X184149999Y-90950000D01*
G75*
G02*
X183900000Y-90700001I0J249999D01*
G01*
X183900000Y-90049999D01*
G75*
G02*
X184149999Y-89800000I249999J0D01*
G01*
X185050001Y-89800000D01*
G75*
G02*
X185300000Y-90049999I0J-249999D01*
G01*
X185300000Y-90700001D01*
G75*
G02*
X185050001Y-90950000I-249999J0D01*
G01*
G37*
G04 #@! TD.AperFunction*
G04 #@! TA.AperFunction,SMDPad,CuDef*
G36*
G01*
X183600000Y-88250001D02*
X183600000Y-87349999D01*
G75*
G02*
X183849999Y-87100000I249999J0D01*
G01*
X184500001Y-87100000D01*
G75*
G02*
X184750000Y-87349999I0J-249999D01*
G01*
X184750000Y-88250001D01*
G75*
G02*
X184500001Y-88500000I-249999J0D01*
G01*
X183849999Y-88500000D01*
G75*
G02*
X183600000Y-88250001I0J249999D01*
G01*
G37*
G04 #@! TD.AperFunction*
G04 #@! TA.AperFunction,SMDPad,CuDef*
G36*
G01*
X181550000Y-88250001D02*
X181550000Y-87349999D01*
G75*
G02*
X181799999Y-87100000I249999J0D01*
G01*
X182450001Y-87100000D01*
G75*
G02*
X182700000Y-87349999I0J-249999D01*
G01*
X182700000Y-88250001D01*
G75*
G02*
X182450001Y-88500000I-249999J0D01*
G01*
X181799999Y-88500000D01*
G75*
G02*
X181550000Y-88250001I0J249999D01*
G01*
G37*
G04 #@! TD.AperFunction*
G04 #@! TA.AperFunction,SMDPad,CuDef*
G36*
G01*
X186349999Y-77800000D02*
X187250001Y-77800000D01*
G75*
G02*
X187500000Y-78049999I0J-249999D01*
G01*
X187500000Y-78700001D01*
G75*
G02*
X187250001Y-78950000I-249999J0D01*
G01*
X186349999Y-78950000D01*
G75*
G02*
X186100000Y-78700001I0J249999D01*
G01*
X186100000Y-78049999D01*
G75*
G02*
X186349999Y-77800000I249999J0D01*
G01*
G37*
G04 #@! TD.AperFunction*
G04 #@! TA.AperFunction,SMDPad,CuDef*
G36*
G01*
X186349999Y-79850000D02*
X187250001Y-79850000D01*
G75*
G02*
X187500000Y-80099999I0J-249999D01*
G01*
X187500000Y-80750001D01*
G75*
G02*
X187250001Y-81000000I-249999J0D01*
G01*
X186349999Y-81000000D01*
G75*
G02*
X186100000Y-80750001I0J249999D01*
G01*
X186100000Y-80099999D01*
G75*
G02*
X186349999Y-79850000I249999J0D01*
G01*
G37*
G04 #@! TD.AperFunction*
G04 #@! TA.AperFunction,SMDPad,CuDef*
G36*
G01*
X202450000Y-66249999D02*
X202450000Y-67150001D01*
G75*
G02*
X202200001Y-67400000I-249999J0D01*
G01*
X201549999Y-67400000D01*
G75*
G02*
X201300000Y-67150001I0J249999D01*
G01*
X201300000Y-66249999D01*
G75*
G02*
X201549999Y-66000000I249999J0D01*
G01*
X202200001Y-66000000D01*
G75*
G02*
X202450000Y-66249999I0J-249999D01*
G01*
G37*
G04 #@! TD.AperFunction*
G04 #@! TA.AperFunction,SMDPad,CuDef*
G36*
G01*
X204500000Y-66249999D02*
X204500000Y-67150001D01*
G75*
G02*
X204250001Y-67400000I-249999J0D01*
G01*
X203599999Y-67400000D01*
G75*
G02*
X203350000Y-67150001I0J249999D01*
G01*
X203350000Y-66249999D01*
G75*
G02*
X203599999Y-66000000I249999J0D01*
G01*
X204250001Y-66000000D01*
G75*
G02*
X204500000Y-66249999I0J-249999D01*
G01*
G37*
G04 #@! TD.AperFunction*
G04 #@! TA.AperFunction,SMDPad,CuDef*
G36*
G01*
X181725000Y-35275000D02*
X183875000Y-35275000D01*
G75*
G02*
X184125000Y-35525000I0J-250000D01*
G01*
X184125000Y-36450000D01*
G75*
G02*
X183875000Y-36700000I-250000J0D01*
G01*
X181725000Y-36700000D01*
G75*
G02*
X181475000Y-36450000I0J250000D01*
G01*
X181475000Y-35525000D01*
G75*
G02*
X181725000Y-35275000I250000J0D01*
G01*
G37*
G04 #@! TD.AperFunction*
G04 #@! TA.AperFunction,SMDPad,CuDef*
G36*
G01*
X181725000Y-32300000D02*
X183875000Y-32300000D01*
G75*
G02*
X184125000Y-32550000I0J-250000D01*
G01*
X184125000Y-33475000D01*
G75*
G02*
X183875000Y-33725000I-250000J0D01*
G01*
X181725000Y-33725000D01*
G75*
G02*
X181475000Y-33475000I0J250000D01*
G01*
X181475000Y-32550000D01*
G75*
G02*
X181725000Y-32300000I250000J0D01*
G01*
G37*
G04 #@! TD.AperFunction*
G04 #@! TA.AperFunction,SMDPad,CuDef*
G36*
G01*
X164400000Y-66450001D02*
X164400000Y-65549999D01*
G75*
G02*
X164649999Y-65300000I249999J0D01*
G01*
X165300001Y-65300000D01*
G75*
G02*
X165550000Y-65549999I0J-249999D01*
G01*
X165550000Y-66450001D01*
G75*
G02*
X165300001Y-66700000I-249999J0D01*
G01*
X164649999Y-66700000D01*
G75*
G02*
X164400000Y-66450001I0J249999D01*
G01*
G37*
G04 #@! TD.AperFunction*
G04 #@! TA.AperFunction,SMDPad,CuDef*
G36*
G01*
X162350000Y-66450001D02*
X162350000Y-65549999D01*
G75*
G02*
X162599999Y-65300000I249999J0D01*
G01*
X163250001Y-65300000D01*
G75*
G02*
X163500000Y-65549999I0J-249999D01*
G01*
X163500000Y-66450001D01*
G75*
G02*
X163250001Y-66700000I-249999J0D01*
G01*
X162599999Y-66700000D01*
G75*
G02*
X162350000Y-66450001I0J249999D01*
G01*
G37*
G04 #@! TD.AperFunction*
G04 #@! TA.AperFunction,SMDPad,CuDef*
G36*
G01*
X195650000Y-83750001D02*
X195650000Y-82849999D01*
G75*
G02*
X195899999Y-82600000I249999J0D01*
G01*
X196550001Y-82600000D01*
G75*
G02*
X196800000Y-82849999I0J-249999D01*
G01*
X196800000Y-83750001D01*
G75*
G02*
X196550001Y-84000000I-249999J0D01*
G01*
X195899999Y-84000000D01*
G75*
G02*
X195650000Y-83750001I0J249999D01*
G01*
G37*
G04 #@! TD.AperFunction*
G04 #@! TA.AperFunction,SMDPad,CuDef*
G36*
G01*
X193600000Y-83750001D02*
X193600000Y-82849999D01*
G75*
G02*
X193849999Y-82600000I249999J0D01*
G01*
X194500001Y-82600000D01*
G75*
G02*
X194750000Y-82849999I0J-249999D01*
G01*
X194750000Y-83750001D01*
G75*
G02*
X194500001Y-84000000I-249999J0D01*
G01*
X193849999Y-84000000D01*
G75*
G02*
X193600000Y-83750001I0J249999D01*
G01*
G37*
G04 #@! TD.AperFunction*
G04 #@! TA.AperFunction,SMDPad,CuDef*
G36*
G01*
X193400000Y-88000001D02*
X193400000Y-87099999D01*
G75*
G02*
X193649999Y-86850000I249999J0D01*
G01*
X194300001Y-86850000D01*
G75*
G02*
X194550000Y-87099999I0J-249999D01*
G01*
X194550000Y-88000001D01*
G75*
G02*
X194300001Y-88250000I-249999J0D01*
G01*
X193649999Y-88250000D01*
G75*
G02*
X193400000Y-88000001I0J249999D01*
G01*
G37*
G04 #@! TD.AperFunction*
G04 #@! TA.AperFunction,SMDPad,CuDef*
G36*
G01*
X195450000Y-88000001D02*
X195450000Y-87099999D01*
G75*
G02*
X195699999Y-86850000I249999J0D01*
G01*
X196350001Y-86850000D01*
G75*
G02*
X196600000Y-87099999I0J-249999D01*
G01*
X196600000Y-88000001D01*
G75*
G02*
X196350001Y-88250000I-249999J0D01*
G01*
X195699999Y-88250000D01*
G75*
G02*
X195450000Y-88000001I0J249999D01*
G01*
G37*
G04 #@! TD.AperFunction*
G04 #@! TA.AperFunction,SMDPad,CuDef*
G36*
G01*
X201050000Y-83750001D02*
X201050000Y-82849999D01*
G75*
G02*
X201299999Y-82600000I249999J0D01*
G01*
X201950001Y-82600000D01*
G75*
G02*
X202200000Y-82849999I0J-249999D01*
G01*
X202200000Y-83750001D01*
G75*
G02*
X201950001Y-84000000I-249999J0D01*
G01*
X201299999Y-84000000D01*
G75*
G02*
X201050000Y-83750001I0J249999D01*
G01*
G37*
G04 #@! TD.AperFunction*
G04 #@! TA.AperFunction,SMDPad,CuDef*
G36*
G01*
X199000000Y-83750001D02*
X199000000Y-82849999D01*
G75*
G02*
X199249999Y-82600000I249999J0D01*
G01*
X199900001Y-82600000D01*
G75*
G02*
X200150000Y-82849999I0J-249999D01*
G01*
X200150000Y-83750001D01*
G75*
G02*
X199900001Y-84000000I-249999J0D01*
G01*
X199249999Y-84000000D01*
G75*
G02*
X199000000Y-83750001I0J249999D01*
G01*
G37*
G04 #@! TD.AperFunction*
G04 #@! TA.AperFunction,SMDPad,CuDef*
G36*
G01*
X280175000Y-70550000D02*
X278025000Y-70550000D01*
G75*
G02*
X277775000Y-70300000I0J250000D01*
G01*
X277775000Y-69375000D01*
G75*
G02*
X278025000Y-69125000I250000J0D01*
G01*
X280175000Y-69125000D01*
G75*
G02*
X280425000Y-69375000I0J-250000D01*
G01*
X280425000Y-70300000D01*
G75*
G02*
X280175000Y-70550000I-250000J0D01*
G01*
G37*
G04 #@! TD.AperFunction*
G04 #@! TA.AperFunction,SMDPad,CuDef*
G36*
G01*
X280175000Y-67575000D02*
X278025000Y-67575000D01*
G75*
G02*
X277775000Y-67325000I0J250000D01*
G01*
X277775000Y-66400000D01*
G75*
G02*
X278025000Y-66150000I250000J0D01*
G01*
X280175000Y-66150000D01*
G75*
G02*
X280425000Y-66400000I0J-250000D01*
G01*
X280425000Y-67325000D01*
G75*
G02*
X280175000Y-67575000I-250000J0D01*
G01*
G37*
G04 #@! TD.AperFunction*
G04 #@! TA.AperFunction,SMDPad,CuDef*
G36*
G01*
X100499999Y-80350000D02*
X101400001Y-80350000D01*
G75*
G02*
X101650000Y-80599999I0J-249999D01*
G01*
X101650000Y-81250001D01*
G75*
G02*
X101400001Y-81500000I-249999J0D01*
G01*
X100499999Y-81500000D01*
G75*
G02*
X100250000Y-81250001I0J249999D01*
G01*
X100250000Y-80599999D01*
G75*
G02*
X100499999Y-80350000I249999J0D01*
G01*
G37*
G04 #@! TD.AperFunction*
G04 #@! TA.AperFunction,SMDPad,CuDef*
G36*
G01*
X100499999Y-78300000D02*
X101400001Y-78300000D01*
G75*
G02*
X101650000Y-78549999I0J-249999D01*
G01*
X101650000Y-79200001D01*
G75*
G02*
X101400001Y-79450000I-249999J0D01*
G01*
X100499999Y-79450000D01*
G75*
G02*
X100250000Y-79200001I0J249999D01*
G01*
X100250000Y-78549999D01*
G75*
G02*
X100499999Y-78300000I249999J0D01*
G01*
G37*
G04 #@! TD.AperFunction*
G04 #@! TA.AperFunction,SMDPad,CuDef*
G36*
G01*
X100549999Y-82550000D02*
X101450001Y-82550000D01*
G75*
G02*
X101700000Y-82799999I0J-249999D01*
G01*
X101700000Y-83450001D01*
G75*
G02*
X101450001Y-83700000I-249999J0D01*
G01*
X100549999Y-83700000D01*
G75*
G02*
X100300000Y-83450001I0J249999D01*
G01*
X100300000Y-82799999D01*
G75*
G02*
X100549999Y-82550000I249999J0D01*
G01*
G37*
G04 #@! TD.AperFunction*
G04 #@! TA.AperFunction,SMDPad,CuDef*
G36*
G01*
X100549999Y-84600000D02*
X101450001Y-84600000D01*
G75*
G02*
X101700000Y-84849999I0J-249999D01*
G01*
X101700000Y-85500001D01*
G75*
G02*
X101450001Y-85750000I-249999J0D01*
G01*
X100549999Y-85750000D01*
G75*
G02*
X100300000Y-85500001I0J249999D01*
G01*
X100300000Y-84849999D01*
G75*
G02*
X100549999Y-84600000I249999J0D01*
G01*
G37*
G04 #@! TD.AperFunction*
G04 #@! TA.AperFunction,SMDPad,CuDef*
G36*
G01*
X151999999Y-139800000D02*
X152900001Y-139800000D01*
G75*
G02*
X153150000Y-140049999I0J-249999D01*
G01*
X153150000Y-140700001D01*
G75*
G02*
X152900001Y-140950000I-249999J0D01*
G01*
X151999999Y-140950000D01*
G75*
G02*
X151750000Y-140700001I0J249999D01*
G01*
X151750000Y-140049999D01*
G75*
G02*
X151999999Y-139800000I249999J0D01*
G01*
G37*
G04 #@! TD.AperFunction*
G04 #@! TA.AperFunction,SMDPad,CuDef*
G36*
G01*
X151999999Y-141850000D02*
X152900001Y-141850000D01*
G75*
G02*
X153150000Y-142099999I0J-249999D01*
G01*
X153150000Y-142750001D01*
G75*
G02*
X152900001Y-143000000I-249999J0D01*
G01*
X151999999Y-143000000D01*
G75*
G02*
X151750000Y-142750001I0J249999D01*
G01*
X151750000Y-142099999D01*
G75*
G02*
X151999999Y-141850000I249999J0D01*
G01*
G37*
G04 #@! TD.AperFunction*
G04 #@! TA.AperFunction,SMDPad,CuDef*
G36*
G01*
X103800000Y-149049999D02*
X103800000Y-149950001D01*
G75*
G02*
X103550001Y-150200000I-249999J0D01*
G01*
X102899999Y-150200000D01*
G75*
G02*
X102650000Y-149950001I0J249999D01*
G01*
X102650000Y-149049999D01*
G75*
G02*
X102899999Y-148800000I249999J0D01*
G01*
X103550001Y-148800000D01*
G75*
G02*
X103800000Y-149049999I0J-249999D01*
G01*
G37*
G04 #@! TD.AperFunction*
G04 #@! TA.AperFunction,SMDPad,CuDef*
G36*
G01*
X105850000Y-149049999D02*
X105850000Y-149950001D01*
G75*
G02*
X105600001Y-150200000I-249999J0D01*
G01*
X104949999Y-150200000D01*
G75*
G02*
X104700000Y-149950001I0J249999D01*
G01*
X104700000Y-149049999D01*
G75*
G02*
X104949999Y-148800000I249999J0D01*
G01*
X105600001Y-148800000D01*
G75*
G02*
X105850000Y-149049999I0J-249999D01*
G01*
G37*
G04 #@! TD.AperFunction*
G04 #@! TA.AperFunction,SMDPad,CuDef*
G36*
G01*
X157199999Y-134150000D02*
X158100001Y-134150000D01*
G75*
G02*
X158350000Y-134399999I0J-249999D01*
G01*
X158350000Y-135050001D01*
G75*
G02*
X158100001Y-135300000I-249999J0D01*
G01*
X157199999Y-135300000D01*
G75*
G02*
X156950000Y-135050001I0J249999D01*
G01*
X156950000Y-134399999D01*
G75*
G02*
X157199999Y-134150000I249999J0D01*
G01*
G37*
G04 #@! TD.AperFunction*
G04 #@! TA.AperFunction,SMDPad,CuDef*
G36*
G01*
X157199999Y-136200000D02*
X158100001Y-136200000D01*
G75*
G02*
X158350000Y-136449999I0J-249999D01*
G01*
X158350000Y-137100001D01*
G75*
G02*
X158100001Y-137350000I-249999J0D01*
G01*
X157199999Y-137350000D01*
G75*
G02*
X156950000Y-137100001I0J249999D01*
G01*
X156950000Y-136449999D01*
G75*
G02*
X157199999Y-136200000I249999J0D01*
G01*
G37*
G04 #@! TD.AperFunction*
G04 #@! TA.AperFunction,SMDPad,CuDef*
G36*
G01*
X139500000Y-125399999D02*
X139500000Y-126300001D01*
G75*
G02*
X139250001Y-126550000I-249999J0D01*
G01*
X138599999Y-126550000D01*
G75*
G02*
X138350000Y-126300001I0J249999D01*
G01*
X138350000Y-125399999D01*
G75*
G02*
X138599999Y-125150000I249999J0D01*
G01*
X139250001Y-125150000D01*
G75*
G02*
X139500000Y-125399999I0J-249999D01*
G01*
G37*
G04 #@! TD.AperFunction*
G04 #@! TA.AperFunction,SMDPad,CuDef*
G36*
G01*
X141550000Y-125399999D02*
X141550000Y-126300001D01*
G75*
G02*
X141300001Y-126550000I-249999J0D01*
G01*
X140649999Y-126550000D01*
G75*
G02*
X140400000Y-126300001I0J249999D01*
G01*
X140400000Y-125399999D01*
G75*
G02*
X140649999Y-125150000I249999J0D01*
G01*
X141300001Y-125150000D01*
G75*
G02*
X141550000Y-125399999I0J-249999D01*
G01*
G37*
G04 #@! TD.AperFunction*
G04 #@! TA.AperFunction,SMDPad,CuDef*
G36*
G01*
X38650000Y-132700001D02*
X38650000Y-131799999D01*
G75*
G02*
X38899999Y-131550000I249999J0D01*
G01*
X39550001Y-131550000D01*
G75*
G02*
X39800000Y-131799999I0J-249999D01*
G01*
X39800000Y-132700001D01*
G75*
G02*
X39550001Y-132950000I-249999J0D01*
G01*
X38899999Y-132950000D01*
G75*
G02*
X38650000Y-132700001I0J249999D01*
G01*
G37*
G04 #@! TD.AperFunction*
G04 #@! TA.AperFunction,SMDPad,CuDef*
G36*
G01*
X40700000Y-132700001D02*
X40700000Y-131799999D01*
G75*
G02*
X40949999Y-131550000I249999J0D01*
G01*
X41600001Y-131550000D01*
G75*
G02*
X41850000Y-131799999I0J-249999D01*
G01*
X41850000Y-132700001D01*
G75*
G02*
X41600001Y-132950000I-249999J0D01*
G01*
X40949999Y-132950000D01*
G75*
G02*
X40700000Y-132700001I0J249999D01*
G01*
G37*
G04 #@! TD.AperFunction*
G04 #@! TA.AperFunction,SMDPad,CuDef*
G36*
G01*
X34600000Y-123000001D02*
X34600000Y-122099999D01*
G75*
G02*
X34849999Y-121850000I249999J0D01*
G01*
X35500001Y-121850000D01*
G75*
G02*
X35750000Y-122099999I0J-249999D01*
G01*
X35750000Y-123000001D01*
G75*
G02*
X35500001Y-123250000I-249999J0D01*
G01*
X34849999Y-123250000D01*
G75*
G02*
X34600000Y-123000001I0J249999D01*
G01*
G37*
G04 #@! TD.AperFunction*
G04 #@! TA.AperFunction,SMDPad,CuDef*
G36*
G01*
X32550000Y-123000001D02*
X32550000Y-122099999D01*
G75*
G02*
X32799999Y-121850000I249999J0D01*
G01*
X33450001Y-121850000D01*
G75*
G02*
X33700000Y-122099999I0J-249999D01*
G01*
X33700000Y-123000001D01*
G75*
G02*
X33450001Y-123250000I-249999J0D01*
G01*
X32799999Y-123250000D01*
G75*
G02*
X32550000Y-123000001I0J249999D01*
G01*
G37*
G04 #@! TD.AperFunction*
G04 #@! TA.AperFunction,SMDPad,CuDef*
G36*
G01*
X160499999Y-94000000D02*
X161400001Y-94000000D01*
G75*
G02*
X161650000Y-94249999I0J-249999D01*
G01*
X161650000Y-94900001D01*
G75*
G02*
X161400001Y-95150000I-249999J0D01*
G01*
X160499999Y-95150000D01*
G75*
G02*
X160250000Y-94900001I0J249999D01*
G01*
X160250000Y-94249999D01*
G75*
G02*
X160499999Y-94000000I249999J0D01*
G01*
G37*
G04 #@! TD.AperFunction*
G04 #@! TA.AperFunction,SMDPad,CuDef*
G36*
G01*
X160499999Y-96050000D02*
X161400001Y-96050000D01*
G75*
G02*
X161650000Y-96299999I0J-249999D01*
G01*
X161650000Y-96950001D01*
G75*
G02*
X161400001Y-97200000I-249999J0D01*
G01*
X160499999Y-97200000D01*
G75*
G02*
X160250000Y-96950001I0J249999D01*
G01*
X160250000Y-96299999D01*
G75*
G02*
X160499999Y-96050000I249999J0D01*
G01*
G37*
G04 #@! TD.AperFunction*
G04 #@! TA.AperFunction,SMDPad,CuDef*
G36*
G01*
X156849999Y-94000000D02*
X157750001Y-94000000D01*
G75*
G02*
X158000000Y-94249999I0J-249999D01*
G01*
X158000000Y-94900001D01*
G75*
G02*
X157750001Y-95150000I-249999J0D01*
G01*
X156849999Y-95150000D01*
G75*
G02*
X156600000Y-94900001I0J249999D01*
G01*
X156600000Y-94249999D01*
G75*
G02*
X156849999Y-94000000I249999J0D01*
G01*
G37*
G04 #@! TD.AperFunction*
G04 #@! TA.AperFunction,SMDPad,CuDef*
G36*
G01*
X156849999Y-96050000D02*
X157750001Y-96050000D01*
G75*
G02*
X158000000Y-96299999I0J-249999D01*
G01*
X158000000Y-96950001D01*
G75*
G02*
X157750001Y-97200000I-249999J0D01*
G01*
X156849999Y-97200000D01*
G75*
G02*
X156600000Y-96950001I0J249999D01*
G01*
X156600000Y-96299999D01*
G75*
G02*
X156849999Y-96050000I249999J0D01*
G01*
G37*
G04 #@! TD.AperFunction*
G04 #@! TA.AperFunction,SMDPad,CuDef*
G36*
G01*
X66400001Y-124950000D02*
X65499999Y-124950000D01*
G75*
G02*
X65250000Y-124700001I0J249999D01*
G01*
X65250000Y-124049999D01*
G75*
G02*
X65499999Y-123800000I249999J0D01*
G01*
X66400001Y-123800000D01*
G75*
G02*
X66650000Y-124049999I0J-249999D01*
G01*
X66650000Y-124700001D01*
G75*
G02*
X66400001Y-124950000I-249999J0D01*
G01*
G37*
G04 #@! TD.AperFunction*
G04 #@! TA.AperFunction,SMDPad,CuDef*
G36*
G01*
X66400001Y-122900000D02*
X65499999Y-122900000D01*
G75*
G02*
X65250000Y-122650001I0J249999D01*
G01*
X65250000Y-121999999D01*
G75*
G02*
X65499999Y-121750000I249999J0D01*
G01*
X66400001Y-121750000D01*
G75*
G02*
X66650000Y-121999999I0J-249999D01*
G01*
X66650000Y-122650001D01*
G75*
G02*
X66400001Y-122900000I-249999J0D01*
G01*
G37*
G04 #@! TD.AperFunction*
G04 #@! TA.AperFunction,SMDPad,CuDef*
G36*
G01*
X89950000Y-86549999D02*
X89950000Y-87450001D01*
G75*
G02*
X89700001Y-87700000I-249999J0D01*
G01*
X89049999Y-87700000D01*
G75*
G02*
X88800000Y-87450001I0J249999D01*
G01*
X88800000Y-86549999D01*
G75*
G02*
X89049999Y-86300000I249999J0D01*
G01*
X89700001Y-86300000D01*
G75*
G02*
X89950000Y-86549999I0J-249999D01*
G01*
G37*
G04 #@! TD.AperFunction*
G04 #@! TA.AperFunction,SMDPad,CuDef*
G36*
G01*
X87900000Y-86549999D02*
X87900000Y-87450001D01*
G75*
G02*
X87650001Y-87700000I-249999J0D01*
G01*
X86999999Y-87700000D01*
G75*
G02*
X86750000Y-87450001I0J249999D01*
G01*
X86750000Y-86549999D01*
G75*
G02*
X86999999Y-86300000I249999J0D01*
G01*
X87650001Y-86300000D01*
G75*
G02*
X87900000Y-86549999I0J-249999D01*
G01*
G37*
G04 #@! TD.AperFunction*
G04 #@! TA.AperFunction,SMDPad,CuDef*
G36*
G01*
X87900000Y-81549999D02*
X87900000Y-82450001D01*
G75*
G02*
X87650001Y-82700000I-249999J0D01*
G01*
X86999999Y-82700000D01*
G75*
G02*
X86750000Y-82450001I0J249999D01*
G01*
X86750000Y-81549999D01*
G75*
G02*
X86999999Y-81300000I249999J0D01*
G01*
X87650001Y-81300000D01*
G75*
G02*
X87900000Y-81549999I0J-249999D01*
G01*
G37*
G04 #@! TD.AperFunction*
G04 #@! TA.AperFunction,SMDPad,CuDef*
G36*
G01*
X89950000Y-81549999D02*
X89950000Y-82450001D01*
G75*
G02*
X89700001Y-82700000I-249999J0D01*
G01*
X89049999Y-82700000D01*
G75*
G02*
X88800000Y-82450001I0J249999D01*
G01*
X88800000Y-81549999D01*
G75*
G02*
X89049999Y-81300000I249999J0D01*
G01*
X89700001Y-81300000D01*
G75*
G02*
X89950000Y-81549999I0J-249999D01*
G01*
G37*
G04 #@! TD.AperFunction*
G04 #@! TA.AperFunction,SMDPad,CuDef*
G36*
G01*
X20150000Y-107550001D02*
X20150000Y-106649999D01*
G75*
G02*
X20399999Y-106400000I249999J0D01*
G01*
X21050001Y-106400000D01*
G75*
G02*
X21300000Y-106649999I0J-249999D01*
G01*
X21300000Y-107550001D01*
G75*
G02*
X21050001Y-107800000I-249999J0D01*
G01*
X20399999Y-107800000D01*
G75*
G02*
X20150000Y-107550001I0J249999D01*
G01*
G37*
G04 #@! TD.AperFunction*
G04 #@! TA.AperFunction,SMDPad,CuDef*
G36*
G01*
X22200000Y-107550001D02*
X22200000Y-106649999D01*
G75*
G02*
X22449999Y-106400000I249999J0D01*
G01*
X23100001Y-106400000D01*
G75*
G02*
X23350000Y-106649999I0J-249999D01*
G01*
X23350000Y-107550001D01*
G75*
G02*
X23100001Y-107800000I-249999J0D01*
G01*
X22449999Y-107800000D01*
G75*
G02*
X22200000Y-107550001I0J249999D01*
G01*
G37*
G04 #@! TD.AperFunction*
G04 #@! TA.AperFunction,SMDPad,CuDef*
G36*
G01*
X25949999Y-108900000D02*
X26850001Y-108900000D01*
G75*
G02*
X27100000Y-109149999I0J-249999D01*
G01*
X27100000Y-109800001D01*
G75*
G02*
X26850001Y-110050000I-249999J0D01*
G01*
X25949999Y-110050000D01*
G75*
G02*
X25700000Y-109800001I0J249999D01*
G01*
X25700000Y-109149999D01*
G75*
G02*
X25949999Y-108900000I249999J0D01*
G01*
G37*
G04 #@! TD.AperFunction*
G04 #@! TA.AperFunction,SMDPad,CuDef*
G36*
G01*
X25949999Y-106850000D02*
X26850001Y-106850000D01*
G75*
G02*
X27100000Y-107099999I0J-249999D01*
G01*
X27100000Y-107750001D01*
G75*
G02*
X26850001Y-108000000I-249999J0D01*
G01*
X25949999Y-108000000D01*
G75*
G02*
X25700000Y-107750001I0J249999D01*
G01*
X25700000Y-107099999D01*
G75*
G02*
X25949999Y-106850000I249999J0D01*
G01*
G37*
G04 #@! TD.AperFunction*
G04 #@! TA.AperFunction,SMDPad,CuDef*
G36*
G01*
X126649999Y-84350000D02*
X127550001Y-84350000D01*
G75*
G02*
X127800000Y-84599999I0J-249999D01*
G01*
X127800000Y-85250001D01*
G75*
G02*
X127550001Y-85500000I-249999J0D01*
G01*
X126649999Y-85500000D01*
G75*
G02*
X126400000Y-85250001I0J249999D01*
G01*
X126400000Y-84599999D01*
G75*
G02*
X126649999Y-84350000I249999J0D01*
G01*
G37*
G04 #@! TD.AperFunction*
G04 #@! TA.AperFunction,SMDPad,CuDef*
G36*
G01*
X126649999Y-86400000D02*
X127550001Y-86400000D01*
G75*
G02*
X127800000Y-86649999I0J-249999D01*
G01*
X127800000Y-87300001D01*
G75*
G02*
X127550001Y-87550000I-249999J0D01*
G01*
X126649999Y-87550000D01*
G75*
G02*
X126400000Y-87300001I0J249999D01*
G01*
X126400000Y-86649999D01*
G75*
G02*
X126649999Y-86400000I249999J0D01*
G01*
G37*
G04 #@! TD.AperFunction*
G04 #@! TA.AperFunction,SMDPad,CuDef*
G36*
G01*
X126549999Y-91800000D02*
X127450001Y-91800000D01*
G75*
G02*
X127700000Y-92049999I0J-249999D01*
G01*
X127700000Y-92700001D01*
G75*
G02*
X127450001Y-92950000I-249999J0D01*
G01*
X126549999Y-92950000D01*
G75*
G02*
X126300000Y-92700001I0J249999D01*
G01*
X126300000Y-92049999D01*
G75*
G02*
X126549999Y-91800000I249999J0D01*
G01*
G37*
G04 #@! TD.AperFunction*
G04 #@! TA.AperFunction,SMDPad,CuDef*
G36*
G01*
X126549999Y-89750000D02*
X127450001Y-89750000D01*
G75*
G02*
X127700000Y-89999999I0J-249999D01*
G01*
X127700000Y-90650001D01*
G75*
G02*
X127450001Y-90900000I-249999J0D01*
G01*
X126549999Y-90900000D01*
G75*
G02*
X126300000Y-90650001I0J249999D01*
G01*
X126300000Y-89999999D01*
G75*
G02*
X126549999Y-89750000I249999J0D01*
G01*
G37*
G04 #@! TD.AperFunction*
G04 #@! TA.AperFunction,SMDPad,CuDef*
G36*
G01*
X140000000Y-84449999D02*
X140000000Y-85350001D01*
G75*
G02*
X139750001Y-85600000I-249999J0D01*
G01*
X139099999Y-85600000D01*
G75*
G02*
X138850000Y-85350001I0J249999D01*
G01*
X138850000Y-84449999D01*
G75*
G02*
X139099999Y-84200000I249999J0D01*
G01*
X139750001Y-84200000D01*
G75*
G02*
X140000000Y-84449999I0J-249999D01*
G01*
G37*
G04 #@! TD.AperFunction*
G04 #@! TA.AperFunction,SMDPad,CuDef*
G36*
G01*
X142050000Y-84449999D02*
X142050000Y-85350001D01*
G75*
G02*
X141800001Y-85600000I-249999J0D01*
G01*
X141149999Y-85600000D01*
G75*
G02*
X140900000Y-85350001I0J249999D01*
G01*
X140900000Y-84449999D01*
G75*
G02*
X141149999Y-84200000I249999J0D01*
G01*
X141800001Y-84200000D01*
G75*
G02*
X142050000Y-84449999I0J-249999D01*
G01*
G37*
G04 #@! TD.AperFunction*
G04 #@! TA.AperFunction,SMDPad,CuDef*
G36*
G01*
X138800000Y-83350001D02*
X138800000Y-82449999D01*
G75*
G02*
X139049999Y-82200000I249999J0D01*
G01*
X139700001Y-82200000D01*
G75*
G02*
X139950000Y-82449999I0J-249999D01*
G01*
X139950000Y-83350001D01*
G75*
G02*
X139700001Y-83600000I-249999J0D01*
G01*
X139049999Y-83600000D01*
G75*
G02*
X138800000Y-83350001I0J249999D01*
G01*
G37*
G04 #@! TD.AperFunction*
G04 #@! TA.AperFunction,SMDPad,CuDef*
G36*
G01*
X140850000Y-83350001D02*
X140850000Y-82449999D01*
G75*
G02*
X141099999Y-82200000I249999J0D01*
G01*
X141750001Y-82200000D01*
G75*
G02*
X142000000Y-82449999I0J-249999D01*
G01*
X142000000Y-83350001D01*
G75*
G02*
X141750001Y-83600000I-249999J0D01*
G01*
X141099999Y-83600000D01*
G75*
G02*
X140850000Y-83350001I0J249999D01*
G01*
G37*
G04 #@! TD.AperFunction*
G04 #@! TA.AperFunction,SMDPad,CuDef*
G36*
G01*
X89900000Y-89849999D02*
X89900000Y-90750001D01*
G75*
G02*
X89650001Y-91000000I-249999J0D01*
G01*
X88999999Y-91000000D01*
G75*
G02*
X88750000Y-90750001I0J249999D01*
G01*
X88750000Y-89849999D01*
G75*
G02*
X88999999Y-89600000I249999J0D01*
G01*
X89650001Y-89600000D01*
G75*
G02*
X89900000Y-89849999I0J-249999D01*
G01*
G37*
G04 #@! TD.AperFunction*
G04 #@! TA.AperFunction,SMDPad,CuDef*
G36*
G01*
X87850000Y-89849999D02*
X87850000Y-90750001D01*
G75*
G02*
X87600001Y-91000000I-249999J0D01*
G01*
X86949999Y-91000000D01*
G75*
G02*
X86700000Y-90750001I0J249999D01*
G01*
X86700000Y-89849999D01*
G75*
G02*
X86949999Y-89600000I249999J0D01*
G01*
X87600001Y-89600000D01*
G75*
G02*
X87850000Y-89849999I0J-249999D01*
G01*
G37*
G04 #@! TD.AperFunction*
G04 #@! TA.AperFunction,SMDPad,CuDef*
G36*
G01*
X230100000Y-118699999D02*
X230100000Y-119600001D01*
G75*
G02*
X229850001Y-119850000I-249999J0D01*
G01*
X229199999Y-119850000D01*
G75*
G02*
X228950000Y-119600001I0J249999D01*
G01*
X228950000Y-118699999D01*
G75*
G02*
X229199999Y-118450000I249999J0D01*
G01*
X229850001Y-118450000D01*
G75*
G02*
X230100000Y-118699999I0J-249999D01*
G01*
G37*
G04 #@! TD.AperFunction*
G04 #@! TA.AperFunction,SMDPad,CuDef*
G36*
G01*
X228050000Y-118699999D02*
X228050000Y-119600001D01*
G75*
G02*
X227800001Y-119850000I-249999J0D01*
G01*
X227149999Y-119850000D01*
G75*
G02*
X226900000Y-119600001I0J249999D01*
G01*
X226900000Y-118699999D01*
G75*
G02*
X227149999Y-118450000I249999J0D01*
G01*
X227800001Y-118450000D01*
G75*
G02*
X228050000Y-118699999I0J-249999D01*
G01*
G37*
G04 #@! TD.AperFunction*
G04 #@! TA.AperFunction,SMDPad,CuDef*
G36*
G01*
X221899999Y-118950000D02*
X222800001Y-118950000D01*
G75*
G02*
X223050000Y-119199999I0J-249999D01*
G01*
X223050000Y-119850001D01*
G75*
G02*
X222800001Y-120100000I-249999J0D01*
G01*
X221899999Y-120100000D01*
G75*
G02*
X221650000Y-119850001I0J249999D01*
G01*
X221650000Y-119199999D01*
G75*
G02*
X221899999Y-118950000I249999J0D01*
G01*
G37*
G04 #@! TD.AperFunction*
G04 #@! TA.AperFunction,SMDPad,CuDef*
G36*
G01*
X221899999Y-121000000D02*
X222800001Y-121000000D01*
G75*
G02*
X223050000Y-121249999I0J-249999D01*
G01*
X223050000Y-121900001D01*
G75*
G02*
X222800001Y-122150000I-249999J0D01*
G01*
X221899999Y-122150000D01*
G75*
G02*
X221650000Y-121900001I0J249999D01*
G01*
X221650000Y-121249999D01*
G75*
G02*
X221899999Y-121000000I249999J0D01*
G01*
G37*
G04 #@! TD.AperFunction*
G04 #@! TA.AperFunction,SMDPad,CuDef*
G36*
G01*
X217550001Y-139700000D02*
X216649999Y-139700000D01*
G75*
G02*
X216400000Y-139450001I0J249999D01*
G01*
X216400000Y-138799999D01*
G75*
G02*
X216649999Y-138550000I249999J0D01*
G01*
X217550001Y-138550000D01*
G75*
G02*
X217800000Y-138799999I0J-249999D01*
G01*
X217800000Y-139450001D01*
G75*
G02*
X217550001Y-139700000I-249999J0D01*
G01*
G37*
G04 #@! TD.AperFunction*
G04 #@! TA.AperFunction,SMDPad,CuDef*
G36*
G01*
X217550001Y-141750000D02*
X216649999Y-141750000D01*
G75*
G02*
X216400000Y-141500001I0J249999D01*
G01*
X216400000Y-140849999D01*
G75*
G02*
X216649999Y-140600000I249999J0D01*
G01*
X217550001Y-140600000D01*
G75*
G02*
X217800000Y-140849999I0J-249999D01*
G01*
X217800000Y-141500001D01*
G75*
G02*
X217550001Y-141750000I-249999J0D01*
G01*
G37*
G04 #@! TD.AperFunction*
G04 #@! TA.AperFunction,SMDPad,CuDef*
G36*
G01*
X222200001Y-136550000D02*
X221299999Y-136550000D01*
G75*
G02*
X221050000Y-136300001I0J249999D01*
G01*
X221050000Y-135649999D01*
G75*
G02*
X221299999Y-135400000I249999J0D01*
G01*
X222200001Y-135400000D01*
G75*
G02*
X222450000Y-135649999I0J-249999D01*
G01*
X222450000Y-136300001D01*
G75*
G02*
X222200001Y-136550000I-249999J0D01*
G01*
G37*
G04 #@! TD.AperFunction*
G04 #@! TA.AperFunction,SMDPad,CuDef*
G36*
G01*
X222200001Y-138600000D02*
X221299999Y-138600000D01*
G75*
G02*
X221050000Y-138350001I0J249999D01*
G01*
X221050000Y-137699999D01*
G75*
G02*
X221299999Y-137450000I249999J0D01*
G01*
X222200001Y-137450000D01*
G75*
G02*
X222450000Y-137699999I0J-249999D01*
G01*
X222450000Y-138350001D01*
G75*
G02*
X222200001Y-138600000I-249999J0D01*
G01*
G37*
G04 #@! TD.AperFunction*
G04 #@! TA.AperFunction,SMDPad,CuDef*
G36*
G01*
X222050001Y-134350000D02*
X221149999Y-134350000D01*
G75*
G02*
X220900000Y-134100001I0J249999D01*
G01*
X220900000Y-133449999D01*
G75*
G02*
X221149999Y-133200000I249999J0D01*
G01*
X222050001Y-133200000D01*
G75*
G02*
X222300000Y-133449999I0J-249999D01*
G01*
X222300000Y-134100001D01*
G75*
G02*
X222050001Y-134350000I-249999J0D01*
G01*
G37*
G04 #@! TD.AperFunction*
G04 #@! TA.AperFunction,SMDPad,CuDef*
G36*
G01*
X222050001Y-132300000D02*
X221149999Y-132300000D01*
G75*
G02*
X220900000Y-132050001I0J249999D01*
G01*
X220900000Y-131399999D01*
G75*
G02*
X221149999Y-131150000I249999J0D01*
G01*
X222050001Y-131150000D01*
G75*
G02*
X222300000Y-131399999I0J-249999D01*
G01*
X222300000Y-132050001D01*
G75*
G02*
X222050001Y-132300000I-249999J0D01*
G01*
G37*
G04 #@! TD.AperFunction*
G04 #@! TA.AperFunction,SMDPad,CuDef*
G36*
G01*
X185249999Y-62300000D02*
X186150001Y-62300000D01*
G75*
G02*
X186400000Y-62549999I0J-249999D01*
G01*
X186400000Y-63200001D01*
G75*
G02*
X186150001Y-63450000I-249999J0D01*
G01*
X185249999Y-63450000D01*
G75*
G02*
X185000000Y-63200001I0J249999D01*
G01*
X185000000Y-62549999D01*
G75*
G02*
X185249999Y-62300000I249999J0D01*
G01*
G37*
G04 #@! TD.AperFunction*
G04 #@! TA.AperFunction,SMDPad,CuDef*
G36*
G01*
X185249999Y-60250000D02*
X186150001Y-60250000D01*
G75*
G02*
X186400000Y-60499999I0J-249999D01*
G01*
X186400000Y-61150001D01*
G75*
G02*
X186150001Y-61400000I-249999J0D01*
G01*
X185249999Y-61400000D01*
G75*
G02*
X185000000Y-61150001I0J249999D01*
G01*
X185000000Y-60499999D01*
G75*
G02*
X185249999Y-60250000I249999J0D01*
G01*
G37*
G04 #@! TD.AperFunction*
G04 #@! TA.AperFunction,SMDPad,CuDef*
G36*
G01*
X185300000Y-65850001D02*
X185300000Y-64949999D01*
G75*
G02*
X185549999Y-64700000I249999J0D01*
G01*
X186200001Y-64700000D01*
G75*
G02*
X186450000Y-64949999I0J-249999D01*
G01*
X186450000Y-65850001D01*
G75*
G02*
X186200001Y-66100000I-249999J0D01*
G01*
X185549999Y-66100000D01*
G75*
G02*
X185300000Y-65850001I0J249999D01*
G01*
G37*
G04 #@! TD.AperFunction*
G04 #@! TA.AperFunction,SMDPad,CuDef*
G36*
G01*
X187350000Y-65850001D02*
X187350000Y-64949999D01*
G75*
G02*
X187599999Y-64700000I249999J0D01*
G01*
X188250001Y-64700000D01*
G75*
G02*
X188500000Y-64949999I0J-249999D01*
G01*
X188500000Y-65850001D01*
G75*
G02*
X188250001Y-66100000I-249999J0D01*
G01*
X187599999Y-66100000D01*
G75*
G02*
X187350000Y-65850001I0J249999D01*
G01*
G37*
G04 #@! TD.AperFunction*
G04 #@! TA.AperFunction,SMDPad,CuDef*
G36*
G01*
X194000000Y-69249999D02*
X194000000Y-70150001D01*
G75*
G02*
X193750001Y-70400000I-249999J0D01*
G01*
X193099999Y-70400000D01*
G75*
G02*
X192850000Y-70150001I0J249999D01*
G01*
X192850000Y-69249999D01*
G75*
G02*
X193099999Y-69000000I249999J0D01*
G01*
X193750001Y-69000000D01*
G75*
G02*
X194000000Y-69249999I0J-249999D01*
G01*
G37*
G04 #@! TD.AperFunction*
G04 #@! TA.AperFunction,SMDPad,CuDef*
G36*
G01*
X196050000Y-69249999D02*
X196050000Y-70150001D01*
G75*
G02*
X195800001Y-70400000I-249999J0D01*
G01*
X195149999Y-70400000D01*
G75*
G02*
X194900000Y-70150001I0J249999D01*
G01*
X194900000Y-69249999D01*
G75*
G02*
X195149999Y-69000000I249999J0D01*
G01*
X195800001Y-69000000D01*
G75*
G02*
X196050000Y-69249999I0J-249999D01*
G01*
G37*
G04 #@! TD.AperFunction*
G04 #@! TA.AperFunction,SMDPad,CuDef*
G36*
G01*
X177150000Y-76950001D02*
X177150000Y-76049999D01*
G75*
G02*
X177399999Y-75800000I249999J0D01*
G01*
X178050001Y-75800000D01*
G75*
G02*
X178300000Y-76049999I0J-249999D01*
G01*
X178300000Y-76950001D01*
G75*
G02*
X178050001Y-77200000I-249999J0D01*
G01*
X177399999Y-77200000D01*
G75*
G02*
X177150000Y-76950001I0J249999D01*
G01*
G37*
G04 #@! TD.AperFunction*
G04 #@! TA.AperFunction,SMDPad,CuDef*
G36*
G01*
X179200000Y-76950001D02*
X179200000Y-76049999D01*
G75*
G02*
X179449999Y-75800000I249999J0D01*
G01*
X180100001Y-75800000D01*
G75*
G02*
X180350000Y-76049999I0J-249999D01*
G01*
X180350000Y-76950001D01*
G75*
G02*
X180100001Y-77200000I-249999J0D01*
G01*
X179449999Y-77200000D01*
G75*
G02*
X179200000Y-76950001I0J249999D01*
G01*
G37*
G04 #@! TD.AperFunction*
G04 #@! TA.AperFunction,SMDPad,CuDef*
G36*
G01*
X189150000Y-69199999D02*
X189150000Y-70100001D01*
G75*
G02*
X188900001Y-70350000I-249999J0D01*
G01*
X188249999Y-70350000D01*
G75*
G02*
X188000000Y-70100001I0J249999D01*
G01*
X188000000Y-69199999D01*
G75*
G02*
X188249999Y-68950000I249999J0D01*
G01*
X188900001Y-68950000D01*
G75*
G02*
X189150000Y-69199999I0J-249999D01*
G01*
G37*
G04 #@! TD.AperFunction*
G04 #@! TA.AperFunction,SMDPad,CuDef*
G36*
G01*
X191200000Y-69199999D02*
X191200000Y-70100001D01*
G75*
G02*
X190950001Y-70350000I-249999J0D01*
G01*
X190299999Y-70350000D01*
G75*
G02*
X190050000Y-70100001I0J249999D01*
G01*
X190050000Y-69199999D01*
G75*
G02*
X190299999Y-68950000I249999J0D01*
G01*
X190950001Y-68950000D01*
G75*
G02*
X191200000Y-69199999I0J-249999D01*
G01*
G37*
G04 #@! TD.AperFunction*
G04 #@! TA.AperFunction,SMDPad,CuDef*
G36*
G01*
X194550001Y-92350000D02*
X193649999Y-92350000D01*
G75*
G02*
X193400000Y-92100001I0J249999D01*
G01*
X193400000Y-91449999D01*
G75*
G02*
X193649999Y-91200000I249999J0D01*
G01*
X194550001Y-91200000D01*
G75*
G02*
X194800000Y-91449999I0J-249999D01*
G01*
X194800000Y-92100001D01*
G75*
G02*
X194550001Y-92350000I-249999J0D01*
G01*
G37*
G04 #@! TD.AperFunction*
G04 #@! TA.AperFunction,SMDPad,CuDef*
G36*
G01*
X194550001Y-90300000D02*
X193649999Y-90300000D01*
G75*
G02*
X193400000Y-90050001I0J249999D01*
G01*
X193400000Y-89399999D01*
G75*
G02*
X193649999Y-89150000I249999J0D01*
G01*
X194550001Y-89150000D01*
G75*
G02*
X194800000Y-89399999I0J-249999D01*
G01*
X194800000Y-90050001D01*
G75*
G02*
X194550001Y-90300000I-249999J0D01*
G01*
G37*
G04 #@! TD.AperFunction*
G04 #@! TA.AperFunction,SMDPad,CuDef*
G36*
G01*
X124050000Y-143299999D02*
X124050000Y-144200001D01*
G75*
G02*
X123800001Y-144450000I-249999J0D01*
G01*
X123149999Y-144450000D01*
G75*
G02*
X122900000Y-144200001I0J249999D01*
G01*
X122900000Y-143299999D01*
G75*
G02*
X123149999Y-143050000I249999J0D01*
G01*
X123800001Y-143050000D01*
G75*
G02*
X124050000Y-143299999I0J-249999D01*
G01*
G37*
G04 #@! TD.AperFunction*
G04 #@! TA.AperFunction,SMDPad,CuDef*
G36*
G01*
X126100000Y-143299999D02*
X126100000Y-144200001D01*
G75*
G02*
X125850001Y-144450000I-249999J0D01*
G01*
X125199999Y-144450000D01*
G75*
G02*
X124950000Y-144200001I0J249999D01*
G01*
X124950000Y-143299999D01*
G75*
G02*
X125199999Y-143050000I249999J0D01*
G01*
X125850001Y-143050000D01*
G75*
G02*
X126100000Y-143299999I0J-249999D01*
G01*
G37*
G04 #@! TD.AperFunction*
G04 #@! TA.AperFunction,SMDPad,CuDef*
G36*
G01*
X123600000Y-141249999D02*
X123600000Y-142150001D01*
G75*
G02*
X123350001Y-142400000I-249999J0D01*
G01*
X122699999Y-142400000D01*
G75*
G02*
X122450000Y-142150001I0J249999D01*
G01*
X122450000Y-141249999D01*
G75*
G02*
X122699999Y-141000000I249999J0D01*
G01*
X123350001Y-141000000D01*
G75*
G02*
X123600000Y-141249999I0J-249999D01*
G01*
G37*
G04 #@! TD.AperFunction*
G04 #@! TA.AperFunction,SMDPad,CuDef*
G36*
G01*
X121550000Y-141249999D02*
X121550000Y-142150001D01*
G75*
G02*
X121300001Y-142400000I-249999J0D01*
G01*
X120649999Y-142400000D01*
G75*
G02*
X120400000Y-142150001I0J249999D01*
G01*
X120400000Y-141249999D01*
G75*
G02*
X120649999Y-141000000I249999J0D01*
G01*
X121300001Y-141000000D01*
G75*
G02*
X121550000Y-141249999I0J-249999D01*
G01*
G37*
G04 #@! TD.AperFunction*
G04 #@! TA.AperFunction,SMDPad,CuDef*
G36*
G01*
X119300000Y-139149999D02*
X119300000Y-140050001D01*
G75*
G02*
X119050001Y-140300000I-249999J0D01*
G01*
X118399999Y-140300000D01*
G75*
G02*
X118150000Y-140050001I0J249999D01*
G01*
X118150000Y-139149999D01*
G75*
G02*
X118399999Y-138900000I249999J0D01*
G01*
X119050001Y-138900000D01*
G75*
G02*
X119300000Y-139149999I0J-249999D01*
G01*
G37*
G04 #@! TD.AperFunction*
G04 #@! TA.AperFunction,SMDPad,CuDef*
G36*
G01*
X121350000Y-139149999D02*
X121350000Y-140050001D01*
G75*
G02*
X121100001Y-140300000I-249999J0D01*
G01*
X120449999Y-140300000D01*
G75*
G02*
X120200000Y-140050001I0J249999D01*
G01*
X120200000Y-139149999D01*
G75*
G02*
X120449999Y-138900000I249999J0D01*
G01*
X121100001Y-138900000D01*
G75*
G02*
X121350000Y-139149999I0J-249999D01*
G01*
G37*
G04 #@! TD.AperFunction*
G04 #@! TA.AperFunction,SMDPad,CuDef*
G36*
G01*
X118650000Y-137099999D02*
X118650000Y-138000001D01*
G75*
G02*
X118400001Y-138250000I-249999J0D01*
G01*
X117749999Y-138250000D01*
G75*
G02*
X117500000Y-138000001I0J249999D01*
G01*
X117500000Y-137099999D01*
G75*
G02*
X117749999Y-136850000I249999J0D01*
G01*
X118400001Y-136850000D01*
G75*
G02*
X118650000Y-137099999I0J-249999D01*
G01*
G37*
G04 #@! TD.AperFunction*
G04 #@! TA.AperFunction,SMDPad,CuDef*
G36*
G01*
X116600000Y-137099999D02*
X116600000Y-138000001D01*
G75*
G02*
X116350001Y-138250000I-249999J0D01*
G01*
X115699999Y-138250000D01*
G75*
G02*
X115450000Y-138000001I0J249999D01*
G01*
X115450000Y-137099999D01*
G75*
G02*
X115699999Y-136850000I249999J0D01*
G01*
X116350001Y-136850000D01*
G75*
G02*
X116600000Y-137099999I0J-249999D01*
G01*
G37*
G04 #@! TD.AperFunction*
D46*
X114300000Y-83600000D03*
X119300000Y-83600000D03*
D25*
X18700000Y-51950000D03*
X18700000Y-59570000D03*
X18700000Y-84208000D03*
X18700000Y-76588000D03*
D28*
X272750000Y-138150000D03*
D27*
X272750000Y-133150000D03*
D31*
X179300000Y-101750000D03*
X179300000Y-99850000D03*
X176300000Y-100800000D03*
G04 #@! TA.AperFunction,SMDPad,CuDef*
G36*
G01*
X265050000Y-106549999D02*
X265050000Y-107450001D01*
G75*
G02*
X264800001Y-107700000I-249999J0D01*
G01*
X264149999Y-107700000D01*
G75*
G02*
X263900000Y-107450001I0J249999D01*
G01*
X263900000Y-106549999D01*
G75*
G02*
X264149999Y-106300000I249999J0D01*
G01*
X264800001Y-106300000D01*
G75*
G02*
X265050000Y-106549999I0J-249999D01*
G01*
G37*
G04 #@! TD.AperFunction*
G04 #@! TA.AperFunction,SMDPad,CuDef*
G36*
G01*
X263000000Y-106549999D02*
X263000000Y-107450001D01*
G75*
G02*
X262750001Y-107700000I-249999J0D01*
G01*
X262099999Y-107700000D01*
G75*
G02*
X261850000Y-107450001I0J249999D01*
G01*
X261850000Y-106549999D01*
G75*
G02*
X262099999Y-106300000I249999J0D01*
G01*
X262750001Y-106300000D01*
G75*
G02*
X263000000Y-106549999I0J-249999D01*
G01*
G37*
G04 #@! TD.AperFunction*
G04 #@! TA.AperFunction,SMDPad,CuDef*
G36*
G01*
X265000000Y-108949999D02*
X265000000Y-109850001D01*
G75*
G02*
X264750001Y-110100000I-249999J0D01*
G01*
X264099999Y-110100000D01*
G75*
G02*
X263850000Y-109850001I0J249999D01*
G01*
X263850000Y-108949999D01*
G75*
G02*
X264099999Y-108700000I249999J0D01*
G01*
X264750001Y-108700000D01*
G75*
G02*
X265000000Y-108949999I0J-249999D01*
G01*
G37*
G04 #@! TD.AperFunction*
G04 #@! TA.AperFunction,SMDPad,CuDef*
G36*
G01*
X267050000Y-108949999D02*
X267050000Y-109850001D01*
G75*
G02*
X266800001Y-110100000I-249999J0D01*
G01*
X266149999Y-110100000D01*
G75*
G02*
X265900000Y-109850001I0J249999D01*
G01*
X265900000Y-108949999D01*
G75*
G02*
X266149999Y-108700000I249999J0D01*
G01*
X266800001Y-108700000D01*
G75*
G02*
X267050000Y-108949999I0J-249999D01*
G01*
G37*
G04 #@! TD.AperFunction*
G04 #@! TA.AperFunction,SMDPad,CuDef*
G36*
G01*
X267949999Y-106800000D02*
X268850001Y-106800000D01*
G75*
G02*
X269100000Y-107049999I0J-249999D01*
G01*
X269100000Y-107700001D01*
G75*
G02*
X268850001Y-107950000I-249999J0D01*
G01*
X267949999Y-107950000D01*
G75*
G02*
X267700000Y-107700001I0J249999D01*
G01*
X267700000Y-107049999D01*
G75*
G02*
X267949999Y-106800000I249999J0D01*
G01*
G37*
G04 #@! TD.AperFunction*
G04 #@! TA.AperFunction,SMDPad,CuDef*
G36*
G01*
X267949999Y-108850000D02*
X268850001Y-108850000D01*
G75*
G02*
X269100000Y-109099999I0J-249999D01*
G01*
X269100000Y-109750001D01*
G75*
G02*
X268850001Y-110000000I-249999J0D01*
G01*
X267949999Y-110000000D01*
G75*
G02*
X267700000Y-109750001I0J249999D01*
G01*
X267700000Y-109099999D01*
G75*
G02*
X267949999Y-108850000I249999J0D01*
G01*
G37*
G04 #@! TD.AperFunction*
G04 #@! TA.AperFunction,SMDPad,CuDef*
G36*
G01*
X270950000Y-106899999D02*
X270950000Y-107800001D01*
G75*
G02*
X270700001Y-108050000I-249999J0D01*
G01*
X270049999Y-108050000D01*
G75*
G02*
X269800000Y-107800001I0J249999D01*
G01*
X269800000Y-106899999D01*
G75*
G02*
X270049999Y-106650000I249999J0D01*
G01*
X270700001Y-106650000D01*
G75*
G02*
X270950000Y-106899999I0J-249999D01*
G01*
G37*
G04 #@! TD.AperFunction*
G04 #@! TA.AperFunction,SMDPad,CuDef*
G36*
G01*
X273000000Y-106899999D02*
X273000000Y-107800001D01*
G75*
G02*
X272750001Y-108050000I-249999J0D01*
G01*
X272099999Y-108050000D01*
G75*
G02*
X271850000Y-107800001I0J249999D01*
G01*
X271850000Y-106899999D01*
G75*
G02*
X272099999Y-106650000I249999J0D01*
G01*
X272750001Y-106650000D01*
G75*
G02*
X273000000Y-106899999I0J-249999D01*
G01*
G37*
G04 #@! TD.AperFunction*
G04 #@! TA.AperFunction,SMDPad,CuDef*
G36*
G01*
X275350001Y-109950000D02*
X274449999Y-109950000D01*
G75*
G02*
X274200000Y-109700001I0J249999D01*
G01*
X274200000Y-109049999D01*
G75*
G02*
X274449999Y-108800000I249999J0D01*
G01*
X275350001Y-108800000D01*
G75*
G02*
X275600000Y-109049999I0J-249999D01*
G01*
X275600000Y-109700001D01*
G75*
G02*
X275350001Y-109950000I-249999J0D01*
G01*
G37*
G04 #@! TD.AperFunction*
G04 #@! TA.AperFunction,SMDPad,CuDef*
G36*
G01*
X275350001Y-107900000D02*
X274449999Y-107900000D01*
G75*
G02*
X274200000Y-107650001I0J249999D01*
G01*
X274200000Y-106999999D01*
G75*
G02*
X274449999Y-106750000I249999J0D01*
G01*
X275350001Y-106750000D01*
G75*
G02*
X275600000Y-106999999I0J-249999D01*
G01*
X275600000Y-107650001D01*
G75*
G02*
X275350001Y-107900000I-249999J0D01*
G01*
G37*
G04 #@! TD.AperFunction*
G04 #@! TA.AperFunction,SMDPad,CuDef*
G36*
G01*
X279500001Y-107850000D02*
X278599999Y-107850000D01*
G75*
G02*
X278350000Y-107600001I0J249999D01*
G01*
X278350000Y-106949999D01*
G75*
G02*
X278599999Y-106700000I249999J0D01*
G01*
X279500001Y-106700000D01*
G75*
G02*
X279750000Y-106949999I0J-249999D01*
G01*
X279750000Y-107600001D01*
G75*
G02*
X279500001Y-107850000I-249999J0D01*
G01*
G37*
G04 #@! TD.AperFunction*
G04 #@! TA.AperFunction,SMDPad,CuDef*
G36*
G01*
X279500001Y-109900000D02*
X278599999Y-109900000D01*
G75*
G02*
X278350000Y-109650001I0J249999D01*
G01*
X278350000Y-108999999D01*
G75*
G02*
X278599999Y-108750000I249999J0D01*
G01*
X279500001Y-108750000D01*
G75*
G02*
X279750000Y-108999999I0J-249999D01*
G01*
X279750000Y-109650001D01*
G75*
G02*
X279500001Y-109900000I-249999J0D01*
G01*
G37*
G04 #@! TD.AperFunction*
D47*
X205350000Y-152650000D03*
X194700000Y-102700000D03*
X194850000Y-72750000D03*
X184600000Y-98150000D03*
X118350000Y-128250000D03*
X153900000Y-126000000D03*
X171750000Y-100650000D03*
X29450000Y-102950000D03*
X108650000Y-91350000D03*
X148300000Y-68650000D03*
X175700000Y-130800000D03*
X94550000Y-82000000D03*
X167850000Y-87250000D03*
X26150000Y-116450000D03*
G04 #@! TA.AperFunction,SMDPad,CuDef*
G36*
G01*
X205500000Y-133850001D02*
X205500000Y-132949999D01*
G75*
G02*
X205749999Y-132700000I249999J0D01*
G01*
X206400001Y-132700000D01*
G75*
G02*
X206650000Y-132949999I0J-249999D01*
G01*
X206650000Y-133850001D01*
G75*
G02*
X206400001Y-134100000I-249999J0D01*
G01*
X205749999Y-134100000D01*
G75*
G02*
X205500000Y-133850001I0J249999D01*
G01*
G37*
G04 #@! TD.AperFunction*
G04 #@! TA.AperFunction,SMDPad,CuDef*
G36*
G01*
X203450000Y-133850001D02*
X203450000Y-132949999D01*
G75*
G02*
X203699999Y-132700000I249999J0D01*
G01*
X204350001Y-132700000D01*
G75*
G02*
X204600000Y-132949999I0J-249999D01*
G01*
X204600000Y-133850001D01*
G75*
G02*
X204350001Y-134100000I-249999J0D01*
G01*
X203699999Y-134100000D01*
G75*
G02*
X203450000Y-133850001I0J249999D01*
G01*
G37*
G04 #@! TD.AperFunction*
G04 #@! TA.AperFunction,SMDPad,CuDef*
G36*
G01*
X208900000Y-124850001D02*
X208900000Y-123949999D01*
G75*
G02*
X209149999Y-123700000I249999J0D01*
G01*
X209800001Y-123700000D01*
G75*
G02*
X210050000Y-123949999I0J-249999D01*
G01*
X210050000Y-124850001D01*
G75*
G02*
X209800001Y-125100000I-249999J0D01*
G01*
X209149999Y-125100000D01*
G75*
G02*
X208900000Y-124850001I0J249999D01*
G01*
G37*
G04 #@! TD.AperFunction*
G04 #@! TA.AperFunction,SMDPad,CuDef*
G36*
G01*
X210950000Y-124850001D02*
X210950000Y-123949999D01*
G75*
G02*
X211199999Y-123700000I249999J0D01*
G01*
X211850001Y-123700000D01*
G75*
G02*
X212100000Y-123949999I0J-249999D01*
G01*
X212100000Y-124850001D01*
G75*
G02*
X211850001Y-125100000I-249999J0D01*
G01*
X211199999Y-125100000D01*
G75*
G02*
X210950000Y-124850001I0J249999D01*
G01*
G37*
G04 #@! TD.AperFunction*
D30*
X204750000Y-129000000D03*
X203800000Y-126000000D03*
X205700000Y-126000000D03*
D31*
X214550000Y-137950000D03*
X214550000Y-136050000D03*
X211550000Y-137000000D03*
G04 #@! TA.AperFunction,SMDPad,CuDef*
G36*
G01*
X217550001Y-135550000D02*
X216649999Y-135550000D01*
G75*
G02*
X216400000Y-135300001I0J249999D01*
G01*
X216400000Y-134649999D01*
G75*
G02*
X216649999Y-134400000I249999J0D01*
G01*
X217550001Y-134400000D01*
G75*
G02*
X217800000Y-134649999I0J-249999D01*
G01*
X217800000Y-135300001D01*
G75*
G02*
X217550001Y-135550000I-249999J0D01*
G01*
G37*
G04 #@! TD.AperFunction*
G04 #@! TA.AperFunction,SMDPad,CuDef*
G36*
G01*
X217550001Y-137600000D02*
X216649999Y-137600000D01*
G75*
G02*
X216400000Y-137350001I0J249999D01*
G01*
X216400000Y-136699999D01*
G75*
G02*
X216649999Y-136450000I249999J0D01*
G01*
X217550001Y-136450000D01*
G75*
G02*
X217800000Y-136699999I0J-249999D01*
G01*
X217800000Y-137350001D01*
G75*
G02*
X217550001Y-137600000I-249999J0D01*
G01*
G37*
G04 #@! TD.AperFunction*
G04 #@! TA.AperFunction,SMDPad,CuDef*
G36*
G01*
X201150000Y-135799999D02*
X201150000Y-136700001D01*
G75*
G02*
X200900001Y-136950000I-249999J0D01*
G01*
X200249999Y-136950000D01*
G75*
G02*
X200000000Y-136700001I0J249999D01*
G01*
X200000000Y-135799999D01*
G75*
G02*
X200249999Y-135550000I249999J0D01*
G01*
X200900001Y-135550000D01*
G75*
G02*
X201150000Y-135799999I0J-249999D01*
G01*
G37*
G04 #@! TD.AperFunction*
G04 #@! TA.AperFunction,SMDPad,CuDef*
G36*
G01*
X203200000Y-135799999D02*
X203200000Y-136700001D01*
G75*
G02*
X202950001Y-136950000I-249999J0D01*
G01*
X202299999Y-136950000D01*
G75*
G02*
X202050000Y-136700001I0J249999D01*
G01*
X202050000Y-135799999D01*
G75*
G02*
X202299999Y-135550000I249999J0D01*
G01*
X202950001Y-135550000D01*
G75*
G02*
X203200000Y-135799999I0J-249999D01*
G01*
G37*
G04 #@! TD.AperFunction*
G04 #@! TA.AperFunction,SMDPad,CuDef*
G36*
G01*
X200449999Y-126750000D02*
X201350001Y-126750000D01*
G75*
G02*
X201600000Y-126999999I0J-249999D01*
G01*
X201600000Y-127650001D01*
G75*
G02*
X201350001Y-127900000I-249999J0D01*
G01*
X200449999Y-127900000D01*
G75*
G02*
X200200000Y-127650001I0J249999D01*
G01*
X200200000Y-126999999D01*
G75*
G02*
X200449999Y-126750000I249999J0D01*
G01*
G37*
G04 #@! TD.AperFunction*
G04 #@! TA.AperFunction,SMDPad,CuDef*
G36*
G01*
X200449999Y-128800000D02*
X201350001Y-128800000D01*
G75*
G02*
X201600000Y-129049999I0J-249999D01*
G01*
X201600000Y-129700001D01*
G75*
G02*
X201350001Y-129950000I-249999J0D01*
G01*
X200449999Y-129950000D01*
G75*
G02*
X200200000Y-129700001I0J249999D01*
G01*
X200200000Y-129049999D01*
G75*
G02*
X200449999Y-128800000I249999J0D01*
G01*
G37*
G04 #@! TD.AperFunction*
G04 #@! TA.AperFunction,SMDPad,CuDef*
G36*
G01*
X211900001Y-129800000D02*
X210999999Y-129800000D01*
G75*
G02*
X210750000Y-129550001I0J249999D01*
G01*
X210750000Y-128899999D01*
G75*
G02*
X210999999Y-128650000I249999J0D01*
G01*
X211900001Y-128650000D01*
G75*
G02*
X212150000Y-128899999I0J-249999D01*
G01*
X212150000Y-129550001D01*
G75*
G02*
X211900001Y-129800000I-249999J0D01*
G01*
G37*
G04 #@! TD.AperFunction*
G04 #@! TA.AperFunction,SMDPad,CuDef*
G36*
G01*
X211900001Y-131850000D02*
X210999999Y-131850000D01*
G75*
G02*
X210750000Y-131600001I0J249999D01*
G01*
X210750000Y-130949999D01*
G75*
G02*
X210999999Y-130700000I249999J0D01*
G01*
X211900001Y-130700000D01*
G75*
G02*
X212150000Y-130949999I0J-249999D01*
G01*
X212150000Y-131600001D01*
G75*
G02*
X211900001Y-131850000I-249999J0D01*
G01*
G37*
G04 #@! TD.AperFunction*
G04 #@! TA.AperFunction,SMDPad,CuDef*
G36*
G01*
X196699999Y-127700000D02*
X197600001Y-127700000D01*
G75*
G02*
X197850000Y-127949999I0J-249999D01*
G01*
X197850000Y-128600001D01*
G75*
G02*
X197600001Y-128850000I-249999J0D01*
G01*
X196699999Y-128850000D01*
G75*
G02*
X196450000Y-128600001I0J249999D01*
G01*
X196450000Y-127949999D01*
G75*
G02*
X196699999Y-127700000I249999J0D01*
G01*
G37*
G04 #@! TD.AperFunction*
G04 #@! TA.AperFunction,SMDPad,CuDef*
G36*
G01*
X196699999Y-125650000D02*
X197600001Y-125650000D01*
G75*
G02*
X197850000Y-125899999I0J-249999D01*
G01*
X197850000Y-126550001D01*
G75*
G02*
X197600001Y-126800000I-249999J0D01*
G01*
X196699999Y-126800000D01*
G75*
G02*
X196450000Y-126550001I0J249999D01*
G01*
X196450000Y-125899999D01*
G75*
G02*
X196699999Y-125650000I249999J0D01*
G01*
G37*
G04 #@! TD.AperFunction*
G04 #@! TA.AperFunction,SMDPad,CuDef*
G36*
G01*
X196749999Y-129800000D02*
X197650001Y-129800000D01*
G75*
G02*
X197900000Y-130049999I0J-249999D01*
G01*
X197900000Y-130700001D01*
G75*
G02*
X197650001Y-130950000I-249999J0D01*
G01*
X196749999Y-130950000D01*
G75*
G02*
X196500000Y-130700001I0J249999D01*
G01*
X196500000Y-130049999D01*
G75*
G02*
X196749999Y-129800000I249999J0D01*
G01*
G37*
G04 #@! TD.AperFunction*
G04 #@! TA.AperFunction,SMDPad,CuDef*
G36*
G01*
X196749999Y-131850000D02*
X197650001Y-131850000D01*
G75*
G02*
X197900000Y-132099999I0J-249999D01*
G01*
X197900000Y-132750001D01*
G75*
G02*
X197650001Y-133000000I-249999J0D01*
G01*
X196749999Y-133000000D01*
G75*
G02*
X196500000Y-132750001I0J249999D01*
G01*
X196500000Y-132099999D01*
G75*
G02*
X196749999Y-131850000I249999J0D01*
G01*
G37*
G04 #@! TD.AperFunction*
D37*
X201950000Y-134350000D03*
X201950000Y-133400000D03*
X201950000Y-132450000D03*
X199250000Y-132450000D03*
X199250000Y-134350000D03*
D41*
X207550000Y-126500000D03*
X209450000Y-126500000D03*
X209450000Y-129200000D03*
X208500000Y-129200000D03*
X207550000Y-129200000D03*
D31*
X208400000Y-137950000D03*
X208400000Y-136050000D03*
X205400000Y-137000000D03*
G04 #@! TA.AperFunction,SMDPad,CuDef*
G36*
G01*
X209000000Y-122600001D02*
X209000000Y-121699999D01*
G75*
G02*
X209249999Y-121450000I249999J0D01*
G01*
X209900001Y-121450000D01*
G75*
G02*
X210150000Y-121699999I0J-249999D01*
G01*
X210150000Y-122600001D01*
G75*
G02*
X209900001Y-122850000I-249999J0D01*
G01*
X209249999Y-122850000D01*
G75*
G02*
X209000000Y-122600001I0J249999D01*
G01*
G37*
G04 #@! TD.AperFunction*
G04 #@! TA.AperFunction,SMDPad,CuDef*
G36*
G01*
X211050000Y-122600001D02*
X211050000Y-121699999D01*
G75*
G02*
X211299999Y-121450000I249999J0D01*
G01*
X211950001Y-121450000D01*
G75*
G02*
X212200000Y-121699999I0J-249999D01*
G01*
X212200000Y-122600001D01*
G75*
G02*
X211950001Y-122850000I-249999J0D01*
G01*
X211299999Y-122850000D01*
G75*
G02*
X211050000Y-122600001I0J249999D01*
G01*
G37*
G04 #@! TD.AperFunction*
D47*
X225700000Y-141450000D03*
X217100000Y-126500000D03*
X190950000Y-125300000D03*
D48*
X122800000Y-87400000D03*
X115349430Y-87349430D03*
D49*
X53650000Y-131250000D03*
X52450000Y-131200000D03*
X52400000Y-132250000D03*
X53650000Y-132250000D03*
X55050000Y-132250000D03*
X55050000Y-131200000D03*
X55050000Y-130100000D03*
X53650000Y-130100000D03*
X52400000Y-130100000D03*
X118800000Y-89100000D03*
X119750000Y-89100000D03*
X119700000Y-88150000D03*
X118800000Y-88100000D03*
X119650000Y-87100000D03*
X118750000Y-87100000D03*
D48*
X133400000Y-81000000D03*
X133400000Y-80100000D03*
X133400000Y-79200000D03*
X121600000Y-80600000D03*
X121600000Y-79700000D03*
X121600000Y-78800000D03*
X121600000Y-77900000D03*
X121600000Y-76600000D03*
X141400000Y-79900000D03*
X141429360Y-78197252D03*
X141365306Y-81499944D03*
X182800000Y-40100000D03*
X182800000Y-39000000D03*
X182800000Y-40100000D03*
X182800000Y-37900000D03*
X198300000Y-67900000D03*
X206000000Y-78100000D03*
X192100000Y-57800000D03*
X198800000Y-60700000D03*
X200700000Y-60800000D03*
X194100000Y-57700000D03*
X187250000Y-70650000D03*
X221600000Y-129650000D03*
X219300000Y-129950000D03*
X150100000Y-82700000D03*
X153100000Y-82600000D03*
X159900000Y-80400000D03*
X165500000Y-80800000D03*
X171750000Y-65500000D03*
X107650000Y-137050000D03*
X196100000Y-91800000D03*
X187000000Y-87450000D03*
X150700000Y-139150000D03*
X85850000Y-84550000D03*
X83900000Y-91400000D03*
X186800000Y-76500000D03*
X192250000Y-77050000D03*
X28000000Y-110350000D03*
X28000000Y-107950000D03*
X167700000Y-102500000D03*
X165300000Y-95450000D03*
X34500000Y-124750000D03*
X32700000Y-130700000D03*
X42200000Y-136750000D03*
X63300000Y-132200000D03*
X63200000Y-124750000D03*
X37250000Y-132250000D03*
X70100000Y-129250000D03*
X37200000Y-104250000D03*
X34700000Y-106000000D03*
X28000000Y-109050000D03*
X24750000Y-109750000D03*
X40450000Y-138700000D03*
X71750000Y-138850000D03*
X127550000Y-138900000D03*
X127600000Y-130000000D03*
X127600000Y-131200000D03*
X127600000Y-132550000D03*
X145650000Y-129900000D03*
X145600000Y-128000000D03*
X196800000Y-115700000D03*
X192400000Y-109600000D03*
X190350000Y-105300000D03*
X181850000Y-37050000D03*
X183100000Y-72800000D03*
X249750000Y-68400000D03*
X235650000Y-67050000D03*
D50*
X66950000Y-63350000D03*
D48*
X113099872Y-88850128D03*
X113099577Y-89850423D03*
X126900000Y-94650000D03*
X124950000Y-88350000D03*
X101000000Y-86850000D03*
X164700000Y-91550000D03*
D50*
X63200000Y-63650000D03*
D48*
X279100000Y-105750000D03*
X181550000Y-101750000D03*
X188150000Y-120400000D03*
X207700000Y-133400000D03*
X197550000Y-134350000D03*
X207550000Y-124850000D03*
X213000000Y-124400000D03*
X195400000Y-132400000D03*
X213050000Y-122150000D03*
X183850000Y-75000000D03*
X187000000Y-73450000D03*
X202550000Y-64700000D03*
X177600000Y-64650000D03*
X177600000Y-68650000D03*
X169600000Y-71550000D03*
D51*
X89200000Y-106350000D03*
X89200000Y-99450000D03*
D48*
X183400000Y-95100000D03*
X189950000Y-116550000D03*
X189950000Y-113550000D03*
X197100000Y-95100000D03*
X201900000Y-95150000D03*
X190500000Y-95100000D03*
X193000000Y-66400000D03*
X197600000Y-73700000D03*
X204050000Y-86300000D03*
X199200000Y-80350000D03*
X211450000Y-133350000D03*
X211400000Y-139250000D03*
X171300000Y-94200000D03*
X171300000Y-90050000D03*
X154800000Y-144200000D03*
X150800000Y-144200000D03*
X181400000Y-70050000D03*
X183400000Y-68200000D03*
X146900000Y-108280010D03*
X146950000Y-104000000D03*
D51*
X91650000Y-106050000D03*
X91650000Y-100400000D03*
D48*
X154300000Y-108080001D03*
X154250000Y-110700000D03*
X153800000Y-112550000D03*
X150850000Y-148850000D03*
X154550000Y-148800000D03*
X160500000Y-109900000D03*
X37400000Y-118500000D03*
X160900000Y-112650000D03*
X160400000Y-116100000D03*
X154200000Y-116100000D03*
X40700000Y-116050000D03*
X157200000Y-112550000D03*
X155550000Y-110800000D03*
X31000000Y-117700000D03*
X34550000Y-114150000D03*
X195350000Y-144800000D03*
X197700000Y-142400000D03*
X216150000Y-145950000D03*
X220750000Y-141400000D03*
X39200000Y-120300000D03*
X42699999Y-118250001D03*
X195950000Y-88700000D03*
X249100000Y-70350000D03*
X235500000Y-69000000D03*
X78200000Y-78700000D03*
X74600000Y-78700000D03*
D51*
X27350000Y-84200000D03*
D48*
X71400000Y-84500000D03*
D51*
X66450000Y-84500000D03*
X39900000Y-99600000D03*
D48*
X93650000Y-100350000D03*
X93650000Y-106100000D03*
X155450000Y-89050000D03*
X159700000Y-89050000D03*
D50*
X49500000Y-62250000D03*
X32995961Y-76304039D03*
D48*
X186850000Y-123700000D03*
X183750000Y-123700000D03*
D52*
X58400000Y-53550000D02*
X64750000Y-54850000D01*
D53*
X55938000Y-26300000D02*
X64300000Y-26300000D01*
D54*
X81200000Y-24700000D02*
X65900000Y-24700000D01*
X88750000Y-32250000D02*
X81200000Y-24700000D01*
D53*
X64300000Y-26300000D02*
X65900000Y-24700000D01*
X65900000Y-24700000D02*
X68600000Y-22000000D01*
D55*
X68749430Y-27549430D02*
X65900000Y-24700000D01*
X107600000Y-78900000D02*
X112199990Y-78900000D01*
X88750000Y-60050000D02*
X107600000Y-78900000D01*
X88750000Y-32250000D02*
X88750000Y-60050000D01*
X107600000Y-78900000D02*
X107550000Y-84450000D01*
D56*
X117350000Y-87350000D02*
X115349430Y-87349430D01*
D57*
X107600000Y-86300000D02*
X113700000Y-86300000D01*
X113700000Y-86300000D02*
X115349430Y-87349430D01*
D56*
X122749430Y-87349430D02*
X122800000Y-87400000D01*
X121100000Y-87349430D02*
X122749430Y-87349430D01*
D54*
X88750000Y-32250000D02*
X92150000Y-32250000D01*
X92150000Y-32250000D02*
X112600000Y-52700000D01*
D57*
X107600000Y-78900000D02*
X100900000Y-78900000D01*
X100900000Y-78900000D02*
X100850000Y-78850000D01*
D54*
X59250000Y-40900000D02*
X58900000Y-29500000D01*
D57*
X123600000Y-79700000D02*
X121600000Y-79700000D01*
X119900000Y-79700000D02*
X119900000Y-80600000D01*
X119900000Y-80600000D02*
X121600000Y-80600000D01*
X121600000Y-80600000D02*
X123900000Y-80600000D01*
X123900000Y-80600000D02*
X123900000Y-78800000D01*
X123900000Y-78800000D02*
X121800000Y-78800000D01*
X121800000Y-78800000D02*
X121600000Y-78800000D01*
X119600000Y-78800000D02*
X119600000Y-77900000D01*
X119600000Y-77900000D02*
X121600000Y-77900000D01*
X121700000Y-77900000D02*
X122600000Y-77900000D01*
X123800000Y-77900000D02*
X123800000Y-77800000D01*
X123800000Y-76600000D02*
X122700000Y-76600000D01*
X122400000Y-76600000D02*
X121600000Y-76600000D01*
X121400000Y-76600000D02*
X119600000Y-76600000D01*
X121600000Y-80600000D02*
X121600000Y-80600000D01*
X121600000Y-79700000D02*
X119900000Y-79700000D01*
X121600000Y-78800000D02*
X119600000Y-78800000D01*
X121600000Y-77900000D02*
X121700000Y-77900000D01*
X122600000Y-77900000D02*
X123800000Y-77900000D01*
X123800000Y-77800000D02*
X123800000Y-76600000D01*
X123800000Y-76600000D02*
X123800000Y-76600000D01*
X122700000Y-76600000D02*
X122400000Y-76600000D01*
X121600000Y-76600000D02*
X121400000Y-76600000D01*
D56*
X142750000Y-79900000D02*
X141400000Y-79900000D01*
X141429360Y-78197252D02*
X141429360Y-81435890D01*
X141429360Y-81435890D02*
X141365306Y-81499944D01*
X141400000Y-79900000D02*
X141100000Y-79900000D01*
X141100000Y-79900000D02*
X137800000Y-79900000D01*
D58*
X137800000Y-80200000D02*
X135200000Y-80200000D01*
X135200000Y-80200000D02*
X135100000Y-80300000D01*
D56*
X142750000Y-79900000D02*
X149500000Y-79900000D01*
X149500000Y-79900000D02*
X150200000Y-80600000D01*
X150200000Y-80600000D02*
X153200000Y-80600000D01*
X141750000Y-81884638D02*
X141365306Y-81499944D01*
X141750000Y-82900000D02*
X141750000Y-81884638D01*
D57*
X165500000Y-78600000D02*
X165500000Y-80000000D01*
X161500000Y-78700000D02*
X159800000Y-78700000D01*
X191650000Y-78300000D02*
X191650000Y-82250000D01*
X191650000Y-82250000D02*
X191600000Y-82300000D01*
X203850000Y-78000000D02*
X205900000Y-78000000D01*
X205900000Y-78000000D02*
X206000000Y-78100000D01*
X192100000Y-59350000D02*
X194050000Y-59350000D01*
X198800000Y-62250000D02*
X198800000Y-60700000D01*
X200700000Y-62100000D02*
X200700000Y-60650000D01*
X194100000Y-59350000D02*
X194100000Y-57700000D01*
X192100000Y-59350000D02*
X192100000Y-57800000D01*
X188350000Y-69500000D02*
X188350000Y-69850000D01*
X188300000Y-69600000D02*
X187150000Y-70750000D01*
X198295000Y-67905000D02*
X198300000Y-67900000D01*
X196400000Y-67905000D02*
X198295000Y-67905000D01*
X221600000Y-131400000D02*
X221600000Y-129650000D01*
X219300000Y-131450000D02*
X219300000Y-129950000D01*
X150100000Y-80500000D02*
X150100000Y-82700000D01*
X153100000Y-80600000D02*
X153100000Y-82600000D01*
D58*
X133500000Y-80200000D02*
X133400000Y-80100000D01*
X135200000Y-80200000D02*
X133500000Y-80200000D01*
D57*
X159900000Y-78800000D02*
X159900000Y-80400000D01*
X165500000Y-80000000D02*
X165500000Y-80800000D01*
X171750000Y-67600000D02*
X171750000Y-65500000D01*
X107650000Y-139100000D02*
X107650000Y-137050000D01*
D59*
X187000000Y-86075000D02*
X187000000Y-87450000D01*
D57*
X83910000Y-84530000D02*
X85830000Y-84530000D01*
X85830000Y-84530000D02*
X85850000Y-84550000D01*
X83910000Y-89610000D02*
X83910000Y-91390000D01*
X83910000Y-91390000D02*
X83900000Y-91400000D01*
X186800000Y-78050000D02*
X186800000Y-76500000D01*
X191650000Y-78300000D02*
X191650000Y-77650000D01*
X191650000Y-77650000D02*
X192250000Y-77050000D01*
X150700000Y-139150000D02*
X150700000Y-137100000D01*
X150700000Y-137100000D02*
X150800000Y-137000000D01*
D56*
X182110000Y-113600000D02*
X182622084Y-113600000D01*
D57*
X166350000Y-102500000D02*
X167700000Y-102500000D01*
X165300000Y-96900000D02*
X165300000Y-95450000D01*
X36600000Y-124800000D02*
X34550000Y-124800000D01*
X34550000Y-124800000D02*
X34500000Y-124750000D01*
X32750000Y-129100000D02*
X32750000Y-130650000D01*
X32750000Y-130650000D02*
X32700000Y-130700000D01*
X43857500Y-136750000D02*
X42200000Y-136750000D01*
X61642500Y-132250000D02*
X63250000Y-132250000D01*
X63250000Y-132250000D02*
X63300000Y-132200000D01*
X61642500Y-124750000D02*
X63200000Y-124750000D01*
X38900000Y-132250000D02*
X37250000Y-132250000D01*
X68450000Y-129250000D02*
X70100000Y-129250000D01*
X37200000Y-106100000D02*
X37200000Y-104250000D01*
X34650000Y-107600000D02*
X34650000Y-106050000D01*
X34650000Y-106050000D02*
X34700000Y-106000000D01*
X26400000Y-109800000D02*
X27250000Y-109800000D01*
X27250000Y-109800000D02*
X28000000Y-109050000D01*
D56*
X29700000Y-109050000D02*
X28000000Y-109050000D01*
D57*
X22950000Y-109750000D02*
X24800000Y-109750000D01*
X38100000Y-138700000D02*
X40450000Y-138700000D01*
X74550000Y-138850000D02*
X71750000Y-138850000D01*
D56*
X129100000Y-138895000D02*
X127555000Y-138895000D01*
X127555000Y-138895000D02*
X127550000Y-138900000D01*
X129100000Y-130005000D02*
X127605000Y-130005000D01*
X127605000Y-130005000D02*
X127600000Y-130000000D01*
X129100000Y-131275000D02*
X127675000Y-131275000D01*
X127675000Y-131275000D02*
X127600000Y-131200000D01*
X129100000Y-132545000D02*
X127605000Y-132545000D01*
X127605000Y-132545000D02*
X127600000Y-132550000D01*
D57*
X144050000Y-129900000D02*
X145650000Y-129900000D01*
X144000000Y-128000000D02*
X145600000Y-128000000D01*
X144050000Y-129900000D02*
X144050000Y-128000000D01*
D56*
X28000000Y-110350000D02*
X28000000Y-109050000D01*
X28000000Y-107950000D02*
X28000000Y-109050000D01*
D57*
X20500000Y-109800000D02*
X23000000Y-109800000D01*
X23000000Y-109800000D02*
X26450000Y-109800000D01*
D55*
X275500000Y-64600000D02*
X278400000Y-64600000D01*
X275500000Y-64600000D02*
X256100000Y-64600000D01*
X256100000Y-64600000D02*
X255950000Y-64450000D01*
D57*
X194400000Y-115650000D02*
X196800000Y-115700000D01*
X193750000Y-109650000D02*
X192450000Y-109650000D01*
X192450000Y-109650000D02*
X192400000Y-109600000D01*
X190350000Y-103850000D02*
X190350000Y-105300000D01*
D60*
X182800000Y-37900000D02*
X182800000Y-40100000D01*
D57*
X182000000Y-73500000D02*
X180150000Y-73500000D01*
X183100000Y-72800000D02*
X182000000Y-73500000D01*
X180100000Y-36150000D02*
X181600000Y-36150000D01*
X180100000Y-66700020D02*
X180100000Y-36150000D01*
X186800000Y-78050000D02*
X185300000Y-78050000D01*
X181600000Y-36150000D02*
X182800000Y-36150000D01*
X185300000Y-71900020D02*
X180100000Y-66700020D01*
X185300000Y-78050000D02*
X185300000Y-71900020D01*
X279100000Y-66350000D02*
X277800000Y-66350000D01*
X277800000Y-66350000D02*
X275750000Y-68400000D01*
X275750000Y-68400000D02*
X249750000Y-68400000D01*
X235650000Y-67050000D02*
X214400000Y-67050000D01*
X206350000Y-83400000D02*
X201750000Y-83400000D01*
X211750000Y-78000000D02*
X206350000Y-83400000D01*
X214400000Y-67050000D02*
X211750000Y-69350000D01*
X211750000Y-69350000D02*
X211750000Y-78000000D01*
D52*
X65000000Y-63700000D02*
X64900000Y-63700000D01*
D59*
X114300570Y-88850570D02*
X117091800Y-88850570D01*
X113099872Y-88850128D02*
X114300570Y-88850570D01*
X113740167Y-89851330D02*
X117091800Y-89851330D01*
X113099577Y-89850423D02*
X113740167Y-89851330D01*
D58*
X126950000Y-92900000D02*
X126900000Y-94650000D01*
D59*
X123949810Y-88350190D02*
X121308200Y-88350190D01*
X124950000Y-88350000D02*
X123949810Y-88350190D01*
D57*
X101000000Y-85175000D02*
X101000000Y-86850000D01*
X164650000Y-90050000D02*
X164650000Y-91500000D01*
X164650000Y-91500000D02*
X164700000Y-91550000D01*
X196075000Y-91775000D02*
X196100000Y-91800000D01*
X194100000Y-91775000D02*
X196075000Y-91775000D01*
X122800000Y-81800000D02*
X121600000Y-80600000D01*
X124125000Y-81800000D02*
X122800000Y-81800000D01*
X122800000Y-81800000D02*
X123000000Y-81800000D01*
X123000000Y-81800000D02*
X124200000Y-83000000D01*
X279100000Y-107175000D02*
X279100000Y-105650000D01*
X179300000Y-101750000D02*
X181550000Y-101750000D01*
X188250000Y-118450000D02*
X188150000Y-120400000D01*
X206075000Y-133400000D02*
X207700000Y-133400000D01*
X197550000Y-134350000D02*
X199250000Y-134350000D01*
X207550000Y-126500000D02*
X207550000Y-124850000D01*
X211525000Y-124400000D02*
X213000000Y-124400000D01*
X197200000Y-132425000D02*
X195425000Y-132425000D01*
X195425000Y-132425000D02*
X195400000Y-132400000D01*
X211625000Y-122150000D02*
X213050000Y-122150000D01*
X211525000Y-124400000D02*
X211525000Y-122125000D01*
D54*
X227850000Y-28700000D02*
X213650000Y-28700000D01*
X231050000Y-31000000D02*
X242850000Y-31000000D01*
D57*
X242300000Y-59900000D02*
X242800000Y-59400000D01*
D58*
X242800000Y-59400000D02*
X217600000Y-59400000D01*
D54*
X242850000Y-31050000D02*
X275500000Y-31050000D01*
X242900000Y-32000000D02*
X242900000Y-64500000D01*
D55*
X242900000Y-64500000D02*
X242900000Y-69750000D01*
X242900000Y-69750000D02*
X240150000Y-72500000D01*
X216600000Y-31700000D02*
X216900000Y-32000000D01*
X210300000Y-31750000D02*
X216600000Y-31700000D01*
D58*
X217600000Y-59400000D02*
X205350000Y-71600000D01*
D57*
X177500000Y-76500000D02*
X177500000Y-75100000D01*
X177500000Y-75100000D02*
X177500000Y-74500000D01*
X177500000Y-74500000D02*
X177500000Y-73500000D01*
X181700000Y-75100000D02*
X177500000Y-75100000D01*
X183850000Y-75000000D02*
X181700000Y-75100000D01*
X187000000Y-73450000D02*
X189800000Y-72200000D01*
X180150000Y-78700000D02*
X180150000Y-76450000D01*
X180150000Y-76450000D02*
X180100000Y-76400000D01*
X189150000Y-78300000D02*
X189150000Y-82250000D01*
X189150000Y-82250000D02*
X189100000Y-82300000D01*
D59*
X191400000Y-84125000D02*
X190025000Y-84125000D01*
D56*
X190025000Y-84125000D02*
X190025000Y-83225000D01*
X190025000Y-83225000D02*
X189200000Y-82400000D01*
D57*
X189150000Y-78300000D02*
X189150000Y-78050000D01*
X189150000Y-78050000D02*
X190800000Y-76400000D01*
X190800000Y-76400000D02*
X190800000Y-74600000D01*
X194100000Y-61900000D02*
X194000000Y-61900000D01*
X192100000Y-61850000D02*
X193950000Y-61850000D01*
X193950000Y-61850000D02*
X194000000Y-61900000D01*
X194000000Y-61900000D02*
X196100000Y-64000000D01*
X196100000Y-64000000D02*
X196400000Y-64000000D01*
X194500001Y-62250001D02*
X194500001Y-68300001D01*
X194100000Y-61850000D02*
X194500001Y-62250001D01*
X194500001Y-68300001D02*
X195800000Y-69600000D01*
X195750000Y-69600000D02*
X195750000Y-73150000D01*
X195750000Y-73150000D02*
X193700000Y-75200000D01*
X193700000Y-75200000D02*
X190800000Y-75200000D01*
X181850000Y-85900000D02*
X181850000Y-83850000D01*
D59*
X181850000Y-83850000D02*
X183500000Y-82200000D01*
X183500000Y-82200000D02*
X185100000Y-82200000D01*
X185100000Y-82200000D02*
X187000000Y-84100000D01*
D57*
X181950000Y-83800000D02*
X181950000Y-82850000D01*
X181950000Y-82850000D02*
X180100000Y-81000000D01*
D59*
X187000000Y-84775000D02*
X185625000Y-84775000D01*
X185625000Y-84775000D02*
X184600000Y-85800000D01*
X185625000Y-84775000D02*
X185475000Y-84775000D01*
X185475000Y-84775000D02*
X184500000Y-83800000D01*
D56*
X186800000Y-82164998D02*
X188400000Y-83764998D01*
X186800000Y-80750000D02*
X186800000Y-82164998D01*
X188400000Y-83764998D02*
X188400000Y-84800000D01*
D59*
X188375000Y-84775000D02*
X188400000Y-84800000D01*
X187000000Y-84775000D02*
X188375000Y-84775000D01*
D57*
X198800000Y-64750000D02*
X200650000Y-64750000D01*
X200650000Y-64750000D02*
X200700000Y-64700000D01*
X196400000Y-65365000D02*
X198135000Y-65365000D01*
X198135000Y-65365000D02*
X198700000Y-64800000D01*
X202550000Y-64700000D02*
X200550000Y-64700000D01*
X177600000Y-68650000D02*
X177600000Y-64650000D01*
X163850000Y-71550000D02*
X169600000Y-71550000D01*
D60*
X183100000Y-31550000D02*
X188700000Y-31550000D01*
D57*
X176800000Y-89800000D02*
X179250000Y-89800000D01*
X183400000Y-32600000D02*
X180600000Y-32600000D01*
X178150000Y-61300000D02*
X174700000Y-64900000D01*
X178100000Y-34000000D02*
X178150000Y-61300000D01*
X174700000Y-87700000D02*
X176800000Y-89800000D01*
X180600000Y-32600000D02*
X178100000Y-34000000D01*
X174700000Y-64900000D02*
X174700000Y-87700000D01*
D61*
X188400000Y-32500000D02*
X188550000Y-32500000D01*
X188550000Y-32500000D02*
X189441095Y-31608905D01*
D57*
X181750000Y-89800000D02*
X181750000Y-87850000D01*
X181750000Y-87850000D02*
X181800000Y-87800000D01*
X199250000Y-83300000D02*
X196600000Y-83300000D01*
X196600000Y-83300000D02*
X196600000Y-85400000D01*
D59*
X192375000Y-85425000D02*
X192700000Y-85750000D01*
X191400000Y-85425000D02*
X192375000Y-85425000D01*
X192700000Y-85750000D02*
X192700000Y-86010002D01*
X192700000Y-86010002D02*
X193014997Y-86324999D01*
X193015008Y-86325010D02*
X195274990Y-86325010D01*
X193014997Y-86324999D02*
X193015008Y-86325010D01*
X195274990Y-86325010D02*
X196200000Y-85400000D01*
X196200000Y-85400000D02*
X196200000Y-85300000D01*
X191400000Y-84775000D02*
X193375000Y-84775000D01*
X193375000Y-84775000D02*
X193900000Y-85300000D01*
D57*
X193900000Y-85300000D02*
X193900000Y-83200000D01*
D56*
X184929999Y-109770001D02*
X179720001Y-109770001D01*
X179720001Y-109770001D02*
X179550000Y-109600000D01*
X179550000Y-109600000D02*
X179550000Y-106000000D01*
D59*
X191400000Y-84775000D02*
X189500000Y-84775000D01*
D56*
X189500000Y-84775000D02*
X189500000Y-88000000D01*
D57*
X187550000Y-107150000D02*
X184929999Y-109770001D01*
X187550000Y-93300000D02*
X187550000Y-107150000D01*
X189500000Y-88000000D02*
X189500000Y-91350000D01*
X189500000Y-91350000D02*
X187550000Y-93300000D01*
D56*
X140050000Y-78950000D02*
X139050000Y-78950000D01*
X139050000Y-78950000D02*
X137800000Y-77700000D01*
D58*
X137800000Y-77700000D02*
X137800000Y-77600000D01*
X137800000Y-77600000D02*
X136400000Y-76200000D01*
X136400000Y-76200000D02*
X135200000Y-76200000D01*
X135200000Y-76200000D02*
X129400000Y-76200000D01*
X136400000Y-76200000D02*
X136400000Y-75700000D01*
X136400000Y-75700000D02*
X141100000Y-71000000D01*
X141100000Y-71000000D02*
X143450000Y-68650000D01*
X143450000Y-68650000D02*
X162400000Y-68650000D01*
X162400000Y-68650000D02*
X162400000Y-66250000D01*
D57*
X37200000Y-110450000D02*
X35050000Y-110450000D01*
X35050000Y-110450000D02*
X34700000Y-110100000D01*
X34650000Y-110100000D02*
X32550000Y-110100000D01*
X32550000Y-110100000D02*
X32450000Y-110000000D01*
D61*
X131100000Y-96850000D02*
X124750000Y-103200000D01*
X124750000Y-103200000D02*
X81050000Y-103250000D01*
X131100000Y-86250000D02*
X131100000Y-96850000D01*
X131100000Y-86250000D02*
X131100000Y-84150000D01*
X131100000Y-84150000D02*
X129450000Y-82500000D01*
X129450000Y-82500000D02*
X129450000Y-77800000D01*
X129300000Y-77800000D02*
X129300000Y-72300000D01*
X129300000Y-72300000D02*
X127850000Y-70850000D01*
X80550000Y-103250000D02*
X73750000Y-110050000D01*
X73750000Y-110050000D02*
X45650000Y-110050000D01*
X45650000Y-110050000D02*
X37900000Y-110050000D01*
X37900000Y-110050000D02*
X37850000Y-110000000D01*
D58*
X130750000Y-84500000D02*
X131100000Y-84150000D01*
X126900000Y-84500000D02*
X130750000Y-84500000D01*
X147600000Y-76500000D02*
X150100000Y-76500000D01*
X150100000Y-76500000D02*
X153100000Y-76500000D01*
D56*
X162700000Y-78600000D02*
X162700000Y-76300000D01*
X162700000Y-76300000D02*
X161700000Y-76300000D01*
X161700000Y-76300000D02*
X160000000Y-76300000D01*
D57*
X156000000Y-82200000D02*
X156000000Y-76600000D01*
X141800000Y-84900000D02*
X153300000Y-84900000D01*
X153300000Y-84900000D02*
X156000000Y-82200000D01*
D58*
X153100000Y-76600000D02*
X156000000Y-76600000D01*
X157400000Y-80704177D02*
X157450000Y-80754177D01*
X157400000Y-76600000D02*
X157400000Y-80704177D01*
X157400000Y-76600000D02*
X159800000Y-76600000D01*
X156000000Y-76600000D02*
X157400000Y-76600000D01*
X157450000Y-80754177D02*
X157450000Y-89650000D01*
X157450000Y-89650000D02*
X149000000Y-98100000D01*
X89800000Y-87450000D02*
X89800000Y-90600000D01*
D57*
X154650000Y-142550000D02*
X152450000Y-142550000D01*
D58*
X149090000Y-98190000D02*
X149000000Y-98100000D01*
X149090000Y-105980000D02*
X149090000Y-98190000D01*
X102900000Y-149500000D02*
X102900000Y-151600000D01*
X102900000Y-151600000D02*
X103550000Y-152250000D01*
X103550000Y-152250000D02*
X140600000Y-152250000D01*
X140600000Y-152250000D02*
X144250000Y-152250000D01*
X144250000Y-152250000D02*
X150900000Y-152250000D01*
X150900000Y-152250000D02*
X152700000Y-150450000D01*
X152700000Y-150450000D02*
X152700000Y-143000000D01*
X149090000Y-105980000D02*
X144020000Y-105980000D01*
X144020000Y-105980000D02*
X137850000Y-112150000D01*
X137850000Y-112150000D02*
X92400000Y-112150000D01*
X89200000Y-108950000D02*
X89200000Y-106350000D01*
X92400000Y-112150000D02*
X89200000Y-108950000D01*
X15450000Y-138300000D02*
X23750000Y-145350000D01*
X15450000Y-99400000D02*
X15450000Y-138300000D01*
X35000000Y-99400000D02*
X15450000Y-99400000D01*
X98000000Y-145350000D02*
X102650000Y-149400000D01*
X23750000Y-145350000D02*
X98000000Y-145350000D01*
X38499990Y-102899990D02*
X35000000Y-99400000D01*
X47849990Y-102899990D02*
X38499990Y-102899990D01*
X89200000Y-99450000D02*
X87200000Y-99400000D01*
X51300000Y-106350000D02*
X47849990Y-102899990D01*
X87200000Y-99400000D02*
X79600000Y-99400000D01*
X72650000Y-106350000D02*
X51300000Y-106350000D01*
X79600000Y-99400000D02*
X72650000Y-106350000D01*
X89650000Y-99000000D02*
X89200000Y-99450000D01*
X89650000Y-90300000D02*
X89650000Y-99000000D01*
D56*
X163650000Y-78600000D02*
X163650000Y-76450000D01*
X163650000Y-76450000D02*
X164000000Y-76100000D01*
X164000000Y-76100000D02*
X165500000Y-76100000D01*
D58*
X166535002Y-76100000D02*
X167950000Y-77514998D01*
X165500000Y-76100000D02*
X166535002Y-76100000D01*
X167950000Y-77514998D02*
X167950000Y-90500000D01*
X167950000Y-90500000D02*
X167950000Y-90650000D01*
X167950000Y-90650000D02*
X169300000Y-92000000D01*
X169300000Y-92000000D02*
X176800000Y-92000000D01*
D57*
X179900000Y-95100000D02*
X176800000Y-92000000D01*
X183400000Y-95100000D02*
X179900000Y-95100000D01*
X169300000Y-95400000D02*
X169300000Y-92000000D01*
X167300000Y-99500000D02*
X167300000Y-97400000D01*
X167300000Y-97400000D02*
X169300000Y-95400000D01*
X188250000Y-116550000D02*
X189950000Y-116550000D01*
X189950000Y-113550000D02*
X195650000Y-113500000D01*
X201900000Y-95150000D02*
X201900000Y-103550000D01*
X201900000Y-103550000D02*
X195700000Y-109750000D01*
X195650000Y-109650000D02*
X195650000Y-113500000D01*
X190350000Y-95250000D02*
X190500000Y-95100000D01*
X190350000Y-101950000D02*
X190350000Y-95250000D01*
X197100000Y-95100000D02*
X190500000Y-95100000D01*
X164650000Y-88150000D02*
X167000000Y-88150000D01*
X167000000Y-88150000D02*
X167700000Y-87450000D01*
X179300000Y-95700000D02*
X179900000Y-95100000D01*
X179300000Y-99850000D02*
X179300000Y-95700000D01*
D56*
X201950000Y-133400000D02*
X204000000Y-133400000D01*
D57*
X189950000Y-116550000D02*
X189950000Y-117950000D01*
X189950000Y-117950000D02*
X192700000Y-120700000D01*
X192700000Y-120700000D02*
X197100000Y-120700000D01*
X197100000Y-120700000D02*
X197100000Y-126150000D01*
X197100000Y-126150000D02*
X197806480Y-126150000D01*
D56*
X204025000Y-133400000D02*
X204025000Y-132775000D01*
X204900000Y-131900000D02*
X208450000Y-131900000D01*
X208450000Y-131900000D02*
X208450000Y-129250000D01*
X197150000Y-126225000D02*
X198275000Y-126225000D01*
X204025000Y-132775000D02*
X204425000Y-132375000D01*
X204425000Y-132375000D02*
X204900000Y-131900000D01*
X204900000Y-131900000D02*
X204450000Y-131900000D01*
X204450000Y-131900000D02*
X203100000Y-130550000D01*
X203100000Y-130550000D02*
X203100000Y-130500000D01*
X203100000Y-130500000D02*
X202300000Y-129700000D01*
X202300000Y-129700000D02*
X202300000Y-128350000D01*
X202300000Y-128350000D02*
X199750000Y-128350000D01*
X199750000Y-128350000D02*
X199750000Y-127150000D01*
X199750000Y-127150000D02*
X198800000Y-126200000D01*
X198800000Y-126200000D02*
X197150000Y-126200000D01*
D57*
X76290000Y-87070000D02*
X71430000Y-87070000D01*
X69600000Y-74000000D02*
X69600000Y-85700000D01*
X70100000Y-73500000D02*
X69600000Y-74000000D01*
X69600000Y-85700000D02*
X71200000Y-87300000D01*
X71950000Y-73500000D02*
X70100000Y-73500000D01*
X71430000Y-87070000D02*
X71200000Y-87300000D01*
X70812500Y-87687500D02*
X71430000Y-87070000D01*
X70812500Y-94600000D02*
X70812500Y-87687500D01*
D56*
X188200000Y-60600000D02*
X188200000Y-58400000D01*
X191000000Y-64095000D02*
X191000000Y-63300000D01*
X191000000Y-63300000D02*
X188200000Y-60500000D01*
X185600000Y-58300000D02*
X185600000Y-60500000D01*
D57*
X199550000Y-73800000D02*
X199550000Y-76150000D01*
X199550000Y-76150000D02*
X199500000Y-76200000D01*
D56*
X188250000Y-65400000D02*
X188250000Y-63150000D01*
X188250000Y-63150000D02*
X188300000Y-63100000D01*
D57*
X191000000Y-65365000D02*
X188335000Y-65365000D01*
X188335000Y-65365000D02*
X188300000Y-65400000D01*
X191000000Y-65365000D02*
X191965000Y-65365000D01*
X191965000Y-65365000D02*
X193000000Y-66400000D01*
X197600000Y-73700000D02*
X199500000Y-73700000D01*
X201100000Y-89400000D02*
X201100000Y-89250000D01*
X201100000Y-89250000D02*
X204050000Y-86300000D01*
X199200000Y-80350000D02*
X199200000Y-76400000D01*
X199200000Y-76400000D02*
X199450000Y-76150000D01*
D56*
X179860001Y-112310001D02*
X177000000Y-109450000D01*
X182710001Y-112310001D02*
X179860001Y-112310001D01*
X177000000Y-109450000D02*
X177000000Y-106000000D01*
X182720002Y-112300000D02*
X182710001Y-112310001D01*
X184750000Y-112300000D02*
X182720002Y-112300000D01*
D57*
X184750000Y-112300000D02*
X186200000Y-112300000D01*
X186200000Y-112300000D02*
X192200000Y-106300000D01*
X192200000Y-106300000D02*
X194650000Y-106300000D01*
X194650000Y-106300000D02*
X194650000Y-102950000D01*
X194650000Y-102950000D02*
X199650000Y-97950000D01*
X199650000Y-90700000D02*
X201100000Y-89250000D01*
X199650000Y-97950000D02*
X199650000Y-90700000D01*
D56*
X191000000Y-67905000D02*
X191000000Y-69700000D01*
D57*
X193050000Y-69600000D02*
X190900000Y-69600000D01*
X190900000Y-69600000D02*
X190800000Y-69500000D01*
X191750000Y-72200000D02*
X191750000Y-70450000D01*
X191750000Y-70450000D02*
X190900000Y-69600000D01*
D62*
X165000000Y-23600000D02*
X190700000Y-23600000D01*
X190700000Y-23600000D02*
X199500000Y-23600000D01*
D58*
X192200000Y-25100000D02*
X190700000Y-23600000D01*
D55*
X199500000Y-23600000D02*
X199500000Y-27200000D01*
X203600000Y-30450000D02*
X199500000Y-23600000D01*
D61*
X190700000Y-27629990D02*
X191157800Y-27629990D01*
X190700000Y-23600000D02*
X190700000Y-27629990D01*
X191157800Y-27629990D02*
X192200000Y-28672190D01*
D57*
X121308200Y-85308200D02*
X119500000Y-83500000D01*
X121300000Y-86050000D02*
X121308200Y-85308200D01*
X116300000Y-70900000D02*
X116300000Y-81700000D01*
X116300000Y-81700000D02*
X114300000Y-83700000D01*
X114400000Y-83600000D02*
X117100000Y-86050000D01*
X114300000Y-83600000D02*
X114400000Y-83600000D01*
D56*
X177679999Y-117429999D02*
X184370001Y-117400000D01*
X171950000Y-105980000D02*
X171950000Y-111700000D01*
X171950000Y-111700000D02*
X177679999Y-117429999D01*
D57*
X223000000Y-150250000D02*
X217050000Y-143850000D01*
X267950000Y-142500000D02*
X267950000Y-150250000D01*
X267950000Y-150250000D02*
X223000000Y-150250000D01*
X272750000Y-138150000D02*
X272300000Y-138150000D01*
X272300000Y-138150000D02*
X267950000Y-142500000D01*
X217050000Y-143850000D02*
X217050000Y-141250000D01*
X211450000Y-133350000D02*
X211450000Y-131150000D01*
X185050000Y-122300000D02*
X185050000Y-117550000D01*
X185050000Y-126850000D02*
X185050000Y-122300000D01*
X199375000Y-141175000D02*
X185050000Y-126850000D01*
X211400000Y-141000000D02*
X211225000Y-141175000D01*
X211400000Y-139250000D02*
X211400000Y-141000000D01*
X217100000Y-141175000D02*
X211225000Y-141175000D01*
X211225000Y-141175000D02*
X199375000Y-141175000D01*
D56*
X174490000Y-105980000D02*
X174490000Y-109790000D01*
X179589999Y-114889999D02*
X184289999Y-114889999D01*
X174490000Y-109790000D02*
X179589999Y-114889999D01*
D57*
X192360001Y-114889999D02*
X184289999Y-114889999D01*
X192360001Y-118160001D02*
X192360001Y-114889999D01*
X227150000Y-119150000D02*
X222800000Y-119150000D01*
X193250000Y-119050000D02*
X192850000Y-118650000D01*
X222700000Y-119050000D02*
X193250000Y-119050000D01*
X222800000Y-119150000D02*
X222700000Y-119050000D01*
X192850000Y-118650000D02*
X192360001Y-118160001D01*
D52*
X18700000Y-59570000D02*
X18700000Y-47650000D01*
D54*
X126650000Y-25550000D02*
X126650000Y-27550000D01*
X126650000Y-27550000D02*
X151950000Y-52850000D01*
D56*
X142750000Y-78950000D02*
X142750000Y-77450000D01*
X142750000Y-77450000D02*
X143600000Y-76600000D01*
D57*
X168750000Y-68550000D02*
X164900000Y-68550000D01*
X164900000Y-68550000D02*
X164900000Y-66400000D01*
X164900000Y-66400000D02*
X165300000Y-66000000D01*
X171300000Y-99750000D02*
X171300000Y-94200000D01*
X171300000Y-90050000D02*
X171300000Y-69500000D01*
D56*
X171300000Y-69500000D02*
X171350000Y-69450000D01*
X171300000Y-99750000D02*
X171300000Y-101000000D01*
X171300000Y-101000000D02*
X167950000Y-104350000D01*
X167950000Y-104350000D02*
X166000000Y-104350000D01*
X166000000Y-104350000D02*
X164300000Y-106050000D01*
D57*
X154650000Y-140650000D02*
X154650000Y-136150000D01*
X154650000Y-140650000D02*
X153100000Y-140650000D01*
X153100000Y-140650000D02*
X152400000Y-139950000D01*
D56*
X151285000Y-135085000D02*
X151300000Y-135100000D01*
X151350000Y-135150000D02*
X138400000Y-135150000D01*
X138400000Y-135085000D02*
X136985000Y-135085000D01*
X136985000Y-135085000D02*
X130050000Y-128150000D01*
X130050000Y-128150000D02*
X118200000Y-128150000D01*
X118200000Y-128150000D02*
X109500000Y-136850000D01*
X109500000Y-136850000D02*
X109500000Y-139200000D01*
D58*
X110500000Y-146600000D02*
X110500000Y-144500000D01*
X110500000Y-144500000D02*
X110500000Y-144100000D01*
X110500000Y-144100000D02*
X108550000Y-142150000D01*
D57*
X157650000Y-137100000D02*
X157650000Y-141600000D01*
X157710000Y-141590000D02*
X157700000Y-141600000D01*
X157650000Y-141600000D02*
X157650000Y-143050000D01*
X157650000Y-143050000D02*
X156500000Y-144200000D01*
X156500000Y-144200000D02*
X154800000Y-144200000D01*
X150800000Y-144200000D02*
X147700000Y-144200000D01*
X147700000Y-144200000D02*
X146000000Y-145900000D01*
X146000000Y-145900000D02*
X146000000Y-146700000D01*
X76290000Y-81990000D02*
X76290000Y-76310000D01*
X76290000Y-76310000D02*
X76300000Y-76300000D01*
X76290000Y-81990000D02*
X71010000Y-81990000D01*
X71010000Y-81990000D02*
X70900000Y-81880000D01*
X70900000Y-81880000D02*
X70900000Y-76000000D01*
X202250000Y-71500000D02*
X202250000Y-73850000D01*
X202250000Y-73850000D02*
X202200000Y-73900000D01*
X201150000Y-78000000D02*
X201150000Y-77250000D01*
X201150000Y-77250000D02*
X202300000Y-76100000D01*
X177400000Y-81000000D02*
X177400000Y-78600000D01*
D56*
X176100000Y-78700000D02*
X177500000Y-78700000D01*
X175900000Y-72100000D02*
X175900000Y-78500000D01*
X176100000Y-71900000D02*
X175900000Y-72100000D01*
X175900000Y-78500000D02*
X176100000Y-78700000D01*
X179550000Y-71900000D02*
X181400000Y-70050000D01*
X176100000Y-71900000D02*
X179550000Y-71900000D01*
X183400000Y-68200000D02*
X187050000Y-68200000D01*
X187050000Y-68200000D02*
X188600000Y-66650000D01*
X188600000Y-66650000D02*
X191400000Y-66650000D01*
D57*
X184600000Y-90050000D02*
X184600000Y-87800000D01*
D59*
X184500000Y-87800000D02*
X185200000Y-87800000D01*
X185200000Y-87800000D02*
X185800000Y-87200000D01*
X185800000Y-85739998D02*
X186139998Y-85400000D01*
X185800000Y-87200000D02*
X185800000Y-85739998D01*
X186139998Y-85400000D02*
X187000000Y-85400000D01*
D57*
X184650000Y-99347070D02*
X184650000Y-92700000D01*
X184650000Y-99347070D02*
X184650000Y-106050000D01*
X184650000Y-106050000D02*
X182100000Y-108600000D01*
X196434990Y-66565010D02*
X201565010Y-66565010D01*
X196400000Y-66635000D02*
X196400000Y-66600000D01*
X196400000Y-66600000D02*
X196434990Y-66565010D01*
X201565010Y-66565010D02*
X201600000Y-66600000D01*
D59*
X191400000Y-86075000D02*
X191400000Y-86500000D01*
X191400000Y-86500000D02*
X192200000Y-87300000D01*
X192200000Y-87300000D02*
X193900000Y-87300000D01*
D57*
X193975000Y-87550000D02*
X193975000Y-89675000D01*
X193975000Y-89675000D02*
X194000000Y-89700000D01*
D56*
X123200000Y-144250000D02*
X123200000Y-146650000D01*
X120700000Y-141950000D02*
X120700000Y-146550000D01*
X120700000Y-146550000D02*
X120650000Y-146600000D01*
X118350000Y-139850000D02*
X118350000Y-146300000D01*
X118350000Y-146300000D02*
X118100000Y-146550000D01*
X115700000Y-137550000D02*
X115700000Y-146450000D01*
X115700000Y-146450000D02*
X115550000Y-146600000D01*
D58*
X113040000Y-147802081D02*
X111342081Y-149500000D01*
X113040000Y-146600000D02*
X113040000Y-147802081D01*
X111342081Y-149500000D02*
X105650000Y-149500000D01*
D57*
X168500000Y-140900000D02*
X168550000Y-140850000D01*
X157650000Y-134500000D02*
X157650000Y-134550000D01*
X168400000Y-140900000D02*
X161950000Y-134450000D01*
X161950000Y-134450000D02*
X157550000Y-134450000D01*
X86950000Y-90300000D02*
X86950000Y-87250000D01*
X86950000Y-87250000D02*
X86700000Y-87000000D01*
X86700000Y-87000000D02*
X83800000Y-87000000D01*
D56*
X150269990Y-111650000D02*
X146900000Y-108280010D01*
X174490000Y-121220000D02*
X164920000Y-111650000D01*
X164920000Y-111650000D02*
X150269990Y-111650000D01*
X94350000Y-82050000D02*
X89600000Y-82050000D01*
D57*
X146950000Y-104000000D02*
X142900000Y-104000000D01*
X142900000Y-104000000D02*
X136900000Y-110000000D01*
X136900000Y-110000000D02*
X93200000Y-110000000D01*
X93200000Y-110000000D02*
X93200000Y-109950000D01*
X93200000Y-109950000D02*
X91650000Y-108400000D01*
X91650000Y-108400000D02*
X91650000Y-106050000D01*
X91650000Y-100400000D02*
X91650000Y-84850000D01*
X91650000Y-84850000D02*
X94500000Y-82000000D01*
X87000000Y-82000000D02*
X83700000Y-82000000D01*
D59*
X124351330Y-89851330D02*
X124400000Y-89900000D01*
X121308200Y-89851330D02*
X124351330Y-89851330D01*
D57*
X110050000Y-92400000D02*
X108600000Y-91450000D01*
X123800000Y-92400000D02*
X110050000Y-92400000D01*
X124351330Y-89851330D02*
X123800000Y-90402660D01*
X123800000Y-90402660D02*
X123800000Y-92400000D01*
D58*
X127150000Y-89900000D02*
X127150000Y-87500000D01*
D57*
X124400000Y-89900000D02*
X127150000Y-89900000D01*
D56*
X140000000Y-80900000D02*
X140100000Y-80800000D01*
X139100000Y-84900000D02*
X139100000Y-83000000D01*
X139100000Y-83000000D02*
X139700000Y-82400000D01*
X139700000Y-82400000D02*
X139700000Y-80800000D01*
D57*
X230444600Y-142350000D02*
X234600000Y-142350000D01*
X234600000Y-142350000D02*
X236800000Y-140150000D01*
X236800000Y-140150000D02*
X236800000Y-132100000D01*
X236800000Y-132100000D02*
X234350000Y-129650000D01*
X234350000Y-129650000D02*
X230300000Y-129650000D01*
X229850000Y-119150000D02*
X233150000Y-119150000D01*
X233150000Y-119150000D02*
X236350000Y-122350000D01*
X236350000Y-127650000D02*
X234350000Y-129650000D01*
X236350000Y-122350000D02*
X236350000Y-127650000D01*
X154170000Y-105980000D02*
X154170000Y-101870000D01*
X154170000Y-101870000D02*
X153300000Y-101000000D01*
X153300000Y-101000000D02*
X153300000Y-98200000D01*
X153300000Y-98200000D02*
X157300000Y-94200000D01*
X157300000Y-94200000D02*
X158850000Y-92650000D01*
X158850000Y-92650000D02*
X159400000Y-92650000D01*
X159400000Y-92650000D02*
X161000000Y-94250000D01*
D56*
X160500001Y-120600001D02*
X160500001Y-123849999D01*
X160450000Y-119600000D02*
X160450000Y-120550000D01*
X160450000Y-120550000D02*
X160500001Y-120600001D01*
D57*
X160500001Y-123849999D02*
X155500001Y-123849999D01*
X141250000Y-128050000D02*
X141250000Y-130000000D01*
X141250000Y-130000000D02*
X141300000Y-130050000D01*
X141500000Y-128000000D02*
X141500000Y-125950000D01*
X141525000Y-125925000D02*
X153425000Y-125925000D01*
X141500000Y-125950000D02*
X141525000Y-125925000D01*
X155500001Y-123849999D02*
X153425000Y-125925000D01*
D56*
X154300000Y-108080001D02*
X154300000Y-110650000D01*
X154300000Y-110650000D02*
X154250000Y-110700000D01*
X153800000Y-114032002D02*
X159367998Y-119600000D01*
X159367998Y-119600000D02*
X160450000Y-119600000D01*
X153800000Y-112550000D02*
X153800000Y-114032002D01*
X141550000Y-129900000D02*
X138450000Y-129900000D01*
X138450000Y-129900000D02*
X138400000Y-129950000D01*
X185700000Y-63200000D02*
X185700000Y-65300000D01*
X185700000Y-65300000D02*
X185600000Y-65400000D01*
X143520000Y-146600000D02*
X145770000Y-148850000D01*
X145770000Y-148850000D02*
X150850000Y-148850000D01*
X154550000Y-148800000D02*
X165700000Y-148800000D01*
X165700000Y-148800000D02*
X165850000Y-148650000D01*
D57*
X169410000Y-121220000D02*
X169410000Y-132310000D01*
X169410000Y-132310000D02*
X176050000Y-138950000D01*
X176050000Y-138950000D02*
X176050000Y-155150000D01*
X171950000Y-121220000D02*
X171950000Y-132450000D01*
X171950000Y-132450000D02*
X186350000Y-146850000D01*
X186350000Y-146850000D02*
X188750000Y-146850000D01*
X188750000Y-146850000D02*
X191500000Y-149600000D01*
X191500000Y-149600000D02*
X191500000Y-154950000D01*
X261000000Y-128650000D02*
X261000000Y-135150000D01*
D59*
X120538699Y-89438929D02*
X120603699Y-89373929D01*
X117773322Y-89350950D02*
X118049499Y-89627127D01*
X117091800Y-89350950D02*
X117773322Y-89350950D01*
X118114499Y-89847401D02*
X120538699Y-89847401D01*
X118049499Y-89627127D02*
X118049499Y-89782401D01*
X118049499Y-89782401D02*
X118114499Y-89847401D01*
X120538699Y-89847401D02*
X120538699Y-89438929D01*
X120603699Y-89373929D02*
X121400000Y-89373929D01*
D56*
X138400000Y-136355000D02*
X139650000Y-136355000D01*
X140980000Y-146600000D02*
X140980000Y-143620000D01*
X140980000Y-143620000D02*
X142000000Y-142600000D01*
X142000000Y-138705000D02*
X139650000Y-136355000D01*
X142000000Y-142600000D02*
X142000000Y-138705000D01*
X138990002Y-137625000D02*
X139065002Y-137700000D01*
X138400000Y-137625000D02*
X138990002Y-137625000D01*
X138440000Y-146600000D02*
X138440000Y-143360000D01*
X138440000Y-143360000D02*
X140450000Y-141350000D01*
X140450000Y-141350000D02*
X140450000Y-138650000D01*
X140450000Y-138650000D02*
X139450000Y-137650000D01*
X139450000Y-137650000D02*
X138400000Y-137650000D01*
X135900000Y-146600000D02*
X135900000Y-144000000D01*
X135900000Y-144000000D02*
X138500000Y-141400000D01*
X138500000Y-141400000D02*
X138500000Y-138850000D01*
X136250000Y-139100000D02*
X136250000Y-135850000D01*
X136250000Y-135850000D02*
X134250000Y-133850000D01*
X134250000Y-133850000D02*
X129100000Y-133850000D01*
X131750000Y-143700000D02*
X136200000Y-139100000D01*
X125900000Y-143700000D02*
X131750000Y-143700000D01*
X129100000Y-135085000D02*
X133835000Y-135085000D01*
X133835000Y-135085000D02*
X135150000Y-136400000D01*
X135150000Y-136400000D02*
X135150000Y-138750000D01*
X135100000Y-138750000D02*
X131800000Y-142050000D01*
X131800000Y-142050000D02*
X123500000Y-142050000D01*
X129100000Y-136355000D02*
X131155000Y-136355000D01*
X131155000Y-136355000D02*
X131600000Y-136800000D01*
X131600000Y-136800000D02*
X131600000Y-138255002D01*
X131600000Y-138255002D02*
X131600000Y-139300000D01*
X131600000Y-139300000D02*
X131000000Y-139900000D01*
X130950000Y-139900000D02*
X121000000Y-139900000D01*
X129050000Y-137625000D02*
X118475000Y-137625000D01*
X118475000Y-137625000D02*
X118400000Y-137550000D01*
D57*
X55000000Y-154700000D02*
X162750000Y-154700000D01*
X166870000Y-121220000D02*
X166870000Y-133420000D01*
X171525000Y-138075000D02*
X171525000Y-145925000D01*
X166870000Y-133420000D02*
X171525000Y-138075000D01*
X162750000Y-154700000D02*
X171525000Y-145925000D01*
X159250000Y-105980000D02*
X159250000Y-102650000D01*
X159250000Y-102650000D02*
X160900000Y-101000000D01*
X160920000Y-101000000D02*
X160920000Y-96920000D01*
X160920000Y-96920000D02*
X160900000Y-96900000D01*
D56*
X159250000Y-105980000D02*
X160500000Y-107230000D01*
X160500000Y-107230000D02*
X160500000Y-109900000D01*
D57*
X29800000Y-121400000D02*
X32700000Y-118500000D01*
X32700000Y-118500000D02*
X37400000Y-118500000D01*
X29800000Y-133500000D02*
X29800000Y-121400000D01*
D56*
X160250000Y-132600000D02*
X138400000Y-132600000D01*
X162550000Y-113650000D02*
X165580001Y-116680001D01*
X165580001Y-116680001D02*
X165580001Y-127269999D01*
X160900000Y-112650000D02*
X162550000Y-113650000D01*
X165580001Y-127269999D02*
X160250000Y-132600000D01*
X160900000Y-115600000D02*
X160900000Y-112650000D01*
X160400000Y-116100000D02*
X160900000Y-115600000D01*
D57*
X154200000Y-116100000D02*
X40700000Y-116050000D01*
X43857500Y-124750000D02*
X40500000Y-124750000D01*
X65950000Y-122000000D02*
X43200000Y-122000000D01*
X43200000Y-122000000D02*
X40450000Y-124750000D01*
X25550000Y-112350000D02*
X25700000Y-112500000D01*
X25700000Y-116250000D02*
X25700000Y-112550000D01*
X40600000Y-124800000D02*
X38350000Y-122550000D01*
X38350000Y-122550000D02*
X35500000Y-122550000D01*
X20500000Y-113800000D02*
X23050000Y-113800000D01*
X23050000Y-113800000D02*
X24500000Y-113800000D01*
X24500000Y-113800000D02*
X25700000Y-112600000D01*
X20500000Y-113800000D02*
X19550000Y-113800000D01*
X19550000Y-113800000D02*
X18400000Y-112650000D01*
X18400000Y-108839998D02*
X20139998Y-107100000D01*
X18400000Y-112650000D02*
X18400000Y-108839998D01*
X20139998Y-107100000D02*
X20450000Y-107100000D01*
X31500000Y-116200000D02*
X26050000Y-116200000D01*
X43200000Y-122000000D02*
X37400000Y-116200000D01*
X37400000Y-116200000D02*
X31500000Y-116200000D01*
D55*
X243926003Y-78749999D02*
X242526002Y-80150000D01*
X268600000Y-79100000D02*
X268249999Y-78749999D01*
X268249999Y-78749999D02*
X243926003Y-78749999D01*
X242526002Y-80150000D02*
X239800000Y-80150000D01*
X239800000Y-82724456D02*
X239650000Y-82874456D01*
X239800000Y-80150000D02*
X239800000Y-82724456D01*
X239650000Y-82874456D02*
X239650000Y-86800000D01*
X231075544Y-86800000D02*
X226375544Y-91500000D01*
X239650000Y-86800000D02*
X231075544Y-86800000D01*
X226375544Y-91500000D02*
X218050000Y-91500000D01*
X226375544Y-106500000D02*
X230475544Y-110600000D01*
X226375544Y-91500000D02*
X226375544Y-106500000D01*
X230475544Y-110600000D02*
X233199999Y-110600000D01*
X259100000Y-98150000D02*
X259100000Y-103800000D01*
X259100000Y-103800000D02*
X259100000Y-105550000D01*
X259100000Y-105550000D02*
X254050000Y-110600000D01*
X254050000Y-110600000D02*
X240400001Y-110600000D01*
D57*
X259100000Y-103800000D02*
X259200000Y-103800000D01*
X259200000Y-103800000D02*
X262450000Y-107050000D01*
X32340000Y-137600000D02*
X36190000Y-133750000D01*
X36190000Y-133750000D02*
X43850000Y-133750000D01*
X156710000Y-105980000D02*
X156710000Y-102640000D01*
X156710000Y-102640000D02*
X158350000Y-101000000D01*
X158380000Y-101000000D02*
X158380000Y-98030000D01*
X158380000Y-98030000D02*
X157300000Y-96950000D01*
D56*
X145769990Y-107430010D02*
X144650000Y-108550000D01*
X149690613Y-107430010D02*
X145769990Y-107430010D01*
X149890622Y-107230001D02*
X149690613Y-107430010D01*
X156710000Y-105980000D02*
X155459999Y-107230001D01*
X155459999Y-107230001D02*
X149890622Y-107230001D01*
X157300000Y-112650000D02*
X157300000Y-114600000D01*
X163040001Y-120340001D02*
X163040001Y-126509999D01*
X157300000Y-114600000D02*
X163040001Y-120340001D01*
X163040001Y-126509999D02*
X158250000Y-131300000D01*
X158225000Y-131275000D02*
X158250000Y-131300000D01*
X138400000Y-131275000D02*
X158225000Y-131275000D01*
X157300000Y-112650000D02*
X157200000Y-112550000D01*
X155150001Y-107539999D02*
X155459999Y-107230001D01*
X155150001Y-110400001D02*
X155150001Y-107539999D01*
X155550000Y-110800000D02*
X155150001Y-110400001D01*
D57*
X139050000Y-114150000D02*
X144650000Y-108550000D01*
X34550000Y-114150000D02*
X139050000Y-114150000D01*
X27100000Y-121600000D02*
X31000000Y-117700000D01*
X26600000Y-137600000D02*
X29800000Y-137600000D01*
X26150000Y-137150000D02*
X26600000Y-137600000D01*
X26150000Y-122700000D02*
X27100000Y-121600000D01*
X26150000Y-122700000D02*
X26150000Y-137150000D01*
X32340000Y-133500000D02*
X37940000Y-127900000D01*
X37940000Y-127900000D02*
X43700000Y-127900000D01*
X43700000Y-127900000D02*
X43850000Y-127750000D01*
X43857500Y-135250000D02*
X39050000Y-135250000D01*
X39050000Y-135250000D02*
X38150000Y-136150000D01*
X29700000Y-112550000D02*
X29700000Y-110150000D01*
D56*
X137150000Y-133815000D02*
X136300000Y-132965000D01*
X138400000Y-133815000D02*
X137150000Y-133815000D01*
X136300000Y-132965000D02*
X136300000Y-128100000D01*
X136300000Y-128100000D02*
X138550000Y-125850000D01*
D57*
X43857500Y-132250000D02*
X41650000Y-132250000D01*
X41650000Y-132250000D02*
X41600000Y-132200000D01*
X26400000Y-107100000D02*
X23150000Y-107100000D01*
X23150000Y-107100000D02*
X23100000Y-107050000D01*
X32400000Y-108100000D02*
X32400000Y-107450000D01*
X31799999Y-106849999D02*
X26600001Y-106849999D01*
X32400000Y-107450000D02*
X31799999Y-106849999D01*
X26600001Y-106849999D02*
X26400000Y-107050000D01*
X31799999Y-105800001D02*
X29400000Y-103000000D01*
X31799999Y-106849999D02*
X31799999Y-105800001D01*
D56*
X156710000Y-108520000D02*
X156710000Y-109710000D01*
X156710000Y-109710000D02*
X157750000Y-110750000D01*
X157750000Y-110750000D02*
X162200000Y-110750000D01*
X162200000Y-110750000D02*
X163040001Y-109909999D01*
X165400000Y-101550000D02*
X163040001Y-103909999D01*
X165400000Y-99500000D02*
X165400000Y-101550000D01*
X174700000Y-119000000D02*
X163040001Y-107340001D01*
X163040001Y-109909999D02*
X163040001Y-107340001D01*
X163040001Y-107340001D02*
X163040001Y-103909999D01*
X175779999Y-120629999D02*
X175779999Y-123929999D01*
X174700000Y-119000000D02*
X174700000Y-119550000D01*
X174700000Y-119550000D02*
X175779999Y-120629999D01*
D57*
X175700000Y-133450000D02*
X175779999Y-123929999D01*
X180850000Y-138600000D02*
X175700000Y-133450000D01*
X180850000Y-138600000D02*
X187000000Y-144750000D01*
X187000000Y-144750000D02*
X187050000Y-144800000D01*
X187050000Y-144800000D02*
X195350000Y-144800000D01*
X197700000Y-142400000D02*
X201250000Y-145950000D01*
X201250000Y-145950000D02*
X216150000Y-145950000D01*
X220750000Y-141400000D02*
X221750000Y-140400000D01*
X221750000Y-140400000D02*
X221750000Y-137900000D01*
X32800000Y-122550000D02*
X32800000Y-126550000D01*
X32800000Y-126550000D02*
X32900000Y-126450000D01*
X32900000Y-126450000D02*
X44000000Y-126450000D01*
X32800000Y-122550000D02*
X32800000Y-121250000D01*
X32800000Y-121250000D02*
X33700000Y-120350000D01*
X33700000Y-120350000D02*
X39150000Y-120350000D01*
X39150000Y-120350000D02*
X39200000Y-120300000D01*
X156400000Y-118250000D02*
X159500000Y-121350000D01*
X42699999Y-118250001D02*
X156400000Y-118250000D01*
X61642500Y-129250000D02*
X65950000Y-129250000D01*
X65700000Y-126250000D02*
X65950000Y-126500000D01*
X61642500Y-126250000D02*
X65700000Y-126250000D01*
X65950000Y-129250000D02*
X65950000Y-126500000D01*
X65950000Y-126500000D02*
X65950000Y-124650000D01*
X63385000Y-135250000D02*
X64385000Y-136250000D01*
X61642500Y-135250000D02*
X63385000Y-135250000D01*
X64385000Y-136250000D02*
X74750000Y-136250000D01*
X79340000Y-136310000D02*
X74550000Y-136310000D01*
X92050000Y-123600000D02*
X79340000Y-136310000D01*
X153000000Y-123600000D02*
X92050000Y-123600000D01*
X154170000Y-121220000D02*
X154170000Y-122430000D01*
X154170000Y-122430000D02*
X153000000Y-123600000D01*
X61642500Y-133750000D02*
X74650000Y-133750000D01*
X151500000Y-121670002D02*
X151500000Y-121250000D01*
X74550000Y-130900000D02*
X74550000Y-133770000D01*
X85950000Y-119500000D02*
X74550000Y-130900000D01*
X151041370Y-119500000D02*
X85950000Y-119500000D01*
X151630000Y-121220000D02*
X151630000Y-120088630D01*
X151630000Y-120088630D02*
X151041370Y-119500000D01*
D55*
X268600000Y-91800000D02*
X271500000Y-91800000D01*
X271500000Y-91800000D02*
X278600000Y-84700000D01*
X278600000Y-84700000D02*
X278600000Y-71600000D01*
D57*
X195950000Y-87300000D02*
X195950000Y-88700000D01*
D55*
X268600000Y-91800000D02*
X259000000Y-85500000D01*
D57*
X279100000Y-70350000D02*
X249100000Y-70350000D01*
X200950000Y-87300000D02*
X196000000Y-87300000D01*
X214500000Y-69000000D02*
X213650000Y-69850000D01*
X235500000Y-69000000D02*
X214500000Y-69000000D01*
X207191163Y-84858837D02*
X203400000Y-84850000D01*
X213650000Y-69850000D02*
X213650000Y-78400000D01*
X213650000Y-78400000D02*
X207191163Y-84858837D01*
X203400000Y-84850000D02*
X200950000Y-87300000D01*
X72900000Y-76500000D02*
X72900000Y-75200000D01*
X72900000Y-75200000D02*
X73200000Y-74900000D01*
X73200000Y-74900000D02*
X73200000Y-71600000D01*
X78200000Y-76500000D02*
X78200000Y-78700000D01*
X74600000Y-78700000D02*
X73000000Y-77100000D01*
X73000000Y-77100000D02*
X73000000Y-76700000D01*
D58*
X58200000Y-67650000D02*
X60600000Y-70050000D01*
X54950000Y-67650000D02*
X58200000Y-67650000D01*
X73200000Y-71600000D02*
X73200000Y-71100000D01*
X73200000Y-71100000D02*
X72300000Y-70200000D01*
X72300000Y-70200000D02*
X60600000Y-70050000D01*
X60600000Y-94754715D02*
X60600000Y-70050000D01*
X58944705Y-96410010D02*
X60600000Y-94754715D01*
X40055295Y-96410010D02*
X58944705Y-96410010D01*
X27350000Y-84200000D02*
X27350000Y-95650000D01*
X27350000Y-95650000D02*
X27400000Y-95700000D01*
X27400000Y-95700000D02*
X39345285Y-95700000D01*
X39345285Y-95700000D02*
X40055295Y-96410010D01*
D57*
X76290000Y-89610000D02*
X76290000Y-94690000D01*
X76290000Y-94690000D02*
X76300000Y-94700000D01*
X76290000Y-84530000D02*
X77830000Y-84530000D01*
X78600000Y-85300000D02*
X78600000Y-89000000D01*
X78600000Y-89000000D02*
X78000000Y-89600000D01*
X78000000Y-89600000D02*
X76200000Y-89600000D01*
X77250000Y-73500000D02*
X78700000Y-73500000D01*
X78700000Y-73500000D02*
X79900000Y-74700000D01*
X79900000Y-83300000D02*
X78250000Y-84950000D01*
X77830000Y-84530000D02*
X78250000Y-84950000D01*
X79900000Y-74700000D02*
X79900000Y-83300000D01*
X78250000Y-84950000D02*
X78600000Y-85300000D01*
X76290000Y-84530000D02*
X71430000Y-84530000D01*
X71430000Y-84530000D02*
X71400000Y-84500000D01*
D55*
X39200000Y-67650000D02*
X39150010Y-67600010D01*
X43400000Y-67750000D02*
X39200000Y-67650000D01*
D58*
X60228771Y-99510020D02*
X42450000Y-99510020D01*
X65800001Y-93938790D02*
X60228771Y-99510020D01*
X66450000Y-84500000D02*
X65800001Y-85149999D01*
X65800001Y-85149999D02*
X65800001Y-93938790D01*
X42450000Y-99510020D02*
X39989980Y-99510020D01*
X39989980Y-99510020D02*
X39900000Y-99600000D01*
X204250000Y-58350000D02*
X204250000Y-66700000D01*
X199550000Y-53650000D02*
X204250000Y-58350000D01*
X194740000Y-31500000D02*
X199550000Y-33294000D01*
X199550000Y-33294000D02*
X199550000Y-53650000D01*
D57*
X272574600Y-118124600D02*
X272600000Y-118150000D01*
X272500000Y-117900000D02*
X266450000Y-117900000D01*
X266450000Y-117900000D02*
X260750000Y-123600000D01*
X256400599Y-138120721D02*
X260029868Y-141749990D01*
X274750000Y-122900000D02*
X276750001Y-120899999D01*
X272500000Y-122900000D02*
X274750000Y-122900000D01*
X276750001Y-120899999D02*
X276750001Y-115859999D01*
X276750001Y-115859999D02*
X274540001Y-113649999D01*
X274540001Y-113649999D02*
X263879079Y-113649999D01*
X256400599Y-121128479D02*
X256400599Y-138120721D01*
X263879079Y-113649999D02*
X256400599Y-121128479D01*
X260029868Y-141749990D02*
X261250000Y-141749990D01*
X100950000Y-82000000D02*
X100000000Y-82000000D01*
X100950000Y-82000000D02*
X100950000Y-83050000D01*
X100950000Y-80925000D02*
X100950000Y-82000000D01*
X100000000Y-82000000D02*
X93650000Y-88350000D01*
X93650000Y-88350000D02*
X93650000Y-100350000D01*
X93650000Y-106100000D02*
X93650000Y-107700000D01*
X93650000Y-107700000D02*
X94300000Y-108350000D01*
X94300000Y-108350000D02*
X136000000Y-108350000D01*
X136000000Y-108350000D02*
X136150000Y-108350000D01*
X136150000Y-108350000D02*
X155450000Y-89050000D01*
X163350000Y-101900000D02*
X163400000Y-93950000D01*
X161790000Y-105980000D02*
X161790000Y-103460000D01*
X161790000Y-103460000D02*
X163350000Y-101900000D01*
X163400000Y-93950000D02*
X163400000Y-93900000D01*
X163400000Y-93900000D02*
X161450000Y-91950000D01*
X161450000Y-91950000D02*
X161450000Y-89150000D01*
X161450000Y-89150000D02*
X159800000Y-89150000D01*
X159800000Y-89150000D02*
X159700000Y-89050000D01*
D55*
X49500000Y-67650000D02*
X49500000Y-62250000D01*
X39100000Y-26300000D02*
X39100000Y-26200000D01*
X31300000Y-26400000D02*
X31400000Y-26300000D01*
D52*
X38920000Y-26300000D02*
X31400000Y-26300000D01*
X29300000Y-28400000D02*
X21050000Y-28900000D01*
X31400000Y-26300000D02*
X29300000Y-28400000D01*
X34892102Y-26300000D02*
X46850000Y-38257898D01*
X31300000Y-26300000D02*
X34892102Y-26300000D01*
D55*
X49500000Y-62250000D02*
X49350000Y-58550000D01*
D52*
X47799990Y-38399990D02*
X47799990Y-60549990D01*
X47657898Y-38257898D02*
X47799990Y-38399990D01*
X47799990Y-60549990D02*
X49500000Y-62250000D01*
X46850000Y-38257898D02*
X47657898Y-38257898D01*
D62*
X18700000Y-76600000D02*
X18700000Y-84208000D01*
X32995961Y-76304039D02*
X18700000Y-76600000D01*
D55*
X33050000Y-67350000D02*
X32995961Y-76304039D01*
X32995961Y-76304039D02*
X32930001Y-74700001D01*
D57*
X230444600Y-136050800D02*
X227600800Y-136050800D01*
X227600800Y-136050800D02*
X225350000Y-133800000D01*
X225350000Y-133800000D02*
X225350000Y-128200000D01*
X225350000Y-128200000D02*
X230300000Y-123250000D01*
X230444600Y-123300000D02*
X223700000Y-123300000D01*
X223700000Y-123300000D02*
X222400000Y-122000000D01*
X219300000Y-133725000D02*
X221825000Y-133725000D01*
X221825000Y-133725000D02*
X221800000Y-133750000D01*
X221800000Y-133750000D02*
X221800000Y-136000000D01*
X225325000Y-133775000D02*
X225350000Y-133800000D01*
X221600000Y-133775000D02*
X225325000Y-133775000D01*
X270400000Y-133150000D02*
X272750000Y-133150000D01*
X265474001Y-138075999D02*
X270400000Y-133150000D01*
X264500000Y-148000000D02*
X265474001Y-147025999D01*
X265474001Y-147025999D02*
X265474001Y-138075999D01*
X218950000Y-141300000D02*
X225500000Y-148000000D01*
X225500000Y-148000000D02*
X264500000Y-148000000D01*
X216950000Y-133800000D02*
X216950000Y-134800000D01*
X216950000Y-133800000D02*
X219350000Y-133800000D01*
X216000000Y-133800000D02*
X216950000Y-133800000D01*
X218950000Y-141300000D02*
X218950000Y-133750000D01*
X216000000Y-133800000D02*
X215250000Y-134550000D01*
X215250000Y-134550000D02*
X215200000Y-134600000D01*
X215200000Y-134600000D02*
X208250000Y-134600000D01*
X208049990Y-134800010D02*
X206049990Y-134800010D01*
X208250000Y-134600000D02*
X208049990Y-134800010D01*
X206049990Y-134800010D02*
X205350000Y-135500000D01*
X205350000Y-135500000D02*
X205350000Y-137000000D01*
X225700000Y-134150000D02*
X225325000Y-133775000D01*
X225700000Y-141450000D02*
X225700000Y-134150000D01*
X169410000Y-105980000D02*
X171990000Y-103400000D01*
X171990000Y-103400000D02*
X173800000Y-103400000D01*
X173800000Y-103400000D02*
X176400000Y-100800000D01*
X274900000Y-109375000D02*
X279150000Y-109350000D01*
D56*
X169410000Y-105980000D02*
X169410000Y-110960000D01*
X169410000Y-110960000D02*
X178300000Y-119850000D01*
X178300000Y-119850000D02*
X178300000Y-122750000D01*
D57*
X178300000Y-124900000D02*
X178300000Y-122750000D01*
X193400000Y-140000000D02*
X178300000Y-124900000D01*
X208200000Y-154900000D02*
X193400000Y-140100000D01*
X208200000Y-155000000D02*
X208200000Y-154900000D01*
X271150000Y-155000000D02*
X208200000Y-155000000D01*
X279750000Y-109325000D02*
X280250011Y-109825011D01*
X279050000Y-109325000D02*
X279750000Y-109325000D01*
X193400000Y-140100000D02*
X193400000Y-140000000D01*
X280250011Y-141223987D02*
X271200000Y-150273998D01*
X271200000Y-150273998D02*
X271200000Y-155050000D01*
X280250011Y-109825011D02*
X280250011Y-141223987D01*
X271200000Y-155050000D02*
X271150000Y-155000000D01*
X264475000Y-107375000D02*
X264450000Y-107400000D01*
X264475000Y-107000000D02*
X264475000Y-107375000D01*
X264450000Y-107400000D02*
X264450000Y-109400000D01*
X266475000Y-109400000D02*
X268400000Y-109400000D01*
X268400000Y-107375000D02*
X270375000Y-107375000D01*
X272425000Y-107350000D02*
X274900000Y-107350000D01*
D56*
X209450000Y-126500000D02*
X209450000Y-127300000D01*
X209450000Y-127300000D02*
X208950000Y-127800000D01*
X208950000Y-127800000D02*
X205950000Y-127800000D01*
X205950000Y-127800000D02*
X205700000Y-127550000D01*
X205700000Y-127550000D02*
X203700000Y-127550000D01*
X203700000Y-127550000D02*
X203700000Y-126050000D01*
X203700000Y-126050000D02*
X203750000Y-126000000D01*
X203700000Y-127550000D02*
X201150000Y-127550000D01*
X201150000Y-127550000D02*
X200900000Y-127300000D01*
X209450000Y-126500000D02*
X209450000Y-124350000D01*
D57*
X209475000Y-124400000D02*
X209475000Y-122175000D01*
X209450000Y-126500000D02*
X217100000Y-126500000D01*
D56*
X207550000Y-129200000D02*
X204700000Y-129200000D01*
D57*
X217100000Y-139125000D02*
X217100000Y-137100000D01*
D56*
X211550000Y-137000000D02*
X217100000Y-137000000D01*
X201950000Y-132450000D02*
X200984998Y-132450000D01*
X200600000Y-132834998D02*
X200600000Y-136250000D01*
X200900000Y-132534998D02*
X200792499Y-132642499D01*
X200900000Y-129375000D02*
X200900000Y-132534998D01*
X200984998Y-132450000D02*
X200792499Y-132642499D01*
X200792499Y-132642499D02*
X200600000Y-132834998D01*
X209450000Y-129200000D02*
X211450000Y-129200000D01*
D57*
X197200000Y-130375000D02*
X197200000Y-128250000D01*
X199250000Y-132450000D02*
X199250000Y-130850000D01*
X199250000Y-130850000D02*
X198750000Y-130350000D01*
X198750000Y-130350000D02*
X197250000Y-130350000D01*
X197150000Y-128275000D02*
X191675000Y-128275000D01*
X191675000Y-128275000D02*
X191000000Y-127600000D01*
X191000000Y-127600000D02*
X191000000Y-125550000D01*
D56*
X201950000Y-134350000D02*
X202050000Y-134350000D01*
X202050000Y-134350000D02*
X202650000Y-134950000D01*
X202650000Y-134950000D02*
X202650000Y-136250000D01*
X202650000Y-136250000D02*
X202650000Y-136450000D01*
X208400000Y-137950000D02*
X214550000Y-137950000D01*
X208400000Y-137950000D02*
X204100000Y-137950000D01*
D57*
X186850000Y-123700000D02*
X186850000Y-125750000D01*
X186850000Y-125750000D02*
X199400000Y-138300000D01*
X202625000Y-138175000D02*
X202750000Y-138300000D01*
X199400000Y-138300000D02*
X202750000Y-138300000D01*
X202625000Y-136250000D02*
X202625000Y-138175000D01*
X202750000Y-138300000D02*
X209200000Y-138300000D01*
X182050000Y-123700000D02*
X183750000Y-123700000D01*
X179570000Y-121220000D02*
X182050000Y-123700000D01*
D56*
X208400000Y-136050000D02*
X214450000Y-136050000D01*
M02*
